<svg width="299" height="219" viewBox="0 0 299 219" fill="none" xmlns="http://www.w3.org/2000/svg">
<path d="M298.867 100.613V49.6569H246.099V27.8591L246.297 0.413574H195.002V167.125C195.002 173.825 196.323 180.459 198.89 186.648C201.457 192.836 205.219 198.458 209.961 203.191C214.704 207.924 220.333 211.675 226.526 214.23C232.72 216.785 239.357 218.094 246.057 218.081L298.867 217.996V167.875H259.305C257.554 167.877 255.819 167.533 254.201 166.864C252.582 166.194 251.112 165.212 249.873 163.974C248.635 162.735 247.652 161.265 246.983 159.646C246.314 158.027 245.97 156.293 245.972 154.541V134.725H246.113C246.113 123.402 246.113 112.078 246.113 100.57L298.867 100.613Z" fill="black"/>
<path d="M137.421 49.6569H177.478V0.413574H126.522V218.18H177.478V90.0368C177.478 85.0246 175.216 80.2802 171.321 77.1248L137.421 49.6569Z" fill="black"/>
<path d="M51.3908 154.541V0.413574H0.434814V167.125C0.434802 173.825 1.75609 180.459 4.32306 186.648C6.89004 192.836 10.6523 198.458 15.3945 203.191C20.1367 207.924 25.7657 211.675 31.9594 214.23C38.1532 216.785 44.7899 218.094 51.4899 218.081L108.886 217.996V167.875H64.7243C61.188 167.875 57.7966 166.47 55.2961 163.97C52.7956 161.469 51.3908 158.078 51.3908 154.541Z" fill="black"/>
</svg>
