<svg width="2158" height="1845" viewBox="0 0 2158 1845" fill="none" xmlns="http://www.w3.org/2000/svg">
<path d="M97.1673 202.5L53 177" stroke="#FA7128" stroke-width="5" stroke-linecap="round"/>
<path d="M9 202.5L53.1673 177" stroke="#FA7128" stroke-width="5" stroke-linecap="round"/>
<path d="M53 126V177" stroke="#FA7128" stroke-width="5" stroke-linecap="round"/>
<path d="M235.167 85.5L191 60" stroke="#FA7128" stroke-width="5" stroke-linecap="round"/>
<path d="M147 85.5L191.167 60" stroke="#FA7128" stroke-width="5" stroke-linecap="round"/>
<path d="M191 9V60" stroke="#FA7128" stroke-width="5" stroke-linecap="round"/>
<path d="M367.5 2.8327L342 47" stroke="#FA7128" stroke-width="5" stroke-linecap="round"/>
<path d="M367.5 91L342 46.8327" stroke="#FA7128" stroke-width="5" stroke-linecap="round"/>
<path d="M291 47H342" stroke="#FA7128" stroke-width="5" stroke-linecap="round"/>
<path d="M511.167 85.5L467 60" stroke="#FA7128" stroke-width="5" stroke-linecap="round"/>
<path d="M423 85.5L467.167 60" stroke="#FA7128" stroke-width="5" stroke-linecap="round"/>
<path d="M467 9V60" stroke="#FA7128" stroke-width="5" stroke-linecap="round"/>
<path d="M152.5 208.167L178 164" stroke="#FA7128" stroke-width="5" stroke-linecap="round"/>
<path d="M152.5 120L178 164.167" stroke="#FA7128" stroke-width="5" stroke-linecap="round"/>
<path d="M229 164H178" stroke="#FA7128" stroke-width="5" stroke-linecap="round"/>
<path d="M14.5 325.167L40 281" stroke="#FA7128" stroke-width="5" stroke-linecap="round"/>
<path d="M14.5 237L40 281.167" stroke="#FA7128" stroke-width="5" stroke-linecap="round"/>
<path d="M91 281H40" stroke="#FA7128" stroke-width="5" stroke-linecap="round"/>
<path d="M97.1673 436.5L53 411" stroke="#FA7128" stroke-width="5" stroke-linecap="round"/>
<path d="M9 436.5L53.1673 411" stroke="#FA7128" stroke-width="5" stroke-linecap="round"/>
<path d="M53 360V411" stroke="#FA7128" stroke-width="5" stroke-linecap="round"/>
<path d="M8.8327 476.5L53 502" stroke="#FA7128" stroke-width="5" stroke-linecap="round"/>
<path d="M97 476.5L52.8327 502" stroke="#FA7128" stroke-width="5" stroke-linecap="round"/>
<path d="M53 553V502" stroke="#FA7128" stroke-width="5" stroke-linecap="round"/>
<path d="M97.1673 787.5L53 762" stroke="#FA7128" stroke-width="5" stroke-linecap="round"/>
<path d="M9 787.5L53.1673 762" stroke="#FA7128" stroke-width="5" stroke-linecap="round"/>
<path d="M53 711V762" stroke="#FA7128" stroke-width="5" stroke-linecap="round"/>
<path d="M842.5 192.167L868 148" stroke="#FA7128" stroke-width="5" stroke-linecap="round"/>
<path d="M842.5 104L868 148.167" stroke="#FA7128" stroke-width="5" stroke-linecap="round"/>
<path d="M919 148H868" stroke="#FA7128" stroke-width="5" stroke-linecap="round"/>
<path d="M1057.17 85.5L1013 60" stroke="#FA7128" stroke-width="5" stroke-linecap="round"/>
<path d="M969 85.5L1013.17 60" stroke="#FA7128" stroke-width="5" stroke-linecap="round"/>
<path d="M1013 9V60" stroke="#FA7128" stroke-width="5" stroke-linecap="round"/>
<path d="M649.167 430.5L605 405" stroke="#FA7128" stroke-width="5" stroke-linecap="round"/>
<path d="M561 430.5L605.167 405" stroke="#FA7128" stroke-width="5" stroke-linecap="round"/>
<path d="M605 354V405" stroke="#FA7128" stroke-width="5" stroke-linecap="round"/>
<path d="M507.167 551.5L463 526" stroke="#FA7128" stroke-width="5" stroke-linecap="round"/>
<path d="M419 551.5L463.167 526" stroke="#FA7128" stroke-width="5" stroke-linecap="round"/>
<path d="M463 475V526" stroke="#FA7128" stroke-width="5" stroke-linecap="round"/>
<path d="M566.5 544.167L592 500" stroke="#FA7128" stroke-width="5" stroke-linecap="round"/>
<path d="M566.5 456L592 500.167" stroke="#FA7128" stroke-width="5" stroke-linecap="round"/>
<path d="M643 500H592" stroke="#FA7128" stroke-width="5" stroke-linecap="round"/>
<path d="M235.167 761.5L191 736" stroke="#FA7128" stroke-width="5" stroke-linecap="round"/>
<path d="M147 761.5L191.167 736" stroke="#FA7128" stroke-width="5" stroke-linecap="round"/>
<path d="M191 685V736" stroke="#FA7128" stroke-width="5" stroke-linecap="round"/>
<path d="M14.5 911.167L40 867" stroke="#FA7128" stroke-width="5" stroke-linecap="round"/>
<path d="M14.5 823L40 867.167" stroke="#FA7128" stroke-width="5" stroke-linecap="round"/>
<path d="M91 867H40" stroke="#FA7128" stroke-width="5" stroke-linecap="round"/>
<path d="M97.1673 670.5L53 645" stroke="#FA7128" stroke-width="5" stroke-linecap="round"/>
<path d="M9 670.5L53.1673 645" stroke="#FA7128" stroke-width="5" stroke-linecap="round"/>
<path d="M53 594V645" stroke="#FA7128" stroke-width="5" stroke-linecap="round"/>
<path d="M97.3346 1022.5L53.1673 997" stroke="#FA7128" stroke-width="5" stroke-linecap="round"/>
<path d="M9.1673 1022.5L53.3346 997" stroke="#FA7128" stroke-width="5" stroke-linecap="round"/>
<path d="M53.1673 946V997" stroke="#FA7128" stroke-width="5" stroke-linecap="round"/>
<path d="M14.6673 1145.17L40.1673 1101" stroke="#FA7128" stroke-width="5" stroke-linecap="round"/>
<path d="M14.6673 1057L40.1673 1101.17" stroke="#FA7128" stroke-width="5" stroke-linecap="round"/>
<path d="M91.1673 1101H40.1673" stroke="#FA7128" stroke-width="5" stroke-linecap="round"/>
<path d="M97.3346 1256.5L53.1673 1231" stroke="#FA7128" stroke-width="5" stroke-linecap="round"/>
<path d="M9.1673 1256.5L53.3346 1231" stroke="#FA7128" stroke-width="5" stroke-linecap="round"/>
<path d="M53.1673 1180V1231" stroke="#FA7128" stroke-width="5" stroke-linecap="round"/>
<path d="M9 1296.5L53.1673 1322" stroke="#FA7128" stroke-width="5" stroke-linecap="round"/>
<path d="M97.1673 1296.5L53 1322" stroke="#FA7128" stroke-width="5" stroke-linecap="round"/>
<path d="M53.1673 1373V1322" stroke="#FA7128" stroke-width="5" stroke-linecap="round"/>
<path d="M97.3346 1607.5L53.1673 1582" stroke="#FA7128" stroke-width="5" stroke-linecap="round"/>
<path d="M9.1673 1607.5L53.3346 1582" stroke="#FA7128" stroke-width="5" stroke-linecap="round"/>
<path d="M53.1673 1531V1582" stroke="#FA7128" stroke-width="5" stroke-linecap="round"/>
<path d="M14.6673 1731.17L40.1673 1687" stroke="#FA7128" stroke-width="5" stroke-linecap="round"/>
<path d="M14.6673 1643L40.1673 1687.17" stroke="#FA7128" stroke-width="5" stroke-linecap="round"/>
<path d="M91.1673 1687H40.1673" stroke="#FA7128" stroke-width="5" stroke-linecap="round"/>
<path d="M14.6673 1731.17L40.1673 1687" stroke="#FA7128" stroke-width="5" stroke-linecap="round"/>
<path d="M14.6673 1643L40.1673 1687.17" stroke="#FA7128" stroke-width="5" stroke-linecap="round"/>
<path d="M91.1673 1687H40.1673" stroke="#FA7128" stroke-width="5" stroke-linecap="round"/>
<path d="M14.5 1496.33L40 1452.17" stroke="#FA7128" stroke-width="5" stroke-linecap="round"/>
<path d="M14.5 1408.17L40 1452.33" stroke="#FA7128" stroke-width="5" stroke-linecap="round"/>
<path d="M91 1452.17H40" stroke="#FA7128" stroke-width="5" stroke-linecap="round"/>
<path d="M428.5 208.167L454 164" stroke="#FA7128" stroke-width="5" stroke-linecap="round"/>
<path d="M428.5 120L454 164.167" stroke="#FA7128" stroke-width="5" stroke-linecap="round"/>
<path d="M505 164H454" stroke="#FA7128" stroke-width="5" stroke-linecap="round"/>
<path d="M290.5 325.167L316 281" stroke="#FA7128" stroke-width="5" stroke-linecap="round"/>
<path d="M290.5 237L316 281.167" stroke="#FA7128" stroke-width="5" stroke-linecap="round"/>
<path d="M367 281H316" stroke="#FA7128" stroke-width="5" stroke-linecap="round"/>
<path d="M152.5 442.167L178 398" stroke="#FA7128" stroke-width="5" stroke-linecap="round"/>
<path d="M152.5 354L178 398.167" stroke="#FA7128" stroke-width="5" stroke-linecap="round"/>
<path d="M229 398H178" stroke="#FA7128" stroke-width="5" stroke-linecap="round"/>
<path d="M566.5 91.1673L592 47" stroke="#FA7128" stroke-width="5" stroke-linecap="round"/>
<path d="M566.5 3L592 47.1673" stroke="#FA7128" stroke-width="5" stroke-linecap="round"/>
<path d="M643 47H592" stroke="#FA7128" stroke-width="5" stroke-linecap="round"/>
<path d="M842.5 91.1673L868 47" stroke="#FA7128" stroke-width="5" stroke-linecap="round"/>
<path d="M842.5 3L868 47.1673" stroke="#FA7128" stroke-width="5" stroke-linecap="round"/>
<path d="M919 47H868" stroke="#FA7128" stroke-width="5" stroke-linecap="round"/>
<path d="M152.5 676.167L178 632" stroke="#FA7128" stroke-width="5" stroke-linecap="round"/>
<path d="M152.5 588L178 632.167" stroke="#FA7128" stroke-width="5" stroke-linecap="round"/>
<path d="M229 632H178" stroke="#FA7128" stroke-width="5" stroke-linecap="round"/>
<path d="M235.167 553.5L191 528" stroke="#FA7128" stroke-width="5" stroke-linecap="round"/>
<path d="M147 553.5L191.167 528" stroke="#FA7128" stroke-width="5" stroke-linecap="round"/>
<path d="M191 477V528" stroke="#FA7128" stroke-width="5" stroke-linecap="round"/>
<path d="M373.167 553.5L329 528" stroke="#FA7128" stroke-width="5" stroke-linecap="round"/>
<path d="M285 553.5L329.167 528" stroke="#FA7128" stroke-width="5" stroke-linecap="round"/>
<path d="M329 477V528" stroke="#FA7128" stroke-width="5" stroke-linecap="round"/>
<path d="M422.833 359.5L467 385" stroke="#FA7128" stroke-width="5" stroke-linecap="round"/>
<path d="M511 359.5L466.833 385" stroke="#FA7128" stroke-width="5" stroke-linecap="round"/>
<path d="M467 436V385" stroke="#FA7128" stroke-width="5" stroke-linecap="round"/>
<path d="M373.167 436.5L329 411" stroke="#FA7128" stroke-width="5" stroke-linecap="round"/>
<path d="M285 436.5L329.167 411" stroke="#FA7128" stroke-width="5" stroke-linecap="round"/>
<path d="M329 360V411" stroke="#FA7128" stroke-width="5" stroke-linecap="round"/>
<path d="M566.5 313.167L592 269" stroke="#FA7128" stroke-width="5" stroke-linecap="round"/>
<path d="M566.5 225L592 269.167" stroke="#FA7128" stroke-width="5" stroke-linecap="round"/>
<path d="M643 269H592" stroke="#FA7128" stroke-width="5" stroke-linecap="round"/>
<path d="M787.167 202.5L743 177" stroke="#FA7128" stroke-width="5" stroke-linecap="round"/>
<path d="M699 202.5L743.167 177" stroke="#FA7128" stroke-width="5" stroke-linecap="round"/>
<path d="M743 126V177" stroke="#FA7128" stroke-width="5" stroke-linecap="round"/>
<path d="M511.167 319.5L467 294" stroke="#FA7128" stroke-width="5" stroke-linecap="round"/>
<path d="M423 319.5L467.167 294" stroke="#FA7128" stroke-width="5" stroke-linecap="round"/>
<path d="M467 243V294" stroke="#FA7128" stroke-width="5" stroke-linecap="round"/>
<path d="M649.167 202.5L605 177" stroke="#FA7128" stroke-width="5" stroke-linecap="round"/>
<path d="M561 202.5L605.167 177" stroke="#FA7128" stroke-width="5" stroke-linecap="round"/>
<path d="M605 126V177" stroke="#FA7128" stroke-width="5" stroke-linecap="round"/>
<path d="M787.167 85.5L743 60" stroke="#FA7128" stroke-width="5" stroke-linecap="round"/>
<path d="M699 85.5L743.167 60" stroke="#FA7128" stroke-width="5" stroke-linecap="round"/>
<path d="M743 9V60" stroke="#FA7128" stroke-width="5" stroke-linecap="round"/>
<path d="M235.167 319.5L191 294" stroke="#FA7128" stroke-width="5" stroke-linecap="round"/>
<path d="M147 319.5L191.167 294" stroke="#FA7128" stroke-width="5" stroke-linecap="round"/>
<path d="M191 243V294" stroke="#FA7128" stroke-width="5" stroke-linecap="round"/>
<path d="M373.167 202.5L329 177" stroke="#FA7128" stroke-width="5" stroke-linecap="round"/>
<path d="M285 202.5L329.167 177" stroke="#FA7128" stroke-width="5" stroke-linecap="round"/>
<path d="M329 126V177" stroke="#FA7128" stroke-width="5" stroke-linecap="round"/>
<path d="M152.5 907.167L178 863" stroke="#FA7128" stroke-width="5" stroke-linecap="round"/>
<path d="M152.5 819L178 863.167" stroke="#FA7128" stroke-width="5" stroke-linecap="round"/>
<path d="M229 863H178" stroke="#FA7128" stroke-width="5" stroke-linecap="round"/>
<path d="M842.5 891.167L868 847" stroke="#FA7128" stroke-width="5" stroke-linecap="round"/>
<path d="M842.5 803L868 847.167" stroke="#FA7128" stroke-width="5" stroke-linecap="round"/>
<path d="M919 847H868" stroke="#FA7128" stroke-width="5" stroke-linecap="round"/>
<path d="M649.167 1129.5L605 1104" stroke="#FA7128" stroke-width="5" stroke-linecap="round"/>
<path d="M561 1129.5L605.167 1104" stroke="#FA7128" stroke-width="5" stroke-linecap="round"/>
<path d="M605 1053V1104" stroke="#FA7128" stroke-width="5" stroke-linecap="round"/>
<path d="M511.167 1252.5L467 1227" stroke="#FA7128" stroke-width="5" stroke-linecap="round"/>
<path d="M423 1252.5L467.167 1227" stroke="#FA7128" stroke-width="5" stroke-linecap="round"/>
<path d="M467 1176V1227" stroke="#FA7128" stroke-width="5" stroke-linecap="round"/>
<path d="M235.167 1460.5L191 1435" stroke="#FA7128" stroke-width="5" stroke-linecap="round"/>
<path d="M147 1460.5L191.167 1435" stroke="#FA7128" stroke-width="5" stroke-linecap="round"/>
<path d="M191 1384V1435" stroke="#FA7128" stroke-width="5" stroke-linecap="round"/>
<path d="M428.5 907.167L454 863" stroke="#FA7128" stroke-width="5" stroke-linecap="round"/>
<path d="M428.5 819L454 863.167" stroke="#FA7128" stroke-width="5" stroke-linecap="round"/>
<path d="M505 863H454" stroke="#FA7128" stroke-width="5" stroke-linecap="round"/>
<path d="M290.5 1024.17L316 980" stroke="#FA7128" stroke-width="5" stroke-linecap="round"/>
<path d="M290.5 936L316 980.167" stroke="#FA7128" stroke-width="5" stroke-linecap="round"/>
<path d="M367 980H316" stroke="#FA7128" stroke-width="5" stroke-linecap="round"/>
<path d="M152.5 1141.17L178 1097" stroke="#FA7128" stroke-width="5" stroke-linecap="round"/>
<path d="M152.5 1053L178 1097.17" stroke="#FA7128" stroke-width="5" stroke-linecap="round"/>
<path d="M229 1097H178" stroke="#FA7128" stroke-width="5" stroke-linecap="round"/>
<path d="M152.5 1375.17L178 1331" stroke="#FA7128" stroke-width="5" stroke-linecap="round"/>
<path d="M152.5 1287L178 1331.17" stroke="#FA7128" stroke-width="5" stroke-linecap="round"/>
<path d="M229 1331H178" stroke="#FA7128" stroke-width="5" stroke-linecap="round"/>
<path d="M235.167 1252.5L191 1227" stroke="#FA7128" stroke-width="5" stroke-linecap="round"/>
<path d="M147 1252.5L191.167 1227" stroke="#FA7128" stroke-width="5" stroke-linecap="round"/>
<path d="M191 1176V1227" stroke="#FA7128" stroke-width="5" stroke-linecap="round"/>
<path d="M284.833 1175.5L329 1201" stroke="#FA7128" stroke-width="5" stroke-linecap="round"/>
<path d="M373 1175.5L328.833 1201" stroke="#FA7128" stroke-width="5" stroke-linecap="round"/>
<path d="M329 1252V1201" stroke="#FA7128" stroke-width="5" stroke-linecap="round"/>
<path d="M422.833 1058.5L467 1084" stroke="#FA7128" stroke-width="5" stroke-linecap="round"/>
<path d="M511 1058.5L466.833 1084" stroke="#FA7128" stroke-width="5" stroke-linecap="round"/>
<path d="M467 1135V1084" stroke="#FA7128" stroke-width="5" stroke-linecap="round"/>
<path d="M373.167 1135.5L329 1110" stroke="#FA7128" stroke-width="5" stroke-linecap="round"/>
<path d="M285 1135.5L329.167 1110" stroke="#FA7128" stroke-width="5" stroke-linecap="round"/>
<path d="M329 1059V1110" stroke="#FA7128" stroke-width="5" stroke-linecap="round"/>
<path d="M566.5 1012.17L592 968" stroke="#FA7128" stroke-width="5" stroke-linecap="round"/>
<path d="M566.5 924L592 968.167" stroke="#FA7128" stroke-width="5" stroke-linecap="round"/>
<path d="M643 968H592" stroke="#FA7128" stroke-width="5" stroke-linecap="round"/>
<path d="M787.167 901.5L743 876" stroke="#FA7128" stroke-width="5" stroke-linecap="round"/>
<path d="M699 901.5L743.167 876" stroke="#FA7128" stroke-width="5" stroke-linecap="round"/>
<path d="M743 825V876" stroke="#FA7128" stroke-width="5" stroke-linecap="round"/>
<path d="M511.167 1018.5L467 993" stroke="#FA7128" stroke-width="5" stroke-linecap="round"/>
<path d="M423 1018.5L467.167 993" stroke="#FA7128" stroke-width="5" stroke-linecap="round"/>
<path d="M467 942V993" stroke="#FA7128" stroke-width="5" stroke-linecap="round"/>
<path d="M649.167 901.5L605 876" stroke="#FA7128" stroke-width="5" stroke-linecap="round"/>
<path d="M561 901.5L605.167 876" stroke="#FA7128" stroke-width="5" stroke-linecap="round"/>
<path d="M605 825V876" stroke="#FA7128" stroke-width="5" stroke-linecap="round"/>
<path d="M235.167 1018.5L191 993" stroke="#FA7128" stroke-width="5" stroke-linecap="round"/>
<path d="M147 1018.5L191.167 993" stroke="#FA7128" stroke-width="5" stroke-linecap="round"/>
<path d="M191 942V993" stroke="#FA7128" stroke-width="5" stroke-linecap="round"/>
<path d="M373.167 901.5L329 876" stroke="#FA7128" stroke-width="5" stroke-linecap="round"/>
<path d="M285 901.5L329.167 876" stroke="#FA7128" stroke-width="5" stroke-linecap="round"/>
<path d="M329 825V876" stroke="#FA7128" stroke-width="5" stroke-linecap="round"/>
<path d="M974.5 197.167L1000 153" stroke="#FA7128" stroke-width="5" stroke-linecap="round"/>
<path d="M974.5 109L1000 153.167" stroke="#FA7128" stroke-width="5" stroke-linecap="round"/>
<path d="M1051 153H1000" stroke="#FA7128" stroke-width="5" stroke-linecap="round"/>
<path d="M1057.33 308.5L1013.17 283" stroke="#FA7128" stroke-width="5" stroke-linecap="round"/>
<path d="M969.167 308.5L1013.33 283" stroke="#FA7128" stroke-width="5" stroke-linecap="round"/>
<path d="M1013.17 232V283" stroke="#FA7128" stroke-width="5" stroke-linecap="round"/>
<path d="M974.667 431.167L1000.17 387" stroke="#FA7128" stroke-width="5" stroke-linecap="round"/>
<path d="M974.667 343L1000.17 387.167" stroke="#FA7128" stroke-width="5" stroke-linecap="round"/>
<path d="M1051.17 387H1000.17" stroke="#FA7128" stroke-width="5" stroke-linecap="round"/>
<path d="M1057.33 542.5L1013.17 517" stroke="#FA7128" stroke-width="5" stroke-linecap="round"/>
<path d="M969.167 542.5L1013.33 517" stroke="#FA7128" stroke-width="5" stroke-linecap="round"/>
<path d="M1013.17 466V517" stroke="#FA7128" stroke-width="5" stroke-linecap="round"/>
<path d="M969 582.5L1013.17 608" stroke="#FA7128" stroke-width="5" stroke-linecap="round"/>
<path d="M1057.17 582.5L1013 608" stroke="#FA7128" stroke-width="5" stroke-linecap="round"/>
<path d="M1013.17 659V608" stroke="#FA7128" stroke-width="5" stroke-linecap="round"/>
<path d="M974.5 782.335L1000 738.167" stroke="#FA7128" stroke-width="5" stroke-linecap="round"/>
<path d="M974.5 694.167L1000 738.335" stroke="#FA7128" stroke-width="5" stroke-linecap="round"/>
<path d="M1051 738.167H1000" stroke="#FA7128" stroke-width="5" stroke-linecap="round"/>
<path d="M1112.5 193.167L1138 149" stroke="#FA7128" stroke-width="5" stroke-linecap="round"/>
<path d="M1112.5 105L1138 149.167" stroke="#FA7128" stroke-width="5" stroke-linecap="round"/>
<path d="M1189 149H1138" stroke="#FA7128" stroke-width="5" stroke-linecap="round"/>
<path d="M1803 190.167L1828.5 146" stroke="#FA7128" stroke-width="5" stroke-linecap="round"/>
<path d="M1803 102L1828.5 146.167" stroke="#FA7128" stroke-width="5" stroke-linecap="round"/>
<path d="M1879.5 146H1828.5" stroke="#FA7128" stroke-width="5" stroke-linecap="round"/>
<path d="M1609.17 415.5L1565 390" stroke="#FA7128" stroke-width="5" stroke-linecap="round"/>
<path d="M1521 415.5L1565.17 390" stroke="#FA7128" stroke-width="5" stroke-linecap="round"/>
<path d="M1565 339V390" stroke="#FA7128" stroke-width="5" stroke-linecap="round"/>
<path d="M1471.17 525.5L1427 500" stroke="#FA7128" stroke-width="5" stroke-linecap="round"/>
<path d="M1383 525.5L1427.17 500" stroke="#FA7128" stroke-width="5" stroke-linecap="round"/>
<path d="M1427 449V500" stroke="#FA7128" stroke-width="5" stroke-linecap="round"/>
<path d="M1195.17 746.5L1151 721" stroke="#FA7128" stroke-width="5" stroke-linecap="round"/>
<path d="M1107 746.5L1151.17 721" stroke="#FA7128" stroke-width="5" stroke-linecap="round"/>
<path d="M1151 670V721" stroke="#FA7128" stroke-width="5" stroke-linecap="round"/>
<path d="M1388.5 193.167L1414 149" stroke="#FA7128" stroke-width="5" stroke-linecap="round"/>
<path d="M1388.5 105L1414 149.167" stroke="#FA7128" stroke-width="5" stroke-linecap="round"/>
<path d="M1465 149H1414" stroke="#FA7128" stroke-width="5" stroke-linecap="round"/>
<path d="M1250.5 310.167L1276 266" stroke="#FA7128" stroke-width="5" stroke-linecap="round"/>
<path d="M1250.5 222L1276 266.167" stroke="#FA7128" stroke-width="5" stroke-linecap="round"/>
<path d="M1327 266H1276" stroke="#FA7128" stroke-width="5" stroke-linecap="round"/>
<path d="M1112.5 427.167L1138 383" stroke="#FA7128" stroke-width="5" stroke-linecap="round"/>
<path d="M1112.5 339L1138 383.167" stroke="#FA7128" stroke-width="5" stroke-linecap="round"/>
<path d="M1189 383H1138" stroke="#FA7128" stroke-width="5" stroke-linecap="round"/>
<path d="M1112.5 661.167L1138 617" stroke="#FA7128" stroke-width="5" stroke-linecap="round"/>
<path d="M1112.5 573L1138 617.167" stroke="#FA7128" stroke-width="5" stroke-linecap="round"/>
<path d="M1189 617H1138" stroke="#FA7128" stroke-width="5" stroke-linecap="round"/>
<path d="M222.167 1694.5L178 1669" stroke="#FA7128" stroke-width="5" stroke-linecap="round"/>
<path d="M134 1694.5L178.167 1669" stroke="#FA7128" stroke-width="5" stroke-linecap="round"/>
<path d="M178 1618V1669" stroke="#FA7128" stroke-width="5" stroke-linecap="round"/>
<path d="M139.5 1609.17L165 1565" stroke="#FA7128" stroke-width="5" stroke-linecap="round"/>
<path d="M139.5 1521L165 1565.17" stroke="#FA7128" stroke-width="5" stroke-linecap="round"/>
<path d="M216 1565H165" stroke="#FA7128" stroke-width="5" stroke-linecap="round"/>
<path d="M1195.17 538.5L1151 513" stroke="#FA7128" stroke-width="5" stroke-linecap="round"/>
<path d="M1107 538.5L1151.17 513" stroke="#FA7128" stroke-width="5" stroke-linecap="round"/>
<path d="M1151 462V513" stroke="#FA7128" stroke-width="5" stroke-linecap="round"/>
<path d="M1333.17 538.5L1289 513" stroke="#FA7128" stroke-width="5" stroke-linecap="round"/>
<path d="M1245 538.5L1289.17 513" stroke="#FA7128" stroke-width="5" stroke-linecap="round"/>
<path d="M1289 462V513" stroke="#FA7128" stroke-width="5" stroke-linecap="round"/>
<path d="M1382.83 344.5L1427 370" stroke="#FA7128" stroke-width="5" stroke-linecap="round"/>
<path d="M1471 344.5L1426.83 370" stroke="#FA7128" stroke-width="5" stroke-linecap="round"/>
<path d="M1427 421V370" stroke="#FA7128" stroke-width="5" stroke-linecap="round"/>
<path d="M1333.17 421.5L1289 396" stroke="#FA7128" stroke-width="5" stroke-linecap="round"/>
<path d="M1245 421.5L1289.17 396" stroke="#FA7128" stroke-width="5" stroke-linecap="round"/>
<path d="M1289 345V396" stroke="#FA7128" stroke-width="5" stroke-linecap="round"/>
<path d="M1526.5 298.167L1552 254" stroke="#FA7128" stroke-width="5" stroke-linecap="round"/>
<path d="M1526.5 210L1552 254.167" stroke="#FA7128" stroke-width="5" stroke-linecap="round"/>
<path d="M1603 254H1552" stroke="#FA7128" stroke-width="5" stroke-linecap="round"/>
<path d="M1747.17 187.5L1703 162" stroke="#FA7128" stroke-width="5" stroke-linecap="round"/>
<path d="M1659 187.5L1703.17 162" stroke="#FA7128" stroke-width="5" stroke-linecap="round"/>
<path d="M1703 111V162" stroke="#FA7128" stroke-width="5" stroke-linecap="round"/>
<path d="M1471.17 304.5L1427 279" stroke="#FA7128" stroke-width="5" stroke-linecap="round"/>
<path d="M1383 304.5L1427.17 279" stroke="#FA7128" stroke-width="5" stroke-linecap="round"/>
<path d="M1427 228V279" stroke="#FA7128" stroke-width="5" stroke-linecap="round"/>
<path d="M1609.17 187.5L1565 162" stroke="#FA7128" stroke-width="5" stroke-linecap="round"/>
<path d="M1521 187.5L1565.17 162" stroke="#FA7128" stroke-width="5" stroke-linecap="round"/>
<path d="M1565 111V162" stroke="#FA7128" stroke-width="5" stroke-linecap="round"/>
<path d="M1195.17 304.5L1151 279" stroke="#FA7128" stroke-width="5" stroke-linecap="round"/>
<path d="M1107 304.5L1151.17 279" stroke="#FA7128" stroke-width="5" stroke-linecap="round"/>
<path d="M1151 228V279" stroke="#FA7128" stroke-width="5" stroke-linecap="round"/>
<path d="M1333.17 187.5L1289 162" stroke="#FA7128" stroke-width="5" stroke-linecap="round"/>
<path d="M1245 187.5L1289.17 162" stroke="#FA7128" stroke-width="5" stroke-linecap="round"/>
<path d="M1289 111V162" stroke="#FA7128" stroke-width="5" stroke-linecap="round"/>
<path d="M14.5 911.167L40 867" stroke="#FA7128" stroke-width="5" stroke-linecap="round"/>
<path d="M14.5 823L40 867.167" stroke="#FA7128" stroke-width="5" stroke-linecap="round"/>
<path d="M91 867H40" stroke="#FA7128" stroke-width="5" stroke-linecap="round"/>
<path d="M97.3346 1022.5L53.1673 997" stroke="#FA7128" stroke-width="5" stroke-linecap="round"/>
<path d="M9.1673 1022.5L53.3346 997" stroke="#FA7128" stroke-width="5" stroke-linecap="round"/>
<path d="M53.1673 946V997" stroke="#FA7128" stroke-width="5" stroke-linecap="round"/>
<path d="M14.6673 1145.17L40.1673 1101" stroke="#FA7128" stroke-width="5" stroke-linecap="round"/>
<path d="M14.6673 1057L40.1673 1101.17" stroke="#FA7128" stroke-width="5" stroke-linecap="round"/>
<path d="M91.1673 1101H40.1673" stroke="#FA7128" stroke-width="5" stroke-linecap="round"/>
<path d="M97.3346 1256.5L53.1673 1231" stroke="#FA7128" stroke-width="5" stroke-linecap="round"/>
<path d="M9.1673 1256.5L53.3346 1231" stroke="#FA7128" stroke-width="5" stroke-linecap="round"/>
<path d="M53.1673 1180V1231" stroke="#FA7128" stroke-width="5" stroke-linecap="round"/>
<path d="M9 1296.5L53.1673 1322" stroke="#FA7128" stroke-width="5" stroke-linecap="round"/>
<path d="M97.1673 1296.5L53 1322" stroke="#FA7128" stroke-width="5" stroke-linecap="round"/>
<path d="M53.1673 1373V1322" stroke="#FA7128" stroke-width="5" stroke-linecap="round"/>
<path d="M14.5 1496.33L40 1452.17" stroke="#FA7128" stroke-width="5" stroke-linecap="round"/>
<path d="M14.5 1408.17L40 1452.33" stroke="#FA7128" stroke-width="5" stroke-linecap="round"/>
<path d="M91 1452.17H40" stroke="#FA7128" stroke-width="5" stroke-linecap="round"/>
<path d="M152.5 907.167L178 863" stroke="#FA7128" stroke-width="5" stroke-linecap="round"/>
<path d="M152.5 819L178 863.167" stroke="#FA7128" stroke-width="5" stroke-linecap="round"/>
<path d="M229 863H178" stroke="#FA7128" stroke-width="5" stroke-linecap="round"/>
<path d="M842.5 891.167L868 847" stroke="#FA7128" stroke-width="5" stroke-linecap="round"/>
<path d="M842.5 803L868 847.167" stroke="#FA7128" stroke-width="5" stroke-linecap="round"/>
<path d="M919 847H868" stroke="#FA7128" stroke-width="5" stroke-linecap="round"/>
<path d="M649.167 1129.5L605 1104" stroke="#FA7128" stroke-width="5" stroke-linecap="round"/>
<path d="M561 1129.5L605.167 1104" stroke="#FA7128" stroke-width="5" stroke-linecap="round"/>
<path d="M605 1053V1104" stroke="#FA7128" stroke-width="5" stroke-linecap="round"/>
<path d="M511.167 1252.5L467 1227" stroke="#FA7128" stroke-width="5" stroke-linecap="round"/>
<path d="M423 1252.5L467.167 1227" stroke="#FA7128" stroke-width="5" stroke-linecap="round"/>
<path d="M467 1176V1227" stroke="#FA7128" stroke-width="5" stroke-linecap="round"/>
<path d="M91.1673 1842.5L47 1817" stroke="#FA7128" stroke-width="5" stroke-linecap="round"/>
<path d="M3 1842.5L47.1673 1817" stroke="#FA7128" stroke-width="5" stroke-linecap="round"/>
<path d="M47 1766V1817" stroke="#FA7128" stroke-width="5" stroke-linecap="round"/>
<path d="M91.1673 1842.5L47 1817" stroke="#FA7128" stroke-width="5" stroke-linecap="round"/>
<path d="M3 1842.5L47.1673 1817" stroke="#FA7128" stroke-width="5" stroke-linecap="round"/>
<path d="M47 1766V1817" stroke="#FA7128" stroke-width="5" stroke-linecap="round"/>
<path d="M235.167 1460.5L191 1435" stroke="#FA7128" stroke-width="5" stroke-linecap="round"/>
<path d="M147 1460.5L191.167 1435" stroke="#FA7128" stroke-width="5" stroke-linecap="round"/>
<path d="M191 1384V1435" stroke="#FA7128" stroke-width="5" stroke-linecap="round"/>
<path d="M428.5 907.167L454 863" stroke="#FA7128" stroke-width="5" stroke-linecap="round"/>
<path d="M428.5 819L454 863.167" stroke="#FA7128" stroke-width="5" stroke-linecap="round"/>
<path d="M505 863H454" stroke="#FA7128" stroke-width="5" stroke-linecap="round"/>
<path d="M290.5 1024.17L316 980" stroke="#FA7128" stroke-width="5" stroke-linecap="round"/>
<path d="M290.5 936L316 980.167" stroke="#FA7128" stroke-width="5" stroke-linecap="round"/>
<path d="M367 980H316" stroke="#FA7128" stroke-width="5" stroke-linecap="round"/>
<path d="M152.5 1141.17L178 1097" stroke="#FA7128" stroke-width="5" stroke-linecap="round"/>
<path d="M152.5 1053L178 1097.17" stroke="#FA7128" stroke-width="5" stroke-linecap="round"/>
<path d="M229 1097H178" stroke="#FA7128" stroke-width="5" stroke-linecap="round"/>
<path d="M152.5 1375.17L178 1331" stroke="#FA7128" stroke-width="5" stroke-linecap="round"/>
<path d="M152.5 1287L178 1331.17" stroke="#FA7128" stroke-width="5" stroke-linecap="round"/>
<path d="M229 1331H178" stroke="#FA7128" stroke-width="5" stroke-linecap="round"/>
<path d="M235.167 1252.5L191 1227" stroke="#FA7128" stroke-width="5" stroke-linecap="round"/>
<path d="M147 1252.5L191.167 1227" stroke="#FA7128" stroke-width="5" stroke-linecap="round"/>
<path d="M191 1176V1227" stroke="#FA7128" stroke-width="5" stroke-linecap="round"/>
<path d="M284.833 1175.5L329 1201" stroke="#FA7128" stroke-width="5" stroke-linecap="round"/>
<path d="M373 1175.5L328.833 1201" stroke="#FA7128" stroke-width="5" stroke-linecap="round"/>
<path d="M329 1252V1201" stroke="#FA7128" stroke-width="5" stroke-linecap="round"/>
<path d="M422.833 1058.5L467 1084" stroke="#FA7128" stroke-width="5" stroke-linecap="round"/>
<path d="M511 1058.5L466.833 1084" stroke="#FA7128" stroke-width="5" stroke-linecap="round"/>
<path d="M467 1135V1084" stroke="#FA7128" stroke-width="5" stroke-linecap="round"/>
<path d="M373.167 1135.5L329 1110" stroke="#FA7128" stroke-width="5" stroke-linecap="round"/>
<path d="M285 1135.5L329.167 1110" stroke="#FA7128" stroke-width="5" stroke-linecap="round"/>
<path d="M329 1059V1110" stroke="#FA7128" stroke-width="5" stroke-linecap="round"/>
<path d="M566.5 1012.17L592 968" stroke="#FA7128" stroke-width="5" stroke-linecap="round"/>
<path d="M566.5 924L592 968.167" stroke="#FA7128" stroke-width="5" stroke-linecap="round"/>
<path d="M643 968H592" stroke="#FA7128" stroke-width="5" stroke-linecap="round"/>
<path d="M704.5 1135.17L730 1091" stroke="#FA7128" stroke-width="5" stroke-linecap="round"/>
<path d="M704.5 1047L730 1091.17" stroke="#FA7128" stroke-width="5" stroke-linecap="round"/>
<path d="M781 1091H730" stroke="#FA7128" stroke-width="5" stroke-linecap="round"/>
<path d="M781.5 923.833L756 968" stroke="#FA7128" stroke-width="5" stroke-linecap="round"/>
<path d="M781.5 1012L756 967.833" stroke="#FA7128" stroke-width="5" stroke-linecap="round"/>
<path d="M705 968H756" stroke="#FA7128" stroke-width="5" stroke-linecap="round"/>
<path d="M704.5 1135.17L730 1091" stroke="#FA7128" stroke-width="5" stroke-linecap="round"/>
<path d="M704.5 1047L730 1091.17" stroke="#FA7128" stroke-width="5" stroke-linecap="round"/>
<path d="M781 1091H730" stroke="#FA7128" stroke-width="5" stroke-linecap="round"/>
<path d="M781.5 923.833L756 968" stroke="#FA7128" stroke-width="5" stroke-linecap="round"/>
<path d="M781.5 1012L756 967.833" stroke="#FA7128" stroke-width="5" stroke-linecap="round"/>
<path d="M705 968H756" stroke="#FA7128" stroke-width="5" stroke-linecap="round"/>
<path d="M787.167 901.5L743 876" stroke="#FA7128" stroke-width="5" stroke-linecap="round"/>
<path d="M699 901.5L743.167 876" stroke="#FA7128" stroke-width="5" stroke-linecap="round"/>
<path d="M743 825V876" stroke="#FA7128" stroke-width="5" stroke-linecap="round"/>
<path d="M511.167 1018.5L467 993" stroke="#FA7128" stroke-width="5" stroke-linecap="round"/>
<path d="M423 1018.5L467.167 993" stroke="#FA7128" stroke-width="5" stroke-linecap="round"/>
<path d="M467 942V993" stroke="#FA7128" stroke-width="5" stroke-linecap="round"/>
<path d="M649.167 901.5L605 876" stroke="#FA7128" stroke-width="5" stroke-linecap="round"/>
<path d="M561 901.5L605.167 876" stroke="#FA7128" stroke-width="5" stroke-linecap="round"/>
<path d="M605 825V876" stroke="#FA7128" stroke-width="5" stroke-linecap="round"/>
<path d="M235.167 1018.5L191 993" stroke="#FA7128" stroke-width="5" stroke-linecap="round"/>
<path d="M147 1018.5L191.167 993" stroke="#FA7128" stroke-width="5" stroke-linecap="round"/>
<path d="M191 942V993" stroke="#FA7128" stroke-width="5" stroke-linecap="round"/>
<path d="M373.167 901.5L329 876" stroke="#FA7128" stroke-width="5" stroke-linecap="round"/>
<path d="M285 901.5L329.167 876" stroke="#FA7128" stroke-width="5" stroke-linecap="round"/>
<path d="M329 825V876" stroke="#FA7128" stroke-width="5" stroke-linecap="round"/>
<path d="M97.1673 85.5L53 60" stroke="#FA7128" stroke-width="5" stroke-linecap="round"/>
<path d="M9 85.5L53.1673 60" stroke="#FA7128" stroke-width="5" stroke-linecap="round"/>
<path d="M53 9V60" stroke="#FA7128" stroke-width="5" stroke-linecap="round"/>
<path d="M1333.17 85.6673L1289 60.1673" stroke="#FA7128" stroke-width="5" stroke-linecap="round"/>
<path d="M1245 85.6673L1289.17 60.1673" stroke="#FA7128" stroke-width="5" stroke-linecap="round"/>
<path d="M1289 9.1673V60.1673" stroke="#FA7128" stroke-width="5" stroke-linecap="round"/>
<path d="M1465.5 3L1440 47.1673" stroke="#FA7128" stroke-width="5" stroke-linecap="round"/>
<path d="M1465.5 91.1673L1440 47" stroke="#FA7128" stroke-width="5" stroke-linecap="round"/>
<path d="M1389 47.1673H1440" stroke="#FA7128" stroke-width="5" stroke-linecap="round"/>
<path d="M833.5 422.167L859 378" stroke="#FA7128" stroke-width="5" stroke-linecap="round"/>
<path d="M833.5 334L859 378.167" stroke="#FA7128" stroke-width="5" stroke-linecap="round"/>
<path d="M910 378H859" stroke="#FA7128" stroke-width="5" stroke-linecap="round"/>
<path d="M695.5 539.167L721 495" stroke="#FA7128" stroke-width="5" stroke-linecap="round"/>
<path d="M695.5 451L721 495.167" stroke="#FA7128" stroke-width="5" stroke-linecap="round"/>
<path d="M772 495H721" stroke="#FA7128" stroke-width="5" stroke-linecap="round"/>
<path d="M916.167 533.5L872 508" stroke="#FA7128" stroke-width="5" stroke-linecap="round"/>
<path d="M828 533.5L872.167 508" stroke="#FA7128" stroke-width="5" stroke-linecap="round"/>
<path d="M872 457V508" stroke="#FA7128" stroke-width="5" stroke-linecap="round"/>
<path d="M778.167 416.5L734 391" stroke="#FA7128" stroke-width="5" stroke-linecap="round"/>
<path d="M690 416.5L734.167 391" stroke="#FA7128" stroke-width="5" stroke-linecap="round"/>
<path d="M734 340V391" stroke="#FA7128" stroke-width="5" stroke-linecap="round"/>
<path d="M778.167 314.667L734 289.167" stroke="#FA7128" stroke-width="5" stroke-linecap="round"/>
<path d="M690 314.667L734.167 289.167" stroke="#FA7128" stroke-width="5" stroke-linecap="round"/>
<path d="M734 238.167V289.167" stroke="#FA7128" stroke-width="5" stroke-linecap="round"/>
<path d="M910.5 232L885 276.167" stroke="#FA7128" stroke-width="5" stroke-linecap="round"/>
<path d="M910.5 320.167L885 276" stroke="#FA7128" stroke-width="5" stroke-linecap="round"/>
<path d="M834 276.167H885" stroke="#FA7128" stroke-width="5" stroke-linecap="round"/>
<path d="M1609.17 85.6673L1565 60.1673" stroke="#FA7128" stroke-width="5" stroke-linecap="round"/>
<path d="M1521 85.6673L1565.17 60.1673" stroke="#FA7128" stroke-width="5" stroke-linecap="round"/>
<path d="M1565 9.1673V60.1673" stroke="#FA7128" stroke-width="5" stroke-linecap="round"/>
<path d="M2155.17 85.6673L2111 60.1673" stroke="#FA7128" stroke-width="5" stroke-linecap="round"/>
<path d="M2067 85.6673L2111.17 60.1673" stroke="#FA7128" stroke-width="5" stroke-linecap="round"/>
<path d="M2111 9.1673V60.1673" stroke="#FA7128" stroke-width="5" stroke-linecap="round"/>
<path d="M1664.5 91.3346L1690 47.1673" stroke="#FA7128" stroke-width="5" stroke-linecap="round"/>
<path d="M1664.5 3.1673L1690 47.3346" stroke="#FA7128" stroke-width="5" stroke-linecap="round"/>
<path d="M1741 47.1673H1690" stroke="#FA7128" stroke-width="5" stroke-linecap="round"/>
<path d="M1940.5 91.3346L1966 47.1673" stroke="#FA7128" stroke-width="5" stroke-linecap="round"/>
<path d="M1940.5 3.1673L1966 47.3346" stroke="#FA7128" stroke-width="5" stroke-linecap="round"/>
<path d="M2017 47.1673H1966" stroke="#FA7128" stroke-width="5" stroke-linecap="round"/>
<path d="M1885.17 85.6673L1841 60.1673" stroke="#FA7128" stroke-width="5" stroke-linecap="round"/>
<path d="M1797 85.6673L1841.17 60.1673" stroke="#FA7128" stroke-width="5" stroke-linecap="round"/>
<path d="M1841 9.1673V60.1673" stroke="#FA7128" stroke-width="5" stroke-linecap="round"/>
<path d="M1112.33 91.1673L1137.83 47" stroke="#FA7128" stroke-width="5" stroke-linecap="round"/>
<path d="M1112.33 3L1137.83 47.1673" stroke="#FA7128" stroke-width="5" stroke-linecap="round"/>
<path d="M1188.83 47H1137.83" stroke="#FA7128" stroke-width="5" stroke-linecap="round"/>
<path d="M373.167 662.5L329 637" stroke="#FA7128" stroke-width="5" stroke-linecap="round"/>
<path d="M285 662.5L329.167 637" stroke="#FA7128" stroke-width="5" stroke-linecap="round"/>
<path d="M329 586V637" stroke="#FA7128" stroke-width="5" stroke-linecap="round"/>
<path d="M290.5 774.167L316 730" stroke="#FA7128" stroke-width="5" stroke-linecap="round"/>
<path d="M290.5 686L316 730.167" stroke="#FA7128" stroke-width="5" stroke-linecap="round"/>
<path d="M367 730H316" stroke="#FA7128" stroke-width="5" stroke-linecap="round"/>
<path d="M428.5 770.167L454 726" stroke="#FA7128" stroke-width="5" stroke-linecap="round"/>
<path d="M428.5 682L454 726.167" stroke="#FA7128" stroke-width="5" stroke-linecap="round"/>
<path d="M505 726H454" stroke="#FA7128" stroke-width="5" stroke-linecap="round"/>
<path d="M704.5 770.167L730 726" stroke="#FA7128" stroke-width="5" stroke-linecap="round"/>
<path d="M704.5 682L730 726.167" stroke="#FA7128" stroke-width="5" stroke-linecap="round"/>
<path d="M781 726H730" stroke="#FA7128" stroke-width="5" stroke-linecap="round"/>
<path d="M925.167 764.5L881 739" stroke="#FA7128" stroke-width="5" stroke-linecap="round"/>
<path d="M837 764.5L881.167 739" stroke="#FA7128" stroke-width="5" stroke-linecap="round"/>
<path d="M881 688V739" stroke="#FA7128" stroke-width="5" stroke-linecap="round"/>
<path d="M649.167 764.5L605 739" stroke="#FA7128" stroke-width="5" stroke-linecap="round"/>
<path d="M561 764.5L605.167 739" stroke="#FA7128" stroke-width="5" stroke-linecap="round"/>
<path d="M605 688V739" stroke="#FA7128" stroke-width="5" stroke-linecap="round"/>
<path d="M649.167 662.667L605 637.167" stroke="#FA7128" stroke-width="5" stroke-linecap="round"/>
<path d="M561 662.667L605.167 637.167" stroke="#FA7128" stroke-width="5" stroke-linecap="round"/>
<path d="M605 586.167V637.167" stroke="#FA7128" stroke-width="5" stroke-linecap="round"/>
<path d="M781.5 580L756 624.167" stroke="#FA7128" stroke-width="5" stroke-linecap="round"/>
<path d="M781.5 668.167L756 624" stroke="#FA7128" stroke-width="5" stroke-linecap="round"/>
<path d="M705 624.167H756" stroke="#FA7128" stroke-width="5" stroke-linecap="round"/>
<path d="M925.167 662.667L881 637.167" stroke="#FA7128" stroke-width="5" stroke-linecap="round"/>
<path d="M837 662.667L881.167 637.167" stroke="#FA7128" stroke-width="5" stroke-linecap="round"/>
<path d="M881 586.167V637.167" stroke="#FA7128" stroke-width="5" stroke-linecap="round"/>
<path d="M428.333 668.167L453.833 624" stroke="#FA7128" stroke-width="5" stroke-linecap="round"/>
<path d="M428.333 580L453.833 624.167" stroke="#FA7128" stroke-width="5" stroke-linecap="round"/>
<path d="M504.833 624H453.833" stroke="#FA7128" stroke-width="5" stroke-linecap="round"/>
</svg>
