<svg width="2158" height="1845" viewBox="0 0 2158 1845" fill="none" xmlns="http://www.w3.org/2000/svg">
<path d="M2061 202.5L2105.17 177" stroke="#FA7128" stroke-width="5" stroke-linecap="round"/>
<path d="M2149.17 202.5L2105 177" stroke="#FA7128" stroke-width="5" stroke-linecap="round"/>
<path d="M2105.17 126V177" stroke="#FA7128" stroke-width="5" stroke-linecap="round"/>
<path d="M1923 85.5L1967.17 60" stroke="#FA7128" stroke-width="5" stroke-linecap="round"/>
<path d="M2011.17 85.5L1967 60" stroke="#FA7128" stroke-width="5" stroke-linecap="round"/>
<path d="M1967.17 9V60" stroke="#FA7128" stroke-width="5" stroke-linecap="round"/>
<path d="M1790.67 2.8327L1816.17 47" stroke="#FA7128" stroke-width="5" stroke-linecap="round"/>
<path d="M1790.67 91L1816.17 46.8327" stroke="#FA7128" stroke-width="5" stroke-linecap="round"/>
<path d="M1867.17 47H1816.17" stroke="#FA7128" stroke-width="5" stroke-linecap="round"/>
<path d="M1647 85.5L1691.17 60" stroke="#FA7128" stroke-width="5" stroke-linecap="round"/>
<path d="M1735.17 85.5L1691 60" stroke="#FA7128" stroke-width="5" stroke-linecap="round"/>
<path d="M1691.17 9V60" stroke="#FA7128" stroke-width="5" stroke-linecap="round"/>
<path d="M2005.67 208.167L1980.17 164" stroke="#FA7128" stroke-width="5" stroke-linecap="round"/>
<path d="M2005.67 120L1980.17 164.167" stroke="#FA7128" stroke-width="5" stroke-linecap="round"/>
<path d="M1929.17 164H1980.17" stroke="#FA7128" stroke-width="5" stroke-linecap="round"/>
<path d="M2143.67 325.167L2118.17 281" stroke="#FA7128" stroke-width="5" stroke-linecap="round"/>
<path d="M2143.67 237L2118.17 281.167" stroke="#FA7128" stroke-width="5" stroke-linecap="round"/>
<path d="M2067.17 281H2118.17" stroke="#FA7128" stroke-width="5" stroke-linecap="round"/>
<path d="M2061 436.5L2105.17 411" stroke="#FA7128" stroke-width="5" stroke-linecap="round"/>
<path d="M2149.17 436.5L2105 411" stroke="#FA7128" stroke-width="5" stroke-linecap="round"/>
<path d="M2105.17 360V411" stroke="#FA7128" stroke-width="5" stroke-linecap="round"/>
<path d="M2149.33 476.5L2105.17 502" stroke="#FA7128" stroke-width="5" stroke-linecap="round"/>
<path d="M2061.17 476.5L2105.33 502" stroke="#FA7128" stroke-width="5" stroke-linecap="round"/>
<path d="M2105.17 553V502" stroke="#FA7128" stroke-width="5" stroke-linecap="round"/>
<path d="M2061 787.5L2105.17 762" stroke="#FA7128" stroke-width="5" stroke-linecap="round"/>
<path d="M2149.17 787.5L2105 762" stroke="#FA7128" stroke-width="5" stroke-linecap="round"/>
<path d="M2105.17 711V762" stroke="#FA7128" stroke-width="5" stroke-linecap="round"/>
<path d="M1315.67 192.167L1290.17 148" stroke="#FA7128" stroke-width="5" stroke-linecap="round"/>
<path d="M1315.67 104L1290.17 148.167" stroke="#FA7128" stroke-width="5" stroke-linecap="round"/>
<path d="M1239.17 148H1290.17" stroke="#FA7128" stroke-width="5" stroke-linecap="round"/>
<path d="M1101 85.5L1145.17 60" stroke="#FA7128" stroke-width="5" stroke-linecap="round"/>
<path d="M1189.17 85.5L1145 60" stroke="#FA7128" stroke-width="5" stroke-linecap="round"/>
<path d="M1145.17 9V60" stroke="#FA7128" stroke-width="5" stroke-linecap="round"/>
<path d="M1509 430.5L1553.17 405" stroke="#FA7128" stroke-width="5" stroke-linecap="round"/>
<path d="M1597.17 430.5L1553 405" stroke="#FA7128" stroke-width="5" stroke-linecap="round"/>
<path d="M1553.17 354V405" stroke="#FA7128" stroke-width="5" stroke-linecap="round"/>
<path d="M1651 551.5L1695.17 526" stroke="#FA7128" stroke-width="5" stroke-linecap="round"/>
<path d="M1739.17 551.5L1695 526" stroke="#FA7128" stroke-width="5" stroke-linecap="round"/>
<path d="M1695.17 475V526" stroke="#FA7128" stroke-width="5" stroke-linecap="round"/>
<path d="M1591.67 544.167L1566.17 500" stroke="#FA7128" stroke-width="5" stroke-linecap="round"/>
<path d="M1591.67 456L1566.17 500.167" stroke="#FA7128" stroke-width="5" stroke-linecap="round"/>
<path d="M1515.17 500H1566.17" stroke="#FA7128" stroke-width="5" stroke-linecap="round"/>
<path d="M1923 761.5L1967.17 736" stroke="#FA7128" stroke-width="5" stroke-linecap="round"/>
<path d="M2011.17 761.5L1967 736" stroke="#FA7128" stroke-width="5" stroke-linecap="round"/>
<path d="M1967.17 685V736" stroke="#FA7128" stroke-width="5" stroke-linecap="round"/>
<path d="M2143.67 911.167L2118.17 867" stroke="#FA7128" stroke-width="5" stroke-linecap="round"/>
<path d="M2143.67 823L2118.17 867.167" stroke="#FA7128" stroke-width="5" stroke-linecap="round"/>
<path d="M2067.17 867H2118.17" stroke="#FA7128" stroke-width="5" stroke-linecap="round"/>
<path d="M2061 670.5L2105.17 645" stroke="#FA7128" stroke-width="5" stroke-linecap="round"/>
<path d="M2149.17 670.5L2105 645" stroke="#FA7128" stroke-width="5" stroke-linecap="round"/>
<path d="M2105.17 594V645" stroke="#FA7128" stroke-width="5" stroke-linecap="round"/>
<path d="M2060.83 1022.5L2105 997" stroke="#FA7128" stroke-width="5" stroke-linecap="round"/>
<path d="M2149 1022.5L2104.83 997" stroke="#FA7128" stroke-width="5" stroke-linecap="round"/>
<path d="M2105 946V997" stroke="#FA7128" stroke-width="5" stroke-linecap="round"/>
<path d="M2143.5 1145.17L2118 1101" stroke="#FA7128" stroke-width="5" stroke-linecap="round"/>
<path d="M2143.5 1057L2118 1101.17" stroke="#FA7128" stroke-width="5" stroke-linecap="round"/>
<path d="M2067 1101H2118" stroke="#FA7128" stroke-width="5" stroke-linecap="round"/>
<path d="M2060.83 1256.5L2105 1231" stroke="#FA7128" stroke-width="5" stroke-linecap="round"/>
<path d="M2149 1256.5L2104.83 1231" stroke="#FA7128" stroke-width="5" stroke-linecap="round"/>
<path d="M2105 1180V1231" stroke="#FA7128" stroke-width="5" stroke-linecap="round"/>
<path d="M2149.17 1296.5L2105 1322" stroke="#FA7128" stroke-width="5" stroke-linecap="round"/>
<path d="M2061 1296.5L2105.17 1322" stroke="#FA7128" stroke-width="5" stroke-linecap="round"/>
<path d="M2105 1373V1322" stroke="#FA7128" stroke-width="5" stroke-linecap="round"/>
<path d="M2060.83 1607.5L2105 1582" stroke="#FA7128" stroke-width="5" stroke-linecap="round"/>
<path d="M2149 1607.5L2104.83 1582" stroke="#FA7128" stroke-width="5" stroke-linecap="round"/>
<path d="M2105 1531V1582" stroke="#FA7128" stroke-width="5" stroke-linecap="round"/>
<path d="M2143.5 1731.17L2118 1687" stroke="#FA7128" stroke-width="5" stroke-linecap="round"/>
<path d="M2143.5 1643L2118 1687.17" stroke="#FA7128" stroke-width="5" stroke-linecap="round"/>
<path d="M2067 1687H2118" stroke="#FA7128" stroke-width="5" stroke-linecap="round"/>
<path d="M2143.5 1731.17L2118 1687" stroke="#FA7128" stroke-width="5" stroke-linecap="round"/>
<path d="M2143.5 1643L2118 1687.17" stroke="#FA7128" stroke-width="5" stroke-linecap="round"/>
<path d="M2067 1687H2118" stroke="#FA7128" stroke-width="5" stroke-linecap="round"/>
<path d="M2143.67 1496.33L2118.17 1452.17" stroke="#FA7128" stroke-width="5" stroke-linecap="round"/>
<path d="M2143.67 1408.17L2118.17 1452.33" stroke="#FA7128" stroke-width="5" stroke-linecap="round"/>
<path d="M2067.17 1452.17H2118.17" stroke="#FA7128" stroke-width="5" stroke-linecap="round"/>
<path d="M1729.67 208.167L1704.17 164" stroke="#FA7128" stroke-width="5" stroke-linecap="round"/>
<path d="M1729.67 120L1704.17 164.167" stroke="#FA7128" stroke-width="5" stroke-linecap="round"/>
<path d="M1653.17 164H1704.17" stroke="#FA7128" stroke-width="5" stroke-linecap="round"/>
<path d="M1867.67 325.167L1842.17 281" stroke="#FA7128" stroke-width="5" stroke-linecap="round"/>
<path d="M1867.67 237L1842.17 281.167" stroke="#FA7128" stroke-width="5" stroke-linecap="round"/>
<path d="M1791.17 281H1842.17" stroke="#FA7128" stroke-width="5" stroke-linecap="round"/>
<path d="M2005.67 442.167L1980.17 398" stroke="#FA7128" stroke-width="5" stroke-linecap="round"/>
<path d="M2005.67 354L1980.17 398.167" stroke="#FA7128" stroke-width="5" stroke-linecap="round"/>
<path d="M1929.17 398H1980.17" stroke="#FA7128" stroke-width="5" stroke-linecap="round"/>
<path d="M1591.67 91.1673L1566.17 47" stroke="#FA7128" stroke-width="5" stroke-linecap="round"/>
<path d="M1591.67 3L1566.17 47.1673" stroke="#FA7128" stroke-width="5" stroke-linecap="round"/>
<path d="M1515.17 47H1566.17" stroke="#FA7128" stroke-width="5" stroke-linecap="round"/>
<path d="M1315.67 91.1673L1290.17 47" stroke="#FA7128" stroke-width="5" stroke-linecap="round"/>
<path d="M1315.67 3L1290.17 47.1673" stroke="#FA7128" stroke-width="5" stroke-linecap="round"/>
<path d="M1239.17 47H1290.17" stroke="#FA7128" stroke-width="5" stroke-linecap="round"/>
<path d="M2005.67 676.167L1980.17 632" stroke="#FA7128" stroke-width="5" stroke-linecap="round"/>
<path d="M2005.67 588L1980.17 632.167" stroke="#FA7128" stroke-width="5" stroke-linecap="round"/>
<path d="M1929.17 632H1980.17" stroke="#FA7128" stroke-width="5" stroke-linecap="round"/>
<path d="M1923 553.5L1967.17 528" stroke="#FA7128" stroke-width="5" stroke-linecap="round"/>
<path d="M2011.17 553.5L1967 528" stroke="#FA7128" stroke-width="5" stroke-linecap="round"/>
<path d="M1967.17 477V528" stroke="#FA7128" stroke-width="5" stroke-linecap="round"/>
<path d="M1785 553.5L1829.17 528" stroke="#FA7128" stroke-width="5" stroke-linecap="round"/>
<path d="M1873.17 553.5L1829 528" stroke="#FA7128" stroke-width="5" stroke-linecap="round"/>
<path d="M1829.17 477V528" stroke="#FA7128" stroke-width="5" stroke-linecap="round"/>
<path d="M1735.33 359.5L1691.17 385" stroke="#FA7128" stroke-width="5" stroke-linecap="round"/>
<path d="M1647.17 359.5L1691.33 385" stroke="#FA7128" stroke-width="5" stroke-linecap="round"/>
<path d="M1691.17 436V385" stroke="#FA7128" stroke-width="5" stroke-linecap="round"/>
<path d="M1785 436.5L1829.17 411" stroke="#FA7128" stroke-width="5" stroke-linecap="round"/>
<path d="M1873.17 436.5L1829 411" stroke="#FA7128" stroke-width="5" stroke-linecap="round"/>
<path d="M1829.17 360V411" stroke="#FA7128" stroke-width="5" stroke-linecap="round"/>
<path d="M1591.67 313.167L1566.17 269" stroke="#FA7128" stroke-width="5" stroke-linecap="round"/>
<path d="M1591.67 225L1566.17 269.167" stroke="#FA7128" stroke-width="5" stroke-linecap="round"/>
<path d="M1515.17 269H1566.17" stroke="#FA7128" stroke-width="5" stroke-linecap="round"/>
<path d="M1371 202.5L1415.17 177" stroke="#FA7128" stroke-width="5" stroke-linecap="round"/>
<path d="M1459.17 202.5L1415 177" stroke="#FA7128" stroke-width="5" stroke-linecap="round"/>
<path d="M1415.17 126V177" stroke="#FA7128" stroke-width="5" stroke-linecap="round"/>
<path d="M1647 319.5L1691.17 294" stroke="#FA7128" stroke-width="5" stroke-linecap="round"/>
<path d="M1735.17 319.5L1691 294" stroke="#FA7128" stroke-width="5" stroke-linecap="round"/>
<path d="M1691.17 243V294" stroke="#FA7128" stroke-width="5" stroke-linecap="round"/>
<path d="M1509 202.5L1553.17 177" stroke="#FA7128" stroke-width="5" stroke-linecap="round"/>
<path d="M1597.17 202.5L1553 177" stroke="#FA7128" stroke-width="5" stroke-linecap="round"/>
<path d="M1553.17 126V177" stroke="#FA7128" stroke-width="5" stroke-linecap="round"/>
<path d="M1371 85.5L1415.17 60" stroke="#FA7128" stroke-width="5" stroke-linecap="round"/>
<path d="M1459.17 85.5L1415 60" stroke="#FA7128" stroke-width="5" stroke-linecap="round"/>
<path d="M1415.17 9V60" stroke="#FA7128" stroke-width="5" stroke-linecap="round"/>
<path d="M1923 319.5L1967.17 294" stroke="#FA7128" stroke-width="5" stroke-linecap="round"/>
<path d="M2011.17 319.5L1967 294" stroke="#FA7128" stroke-width="5" stroke-linecap="round"/>
<path d="M1967.17 243V294" stroke="#FA7128" stroke-width="5" stroke-linecap="round"/>
<path d="M1785 202.5L1829.17 177" stroke="#FA7128" stroke-width="5" stroke-linecap="round"/>
<path d="M1873.17 202.5L1829 177" stroke="#FA7128" stroke-width="5" stroke-linecap="round"/>
<path d="M1829.17 126V177" stroke="#FA7128" stroke-width="5" stroke-linecap="round"/>
<path d="M2005.67 907.167L1980.17 863" stroke="#FA7128" stroke-width="5" stroke-linecap="round"/>
<path d="M2005.67 819L1980.17 863.167" stroke="#FA7128" stroke-width="5" stroke-linecap="round"/>
<path d="M1929.17 863H1980.17" stroke="#FA7128" stroke-width="5" stroke-linecap="round"/>
<path d="M1315.67 891.167L1290.17 847" stroke="#FA7128" stroke-width="5" stroke-linecap="round"/>
<path d="M1315.67 803L1290.17 847.167" stroke="#FA7128" stroke-width="5" stroke-linecap="round"/>
<path d="M1239.17 847H1290.17" stroke="#FA7128" stroke-width="5" stroke-linecap="round"/>
<path d="M1509 1129.5L1553.17 1104" stroke="#FA7128" stroke-width="5" stroke-linecap="round"/>
<path d="M1597.17 1129.5L1553 1104" stroke="#FA7128" stroke-width="5" stroke-linecap="round"/>
<path d="M1553.17 1053V1104" stroke="#FA7128" stroke-width="5" stroke-linecap="round"/>
<path d="M1647 1252.5L1691.17 1227" stroke="#FA7128" stroke-width="5" stroke-linecap="round"/>
<path d="M1735.17 1252.5L1691 1227" stroke="#FA7128" stroke-width="5" stroke-linecap="round"/>
<path d="M1691.17 1176V1227" stroke="#FA7128" stroke-width="5" stroke-linecap="round"/>
<path d="M1923 1460.5L1967.17 1435" stroke="#FA7128" stroke-width="5" stroke-linecap="round"/>
<path d="M2011.17 1460.5L1967 1435" stroke="#FA7128" stroke-width="5" stroke-linecap="round"/>
<path d="M1967.17 1384V1435" stroke="#FA7128" stroke-width="5" stroke-linecap="round"/>
<path d="M1729.67 907.167L1704.17 863" stroke="#FA7128" stroke-width="5" stroke-linecap="round"/>
<path d="M1729.67 819L1704.17 863.167" stroke="#FA7128" stroke-width="5" stroke-linecap="round"/>
<path d="M1653.17 863H1704.17" stroke="#FA7128" stroke-width="5" stroke-linecap="round"/>
<path d="M1867.67 1024.17L1842.17 980" stroke="#FA7128" stroke-width="5" stroke-linecap="round"/>
<path d="M1867.67 936L1842.17 980.167" stroke="#FA7128" stroke-width="5" stroke-linecap="round"/>
<path d="M1791.17 980H1842.17" stroke="#FA7128" stroke-width="5" stroke-linecap="round"/>
<path d="M2005.67 1141.17L1980.17 1097" stroke="#FA7128" stroke-width="5" stroke-linecap="round"/>
<path d="M2005.67 1053L1980.17 1097.17" stroke="#FA7128" stroke-width="5" stroke-linecap="round"/>
<path d="M1929.17 1097H1980.17" stroke="#FA7128" stroke-width="5" stroke-linecap="round"/>
<path d="M2005.67 1375.17L1980.17 1331" stroke="#FA7128" stroke-width="5" stroke-linecap="round"/>
<path d="M2005.67 1287L1980.17 1331.17" stroke="#FA7128" stroke-width="5" stroke-linecap="round"/>
<path d="M1929.17 1331H1980.17" stroke="#FA7128" stroke-width="5" stroke-linecap="round"/>
<path d="M1923 1252.5L1967.17 1227" stroke="#FA7128" stroke-width="5" stroke-linecap="round"/>
<path d="M2011.17 1252.5L1967 1227" stroke="#FA7128" stroke-width="5" stroke-linecap="round"/>
<path d="M1967.17 1176V1227" stroke="#FA7128" stroke-width="5" stroke-linecap="round"/>
<path d="M1873.33 1175.5L1829.17 1201" stroke="#FA7128" stroke-width="5" stroke-linecap="round"/>
<path d="M1785.17 1175.5L1829.33 1201" stroke="#FA7128" stroke-width="5" stroke-linecap="round"/>
<path d="M1829.17 1252V1201" stroke="#FA7128" stroke-width="5" stroke-linecap="round"/>
<path d="M1735.33 1058.5L1691.17 1084" stroke="#FA7128" stroke-width="5" stroke-linecap="round"/>
<path d="M1647.17 1058.5L1691.33 1084" stroke="#FA7128" stroke-width="5" stroke-linecap="round"/>
<path d="M1691.17 1135V1084" stroke="#FA7128" stroke-width="5" stroke-linecap="round"/>
<path d="M1785 1135.5L1829.17 1110" stroke="#FA7128" stroke-width="5" stroke-linecap="round"/>
<path d="M1873.17 1135.5L1829 1110" stroke="#FA7128" stroke-width="5" stroke-linecap="round"/>
<path d="M1829.17 1059V1110" stroke="#FA7128" stroke-width="5" stroke-linecap="round"/>
<path d="M1591.67 1012.17L1566.17 968" stroke="#FA7128" stroke-width="5" stroke-linecap="round"/>
<path d="M1591.67 924L1566.17 968.167" stroke="#FA7128" stroke-width="5" stroke-linecap="round"/>
<path d="M1515.17 968H1566.17" stroke="#FA7128" stroke-width="5" stroke-linecap="round"/>
<path d="M1371 901.5L1415.17 876" stroke="#FA7128" stroke-width="5" stroke-linecap="round"/>
<path d="M1459.17 901.5L1415 876" stroke="#FA7128" stroke-width="5" stroke-linecap="round"/>
<path d="M1415.17 825V876" stroke="#FA7128" stroke-width="5" stroke-linecap="round"/>
<path d="M1647 1018.5L1691.17 993" stroke="#FA7128" stroke-width="5" stroke-linecap="round"/>
<path d="M1735.17 1018.5L1691 993" stroke="#FA7128" stroke-width="5" stroke-linecap="round"/>
<path d="M1691.17 942V993" stroke="#FA7128" stroke-width="5" stroke-linecap="round"/>
<path d="M1509 901.5L1553.17 876" stroke="#FA7128" stroke-width="5" stroke-linecap="round"/>
<path d="M1597.17 901.5L1553 876" stroke="#FA7128" stroke-width="5" stroke-linecap="round"/>
<path d="M1553.17 825V876" stroke="#FA7128" stroke-width="5" stroke-linecap="round"/>
<path d="M1923 1018.5L1967.17 993" stroke="#FA7128" stroke-width="5" stroke-linecap="round"/>
<path d="M2011.17 1018.5L1967 993" stroke="#FA7128" stroke-width="5" stroke-linecap="round"/>
<path d="M1967.17 942V993" stroke="#FA7128" stroke-width="5" stroke-linecap="round"/>
<path d="M1785 901.5L1829.17 876" stroke="#FA7128" stroke-width="5" stroke-linecap="round"/>
<path d="M1873.17 901.5L1829 876" stroke="#FA7128" stroke-width="5" stroke-linecap="round"/>
<path d="M1829.17 825V876" stroke="#FA7128" stroke-width="5" stroke-linecap="round"/>
<path d="M1183.67 197.167L1158.17 153" stroke="#FA7128" stroke-width="5" stroke-linecap="round"/>
<path d="M1183.67 109L1158.17 153.167" stroke="#FA7128" stroke-width="5" stroke-linecap="round"/>
<path d="M1107.17 153H1158.17" stroke="#FA7128" stroke-width="5" stroke-linecap="round"/>
<path d="M1100.83 308.5L1145 283" stroke="#FA7128" stroke-width="5" stroke-linecap="round"/>
<path d="M1189 308.5L1144.83 283" stroke="#FA7128" stroke-width="5" stroke-linecap="round"/>
<path d="M1145 232V283" stroke="#FA7128" stroke-width="5" stroke-linecap="round"/>
<path d="M1183.5 431.167L1158 387" stroke="#FA7128" stroke-width="5" stroke-linecap="round"/>
<path d="M1183.5 343L1158 387.167" stroke="#FA7128" stroke-width="5" stroke-linecap="round"/>
<path d="M1107 387H1158" stroke="#FA7128" stroke-width="5" stroke-linecap="round"/>
<path d="M1100.83 542.5L1145 517" stroke="#FA7128" stroke-width="5" stroke-linecap="round"/>
<path d="M1189 542.5L1144.83 517" stroke="#FA7128" stroke-width="5" stroke-linecap="round"/>
<path d="M1145 466V517" stroke="#FA7128" stroke-width="5" stroke-linecap="round"/>
<path d="M1189.17 582.5L1145 608" stroke="#FA7128" stroke-width="5" stroke-linecap="round"/>
<path d="M1101 582.5L1145.17 608" stroke="#FA7128" stroke-width="5" stroke-linecap="round"/>
<path d="M1145 659V608" stroke="#FA7128" stroke-width="5" stroke-linecap="round"/>
<path d="M1183.67 782.335L1158.17 738.167" stroke="#FA7128" stroke-width="5" stroke-linecap="round"/>
<path d="M1183.67 694.167L1158.17 738.335" stroke="#FA7128" stroke-width="5" stroke-linecap="round"/>
<path d="M1107.17 738.167H1158.17" stroke="#FA7128" stroke-width="5" stroke-linecap="round"/>
<path d="M1045.67 193.167L1020.17 149" stroke="#FA7128" stroke-width="5" stroke-linecap="round"/>
<path d="M1045.67 105L1020.17 149.167" stroke="#FA7128" stroke-width="5" stroke-linecap="round"/>
<path d="M969.167 149H1020.17" stroke="#FA7128" stroke-width="5" stroke-linecap="round"/>
<path d="M355.167 190.167L329.667 146" stroke="#FA7128" stroke-width="5" stroke-linecap="round"/>
<path d="M355.167 102L329.667 146.167" stroke="#FA7128" stroke-width="5" stroke-linecap="round"/>
<path d="M278.667 146H329.667" stroke="#FA7128" stroke-width="5" stroke-linecap="round"/>
<path d="M549 415.5L593.167 390" stroke="#FA7128" stroke-width="5" stroke-linecap="round"/>
<path d="M637.167 415.5L593 390" stroke="#FA7128" stroke-width="5" stroke-linecap="round"/>
<path d="M593.167 339V390" stroke="#FA7128" stroke-width="5" stroke-linecap="round"/>
<path d="M687 525.5L731.167 500" stroke="#FA7128" stroke-width="5" stroke-linecap="round"/>
<path d="M775.167 525.5L731 500" stroke="#FA7128" stroke-width="5" stroke-linecap="round"/>
<path d="M731.167 449V500" stroke="#FA7128" stroke-width="5" stroke-linecap="round"/>
<path d="M963 746.5L1007.17 721" stroke="#FA7128" stroke-width="5" stroke-linecap="round"/>
<path d="M1051.17 746.5L1007 721" stroke="#FA7128" stroke-width="5" stroke-linecap="round"/>
<path d="M1007.17 670V721" stroke="#FA7128" stroke-width="5" stroke-linecap="round"/>
<path d="M769.667 193.167L744.167 149" stroke="#FA7128" stroke-width="5" stroke-linecap="round"/>
<path d="M769.667 105L744.167 149.167" stroke="#FA7128" stroke-width="5" stroke-linecap="round"/>
<path d="M693.167 149H744.167" stroke="#FA7128" stroke-width="5" stroke-linecap="round"/>
<path d="M907.667 310.167L882.167 266" stroke="#FA7128" stroke-width="5" stroke-linecap="round"/>
<path d="M907.667 222L882.167 266.167" stroke="#FA7128" stroke-width="5" stroke-linecap="round"/>
<path d="M831.167 266H882.167" stroke="#FA7128" stroke-width="5" stroke-linecap="round"/>
<path d="M1045.67 427.167L1020.17 383" stroke="#FA7128" stroke-width="5" stroke-linecap="round"/>
<path d="M1045.67 339L1020.17 383.167" stroke="#FA7128" stroke-width="5" stroke-linecap="round"/>
<path d="M969.167 383H1020.17" stroke="#FA7128" stroke-width="5" stroke-linecap="round"/>
<path d="M1045.67 661.167L1020.17 617" stroke="#FA7128" stroke-width="5" stroke-linecap="round"/>
<path d="M1045.67 573L1020.17 617.167" stroke="#FA7128" stroke-width="5" stroke-linecap="round"/>
<path d="M969.167 617H1020.17" stroke="#FA7128" stroke-width="5" stroke-linecap="round"/>
<path d="M1936 1694.5L1980.17 1669" stroke="#FA7128" stroke-width="5" stroke-linecap="round"/>
<path d="M2024.17 1694.5L1980 1669" stroke="#FA7128" stroke-width="5" stroke-linecap="round"/>
<path d="M1980.17 1618V1669" stroke="#FA7128" stroke-width="5" stroke-linecap="round"/>
<path d="M2018.67 1609.17L1993.17 1565" stroke="#FA7128" stroke-width="5" stroke-linecap="round"/>
<path d="M2018.67 1521L1993.17 1565.17" stroke="#FA7128" stroke-width="5" stroke-linecap="round"/>
<path d="M1942.17 1565H1993.17" stroke="#FA7128" stroke-width="5" stroke-linecap="round"/>
<path d="M963 538.5L1007.17 513" stroke="#FA7128" stroke-width="5" stroke-linecap="round"/>
<path d="M1051.17 538.5L1007 513" stroke="#FA7128" stroke-width="5" stroke-linecap="round"/>
<path d="M1007.17 462V513" stroke="#FA7128" stroke-width="5" stroke-linecap="round"/>
<path d="M825 538.5L869.167 513" stroke="#FA7128" stroke-width="5" stroke-linecap="round"/>
<path d="M913.167 538.5L869 513" stroke="#FA7128" stroke-width="5" stroke-linecap="round"/>
<path d="M869.167 462V513" stroke="#FA7128" stroke-width="5" stroke-linecap="round"/>
<path d="M775.334 344.5L731.167 370" stroke="#FA7128" stroke-width="5" stroke-linecap="round"/>
<path d="M687.167 344.5L731.335 370" stroke="#FA7128" stroke-width="5" stroke-linecap="round"/>
<path d="M731.167 421V370" stroke="#FA7128" stroke-width="5" stroke-linecap="round"/>
<path d="M825 421.5L869.167 396" stroke="#FA7128" stroke-width="5" stroke-linecap="round"/>
<path d="M913.167 421.5L869 396" stroke="#FA7128" stroke-width="5" stroke-linecap="round"/>
<path d="M869.167 345V396" stroke="#FA7128" stroke-width="5" stroke-linecap="round"/>
<path d="M631.667 298.167L606.167 254" stroke="#FA7128" stroke-width="5" stroke-linecap="round"/>
<path d="M631.667 210L606.167 254.167" stroke="#FA7128" stroke-width="5" stroke-linecap="round"/>
<path d="M555.167 254H606.167" stroke="#FA7128" stroke-width="5" stroke-linecap="round"/>
<path d="M411 187.5L455.167 162" stroke="#FA7128" stroke-width="5" stroke-linecap="round"/>
<path d="M499.167 187.5L455 162" stroke="#FA7128" stroke-width="5" stroke-linecap="round"/>
<path d="M455.167 111V162" stroke="#FA7128" stroke-width="5" stroke-linecap="round"/>
<path d="M687 304.5L731.167 279" stroke="#FA7128" stroke-width="5" stroke-linecap="round"/>
<path d="M775.167 304.5L731 279" stroke="#FA7128" stroke-width="5" stroke-linecap="round"/>
<path d="M731.167 228V279" stroke="#FA7128" stroke-width="5" stroke-linecap="round"/>
<path d="M549 187.5L593.167 162" stroke="#FA7128" stroke-width="5" stroke-linecap="round"/>
<path d="M637.167 187.5L593 162" stroke="#FA7128" stroke-width="5" stroke-linecap="round"/>
<path d="M593.167 111V162" stroke="#FA7128" stroke-width="5" stroke-linecap="round"/>
<path d="M963 304.5L1007.17 279" stroke="#FA7128" stroke-width="5" stroke-linecap="round"/>
<path d="M1051.17 304.5L1007 279" stroke="#FA7128" stroke-width="5" stroke-linecap="round"/>
<path d="M1007.17 228V279" stroke="#FA7128" stroke-width="5" stroke-linecap="round"/>
<path d="M825 187.5L869.167 162" stroke="#FA7128" stroke-width="5" stroke-linecap="round"/>
<path d="M913.167 187.5L869 162" stroke="#FA7128" stroke-width="5" stroke-linecap="round"/>
<path d="M869.167 111V162" stroke="#FA7128" stroke-width="5" stroke-linecap="round"/>
<path d="M2143.67 911.167L2118.17 867" stroke="#FA7128" stroke-width="5" stroke-linecap="round"/>
<path d="M2143.67 823L2118.17 867.167" stroke="#FA7128" stroke-width="5" stroke-linecap="round"/>
<path d="M2067.17 867H2118.17" stroke="#FA7128" stroke-width="5" stroke-linecap="round"/>
<path d="M2060.83 1022.5L2105 997" stroke="#FA7128" stroke-width="5" stroke-linecap="round"/>
<path d="M2149 1022.5L2104.83 997" stroke="#FA7128" stroke-width="5" stroke-linecap="round"/>
<path d="M2105 946V997" stroke="#FA7128" stroke-width="5" stroke-linecap="round"/>
<path d="M2143.5 1145.17L2118 1101" stroke="#FA7128" stroke-width="5" stroke-linecap="round"/>
<path d="M2143.5 1057L2118 1101.17" stroke="#FA7128" stroke-width="5" stroke-linecap="round"/>
<path d="M2067 1101H2118" stroke="#FA7128" stroke-width="5" stroke-linecap="round"/>
<path d="M2060.83 1256.5L2105 1231" stroke="#FA7128" stroke-width="5" stroke-linecap="round"/>
<path d="M2149 1256.5L2104.83 1231" stroke="#FA7128" stroke-width="5" stroke-linecap="round"/>
<path d="M2105 1180V1231" stroke="#FA7128" stroke-width="5" stroke-linecap="round"/>
<path d="M2149.17 1296.5L2105 1322" stroke="#FA7128" stroke-width="5" stroke-linecap="round"/>
<path d="M2061 1296.5L2105.17 1322" stroke="#FA7128" stroke-width="5" stroke-linecap="round"/>
<path d="M2105 1373V1322" stroke="#FA7128" stroke-width="5" stroke-linecap="round"/>
<path d="M2143.67 1496.33L2118.17 1452.17" stroke="#FA7128" stroke-width="5" stroke-linecap="round"/>
<path d="M2143.67 1408.17L2118.17 1452.33" stroke="#FA7128" stroke-width="5" stroke-linecap="round"/>
<path d="M2067.17 1452.17H2118.17" stroke="#FA7128" stroke-width="5" stroke-linecap="round"/>
<path d="M2005.67 907.167L1980.17 863" stroke="#FA7128" stroke-width="5" stroke-linecap="round"/>
<path d="M2005.67 819L1980.17 863.167" stroke="#FA7128" stroke-width="5" stroke-linecap="round"/>
<path d="M1929.17 863H1980.17" stroke="#FA7128" stroke-width="5" stroke-linecap="round"/>
<path d="M1315.67 891.167L1290.17 847" stroke="#FA7128" stroke-width="5" stroke-linecap="round"/>
<path d="M1315.67 803L1290.17 847.167" stroke="#FA7128" stroke-width="5" stroke-linecap="round"/>
<path d="M1239.17 847H1290.17" stroke="#FA7128" stroke-width="5" stroke-linecap="round"/>
<path d="M1509 1129.5L1553.17 1104" stroke="#FA7128" stroke-width="5" stroke-linecap="round"/>
<path d="M1597.17 1129.5L1553 1104" stroke="#FA7128" stroke-width="5" stroke-linecap="round"/>
<path d="M1553.17 1053V1104" stroke="#FA7128" stroke-width="5" stroke-linecap="round"/>
<path d="M1647 1252.5L1691.17 1227" stroke="#FA7128" stroke-width="5" stroke-linecap="round"/>
<path d="M1735.17 1252.5L1691 1227" stroke="#FA7128" stroke-width="5" stroke-linecap="round"/>
<path d="M1691.17 1176V1227" stroke="#FA7128" stroke-width="5" stroke-linecap="round"/>
<path d="M2067 1842.5L2111.17 1817" stroke="#FA7128" stroke-width="5" stroke-linecap="round"/>
<path d="M2155.17 1842.5L2111 1817" stroke="#FA7128" stroke-width="5" stroke-linecap="round"/>
<path d="M2111.17 1766V1817" stroke="#FA7128" stroke-width="5" stroke-linecap="round"/>
<path d="M2067 1842.5L2111.17 1817" stroke="#FA7128" stroke-width="5" stroke-linecap="round"/>
<path d="M2155.17 1842.5L2111 1817" stroke="#FA7128" stroke-width="5" stroke-linecap="round"/>
<path d="M2111.17 1766V1817" stroke="#FA7128" stroke-width="5" stroke-linecap="round"/>
<path d="M1923 1460.5L1967.17 1435" stroke="#FA7128" stroke-width="5" stroke-linecap="round"/>
<path d="M2011.17 1460.5L1967 1435" stroke="#FA7128" stroke-width="5" stroke-linecap="round"/>
<path d="M1967.17 1384V1435" stroke="#FA7128" stroke-width="5" stroke-linecap="round"/>
<path d="M1729.67 907.167L1704.17 863" stroke="#FA7128" stroke-width="5" stroke-linecap="round"/>
<path d="M1729.67 819L1704.17 863.167" stroke="#FA7128" stroke-width="5" stroke-linecap="round"/>
<path d="M1653.17 863H1704.17" stroke="#FA7128" stroke-width="5" stroke-linecap="round"/>
<path d="M1867.67 1024.17L1842.17 980" stroke="#FA7128" stroke-width="5" stroke-linecap="round"/>
<path d="M1867.67 936L1842.17 980.167" stroke="#FA7128" stroke-width="5" stroke-linecap="round"/>
<path d="M1791.17 980H1842.17" stroke="#FA7128" stroke-width="5" stroke-linecap="round"/>
<path d="M2005.67 1141.17L1980.17 1097" stroke="#FA7128" stroke-width="5" stroke-linecap="round"/>
<path d="M2005.67 1053L1980.17 1097.17" stroke="#FA7128" stroke-width="5" stroke-linecap="round"/>
<path d="M1929.17 1097H1980.17" stroke="#FA7128" stroke-width="5" stroke-linecap="round"/>
<path d="M2005.67 1375.17L1980.17 1331" stroke="#FA7128" stroke-width="5" stroke-linecap="round"/>
<path d="M2005.67 1287L1980.17 1331.17" stroke="#FA7128" stroke-width="5" stroke-linecap="round"/>
<path d="M1929.17 1331H1980.17" stroke="#FA7128" stroke-width="5" stroke-linecap="round"/>
<path d="M1923 1252.5L1967.17 1227" stroke="#FA7128" stroke-width="5" stroke-linecap="round"/>
<path d="M2011.17 1252.5L1967 1227" stroke="#FA7128" stroke-width="5" stroke-linecap="round"/>
<path d="M1967.17 1176V1227" stroke="#FA7128" stroke-width="5" stroke-linecap="round"/>
<path d="M1873.33 1175.5L1829.17 1201" stroke="#FA7128" stroke-width="5" stroke-linecap="round"/>
<path d="M1785.17 1175.5L1829.33 1201" stroke="#FA7128" stroke-width="5" stroke-linecap="round"/>
<path d="M1829.17 1252V1201" stroke="#FA7128" stroke-width="5" stroke-linecap="round"/>
<path d="M1735.33 1058.5L1691.17 1084" stroke="#FA7128" stroke-width="5" stroke-linecap="round"/>
<path d="M1647.17 1058.5L1691.33 1084" stroke="#FA7128" stroke-width="5" stroke-linecap="round"/>
<path d="M1691.17 1135V1084" stroke="#FA7128" stroke-width="5" stroke-linecap="round"/>
<path d="M1785 1135.5L1829.17 1110" stroke="#FA7128" stroke-width="5" stroke-linecap="round"/>
<path d="M1873.17 1135.5L1829 1110" stroke="#FA7128" stroke-width="5" stroke-linecap="round"/>
<path d="M1829.17 1059V1110" stroke="#FA7128" stroke-width="5" stroke-linecap="round"/>
<path d="M1591.67 1012.17L1566.17 968" stroke="#FA7128" stroke-width="5" stroke-linecap="round"/>
<path d="M1591.67 924L1566.17 968.167" stroke="#FA7128" stroke-width="5" stroke-linecap="round"/>
<path d="M1515.17 968H1566.17" stroke="#FA7128" stroke-width="5" stroke-linecap="round"/>
<path d="M1453.67 1135.17L1428.17 1091" stroke="#FA7128" stroke-width="5" stroke-linecap="round"/>
<path d="M1453.67 1047L1428.17 1091.17" stroke="#FA7128" stroke-width="5" stroke-linecap="round"/>
<path d="M1377.17 1091H1428.17" stroke="#FA7128" stroke-width="5" stroke-linecap="round"/>
<path d="M1376.67 923.833L1402.17 968" stroke="#FA7128" stroke-width="5" stroke-linecap="round"/>
<path d="M1376.67 1012L1402.17 967.833" stroke="#FA7128" stroke-width="5" stroke-linecap="round"/>
<path d="M1453.17 968H1402.17" stroke="#FA7128" stroke-width="5" stroke-linecap="round"/>
<path d="M1453.67 1135.17L1428.17 1091" stroke="#FA7128" stroke-width="5" stroke-linecap="round"/>
<path d="M1453.67 1047L1428.17 1091.17" stroke="#FA7128" stroke-width="5" stroke-linecap="round"/>
<path d="M1377.17 1091H1428.17" stroke="#FA7128" stroke-width="5" stroke-linecap="round"/>
<path d="M1376.67 923.833L1402.17 968" stroke="#FA7128" stroke-width="5" stroke-linecap="round"/>
<path d="M1376.67 1012L1402.17 967.833" stroke="#FA7128" stroke-width="5" stroke-linecap="round"/>
<path d="M1453.17 968H1402.17" stroke="#FA7128" stroke-width="5" stroke-linecap="round"/>
<path d="M1371 901.5L1415.17 876" stroke="#FA7128" stroke-width="5" stroke-linecap="round"/>
<path d="M1459.17 901.5L1415 876" stroke="#FA7128" stroke-width="5" stroke-linecap="round"/>
<path d="M1415.17 825V876" stroke="#FA7128" stroke-width="5" stroke-linecap="round"/>
<path d="M1647 1018.5L1691.17 993" stroke="#FA7128" stroke-width="5" stroke-linecap="round"/>
<path d="M1735.17 1018.5L1691 993" stroke="#FA7128" stroke-width="5" stroke-linecap="round"/>
<path d="M1691.17 942V993" stroke="#FA7128" stroke-width="5" stroke-linecap="round"/>
<path d="M1509 901.5L1553.17 876" stroke="#FA7128" stroke-width="5" stroke-linecap="round"/>
<path d="M1597.17 901.5L1553 876" stroke="#FA7128" stroke-width="5" stroke-linecap="round"/>
<path d="M1553.17 825V876" stroke="#FA7128" stroke-width="5" stroke-linecap="round"/>
<path d="M1923 1018.5L1967.17 993" stroke="#FA7128" stroke-width="5" stroke-linecap="round"/>
<path d="M2011.17 1018.5L1967 993" stroke="#FA7128" stroke-width="5" stroke-linecap="round"/>
<path d="M1967.17 942V993" stroke="#FA7128" stroke-width="5" stroke-linecap="round"/>
<path d="M1785 901.5L1829.17 876" stroke="#FA7128" stroke-width="5" stroke-linecap="round"/>
<path d="M1873.17 901.5L1829 876" stroke="#FA7128" stroke-width="5" stroke-linecap="round"/>
<path d="M1829.17 825V876" stroke="#FA7128" stroke-width="5" stroke-linecap="round"/>
<path d="M2061 85.5L2105.17 60" stroke="#FA7128" stroke-width="5" stroke-linecap="round"/>
<path d="M2149.17 85.5L2105 60" stroke="#FA7128" stroke-width="5" stroke-linecap="round"/>
<path d="M2105.17 9V60" stroke="#FA7128" stroke-width="5" stroke-linecap="round"/>
<path d="M825 85.6673L869.167 60.1673" stroke="#FA7128" stroke-width="5" stroke-linecap="round"/>
<path d="M913.167 85.6673L869 60.1673" stroke="#FA7128" stroke-width="5" stroke-linecap="round"/>
<path d="M869.167 9.1673V60.1673" stroke="#FA7128" stroke-width="5" stroke-linecap="round"/>
<path d="M692.667 3L718.167 47.1673" stroke="#FA7128" stroke-width="5" stroke-linecap="round"/>
<path d="M692.667 91.1673L718.167 47" stroke="#FA7128" stroke-width="5" stroke-linecap="round"/>
<path d="M769.167 47.1673H718.167" stroke="#FA7128" stroke-width="5" stroke-linecap="round"/>
<path d="M1324.67 422.167L1299.17 378" stroke="#FA7128" stroke-width="5" stroke-linecap="round"/>
<path d="M1324.67 334L1299.17 378.167" stroke="#FA7128" stroke-width="5" stroke-linecap="round"/>
<path d="M1248.17 378H1299.17" stroke="#FA7128" stroke-width="5" stroke-linecap="round"/>
<path d="M1462.67 539.167L1437.17 495" stroke="#FA7128" stroke-width="5" stroke-linecap="round"/>
<path d="M1462.67 451L1437.17 495.167" stroke="#FA7128" stroke-width="5" stroke-linecap="round"/>
<path d="M1386.17 495H1437.17" stroke="#FA7128" stroke-width="5" stroke-linecap="round"/>
<path d="M1242 533.5L1286.17 508" stroke="#FA7128" stroke-width="5" stroke-linecap="round"/>
<path d="M1330.17 533.5L1286 508" stroke="#FA7128" stroke-width="5" stroke-linecap="round"/>
<path d="M1286.17 457V508" stroke="#FA7128" stroke-width="5" stroke-linecap="round"/>
<path d="M1380 416.5L1424.17 391" stroke="#FA7128" stroke-width="5" stroke-linecap="round"/>
<path d="M1468.17 416.5L1424 391" stroke="#FA7128" stroke-width="5" stroke-linecap="round"/>
<path d="M1424.17 340V391" stroke="#FA7128" stroke-width="5" stroke-linecap="round"/>
<path d="M1380 314.667L1424.17 289.167" stroke="#FA7128" stroke-width="5" stroke-linecap="round"/>
<path d="M1468.17 314.667L1424 289.167" stroke="#FA7128" stroke-width="5" stroke-linecap="round"/>
<path d="M1424.17 238.167V289.167" stroke="#FA7128" stroke-width="5" stroke-linecap="round"/>
<path d="M1247.67 232L1273.17 276.167" stroke="#FA7128" stroke-width="5" stroke-linecap="round"/>
<path d="M1247.67 320.167L1273.17 276" stroke="#FA7128" stroke-width="5" stroke-linecap="round"/>
<path d="M1324.17 276.167H1273.17" stroke="#FA7128" stroke-width="5" stroke-linecap="round"/>
<path d="M549 85.6673L593.167 60.1673" stroke="#FA7128" stroke-width="5" stroke-linecap="round"/>
<path d="M637.167 85.6673L593 60.1673" stroke="#FA7128" stroke-width="5" stroke-linecap="round"/>
<path d="M593.167 9.1673V60.1673" stroke="#FA7128" stroke-width="5" stroke-linecap="round"/>
<path d="M3 85.6673L47.1673 60.1673" stroke="#FA7128" stroke-width="5" stroke-linecap="round"/>
<path d="M91.1672 85.6673L46.9999 60.1673" stroke="#FA7128" stroke-width="5" stroke-linecap="round"/>
<path d="M47.1672 9.1673V60.1673" stroke="#FA7128" stroke-width="5" stroke-linecap="round"/>
<path d="M493.667 91.3346L468.167 47.1673" stroke="#FA7128" stroke-width="5" stroke-linecap="round"/>
<path d="M493.667 3.1673L468.167 47.3346" stroke="#FA7128" stroke-width="5" stroke-linecap="round"/>
<path d="M417.167 47.1673H468.167" stroke="#FA7128" stroke-width="5" stroke-linecap="round"/>
<path d="M217.667 91.3346L192.167 47.1673" stroke="#FA7128" stroke-width="5" stroke-linecap="round"/>
<path d="M217.667 3.1673L192.167 47.3346" stroke="#FA7128" stroke-width="5" stroke-linecap="round"/>
<path d="M141.167 47.1673H192.167" stroke="#FA7128" stroke-width="5" stroke-linecap="round"/>
<path d="M273 85.6673L317.167 60.1673" stroke="#FA7128" stroke-width="5" stroke-linecap="round"/>
<path d="M361.167 85.6673L317 60.1673" stroke="#FA7128" stroke-width="5" stroke-linecap="round"/>
<path d="M317.167 9.1673V60.1673" stroke="#FA7128" stroke-width="5" stroke-linecap="round"/>
<path d="M1045.83 91.1673L1020.33 47" stroke="#FA7128" stroke-width="5" stroke-linecap="round"/>
<path d="M1045.83 3L1020.33 47.1673" stroke="#FA7128" stroke-width="5" stroke-linecap="round"/>
<path d="M969.334 47H1020.33" stroke="#FA7128" stroke-width="5" stroke-linecap="round"/>
<path d="M1785 662.5L1829.17 637" stroke="#FA7128" stroke-width="5" stroke-linecap="round"/>
<path d="M1873.17 662.5L1829 637" stroke="#FA7128" stroke-width="5" stroke-linecap="round"/>
<path d="M1829.17 586V637" stroke="#FA7128" stroke-width="5" stroke-linecap="round"/>
<path d="M1867.67 774.167L1842.17 730" stroke="#FA7128" stroke-width="5" stroke-linecap="round"/>
<path d="M1867.67 686L1842.17 730.167" stroke="#FA7128" stroke-width="5" stroke-linecap="round"/>
<path d="M1791.17 730H1842.17" stroke="#FA7128" stroke-width="5" stroke-linecap="round"/>
<path d="M1729.67 770.167L1704.17 726" stroke="#FA7128" stroke-width="5" stroke-linecap="round"/>
<path d="M1729.67 682L1704.17 726.167" stroke="#FA7128" stroke-width="5" stroke-linecap="round"/>
<path d="M1653.17 726H1704.17" stroke="#FA7128" stroke-width="5" stroke-linecap="round"/>
<path d="M1453.67 770.167L1428.17 726" stroke="#FA7128" stroke-width="5" stroke-linecap="round"/>
<path d="M1453.67 682L1428.17 726.167" stroke="#FA7128" stroke-width="5" stroke-linecap="round"/>
<path d="M1377.17 726H1428.17" stroke="#FA7128" stroke-width="5" stroke-linecap="round"/>
<path d="M1233 764.5L1277.17 739" stroke="#FA7128" stroke-width="5" stroke-linecap="round"/>
<path d="M1321.17 764.5L1277 739" stroke="#FA7128" stroke-width="5" stroke-linecap="round"/>
<path d="M1277.17 688V739" stroke="#FA7128" stroke-width="5" stroke-linecap="round"/>
<path d="M1509 764.5L1553.17 739" stroke="#FA7128" stroke-width="5" stroke-linecap="round"/>
<path d="M1597.17 764.5L1553 739" stroke="#FA7128" stroke-width="5" stroke-linecap="round"/>
<path d="M1553.17 688V739" stroke="#FA7128" stroke-width="5" stroke-linecap="round"/>
<path d="M1509 662.667L1553.17 637.167" stroke="#FA7128" stroke-width="5" stroke-linecap="round"/>
<path d="M1597.17 662.667L1553 637.167" stroke="#FA7128" stroke-width="5" stroke-linecap="round"/>
<path d="M1553.17 586.167V637.167" stroke="#FA7128" stroke-width="5" stroke-linecap="round"/>
<path d="M1376.67 580L1402.17 624.167" stroke="#FA7128" stroke-width="5" stroke-linecap="round"/>
<path d="M1376.67 668.167L1402.17 624" stroke="#FA7128" stroke-width="5" stroke-linecap="round"/>
<path d="M1453.17 624.167H1402.17" stroke="#FA7128" stroke-width="5" stroke-linecap="round"/>
<path d="M1233 662.667L1277.17 637.167" stroke="#FA7128" stroke-width="5" stroke-linecap="round"/>
<path d="M1321.17 662.667L1277 637.167" stroke="#FA7128" stroke-width="5" stroke-linecap="round"/>
<path d="M1277.17 586.167V637.167" stroke="#FA7128" stroke-width="5" stroke-linecap="round"/>
<path d="M1729.83 668.167L1704.33 624" stroke="#FA7128" stroke-width="5" stroke-linecap="round"/>
<path d="M1729.83 580L1704.33 624.167" stroke="#FA7128" stroke-width="5" stroke-linecap="round"/>
<path d="M1653.33 624H1704.33" stroke="#FA7128" stroke-width="5" stroke-linecap="round"/>
</svg>
