<svg width="232" height="32" viewBox="0 0 232 32" fill="none" xmlns="http://www.w3.org/2000/svg">
<path d="M49.283 15.389C48.9927 12.328 47.9994 2.92924 47.9853 2.57981C47.9694 2.17048 47.3846 1.6493 47.3846 2.40607C47.3846 2.92921 46.912 8.93745 46.912 13.2844C46.862 13.2105 46.8319 13.1705 46.8319 13.1705H45.7505C43.8081 8.4083 38.6475 4.95192 32.5157 4.74226H32.3775H32.2413C32.1372 4.74226 32.0411 4.74226 31.9249 4.74226C31.8167 4.74226 31.7126 4.74226 31.6085 4.74226H31.4723H31.3382C25.2044 4.94194 20.0418 8.4083 18.0993 13.1705H17.098L17.0199 13.2844C17.0199 8.93745 16.5453 2.92921 16.5453 2.40607C16.5453 1.6493 15.9606 2.17048 15.9446 2.57981C15.9325 2.92924 14.9433 12.328 14.6489 15.389C14.2226 15.9561 13.9947 16.6471 14.0001 17.3558C14.0001 18.488 14.751 19.694 15.6742 19.694C15.9089 20.3478 16.2287 20.9682 16.6254 21.539H18.1093C20.1119 26.455 25.5468 29.9793 31.9269 29.9793C38.307 29.9793 43.7419 26.455 45.7445 21.539H47.3005C47.6963 20.9676 48.0161 20.3474 48.2517 19.694C49.1748 19.694 49.9238 18.496 49.9238 17.3558C49.9311 16.648 49.706 15.9574 49.283 15.389ZM31.9249 29.1267C25.3005 29.1267 19.9316 24.8256 19.9316 19.5182C19.9316 15.5487 22.9355 12.1423 27.2189 10.6766L28.0019 12.6095C28.0693 12.7753 28.1847 12.9172 28.3335 13.0172C28.4823 13.1172 28.6576 13.1705 28.837 13.1705H35.0329C35.2122 13.1705 35.3876 13.1172 35.5364 13.0172C35.6851 12.9172 35.8006 12.7753 35.8679 12.6095L36.649 10.6846C40.9223 12.1542 43.9162 15.5547 43.9162 19.5182C43.9162 24.8256 38.5474 29.1267 31.9249 29.1267Z" fill="#FFFFFF"/>
<path d="M35.9042 16.6895C35.5272 16.6895 35.1655 16.8388 34.8989 17.1047C34.6323 17.3706 34.4824 17.7312 34.4824 18.1072V21.5456C34.4824 21.9216 34.6323 22.2822 34.8989 22.548C35.1655 22.814 35.5272 22.9633 35.9042 22.9633C36.2813 22.9633 36.643 22.814 36.9096 22.548C37.1763 22.2822 37.3261 21.9216 37.3261 21.5456V18.1072C37.3261 17.7312 37.1763 17.3706 36.9096 17.1047C36.643 16.8388 36.2813 16.6895 35.9042 16.6895Z" fill="#FFFFFF"/>
<path d="M27.9433 16.6895C27.5662 16.6895 27.2046 16.8388 26.9379 17.1047C26.6713 17.3706 26.5215 17.7312 26.5215 18.1072V21.5456C26.5215 21.9216 26.6713 22.2822 26.9379 22.548C27.2046 22.814 27.5662 22.9633 27.9433 22.9633C28.3204 22.9633 28.682 22.814 28.9487 22.548C29.2153 22.2822 29.3651 21.9216 29.3651 21.5456V18.1072C29.3651 17.7312 29.2153 17.3706 28.9487 17.1047C28.682 16.8388 28.3204 16.6895 27.9433 16.6895Z" fill="#FFFFFF"/>
<path d="M31.9452 26.1561C31.1201 26.1561 30.4473 25.5571 30.4473 24.8242H30.9318C30.9318 25.2935 31.3865 25.6748 31.9452 25.6748C32.5039 25.6748 32.9604 25.2935 32.9604 24.8242H33.4451C33.4451 25.5591 32.7723 26.1561 31.9452 26.1561Z" fill="#FFFFFF" stroke="#DDE1E6" stroke-width="0.095186" stroke-miterlimit="10"/>
<path d="M57.8613 16.3846C57.8613 10.1891 61.7869 5.77832 68.1764 5.77832C73.5099 5.77832 77.1756 8.87501 78.0534 14.1054H74.4538C73.8099 10.891 71.4361 8.93285 68.1824 8.93285C64.0507 8.93285 61.4709 11.8262 61.4709 16.3846C61.4709 21.0606 64.0507 23.9241 68.1824 23.9241C71.494 23.9241 73.8099 22.0237 74.4538 18.7814H78.0534C77.1155 24.0995 73.5398 27.1085 68.1764 27.1085C61.8749 27.1044 57.8613 22.7814 57.8613 16.3846Z" fill="#FFFFFF"/>
<path d="M97.6855 26.6693V4.75293H101.144V26.6693H97.6855Z" fill="#FFFFFF"/>
<path d="M104.193 26.6693V4.75293H107.651V26.6693H104.193Z" fill="#FFFFFF"/>
<path d="M109.883 22.3672C109.914 18.744 113.517 17.9803 116.535 17.6333C118.88 17.3701 120.608 17.2824 120.639 16.0561C120.608 14.5366 119.439 13.5436 117.438 13.5436C115.387 13.5436 113.921 14.6522 113.717 16.2614H110.229C110.551 12.9872 113.481 10.708 117.497 10.708C121.696 10.708 124.002 12.9872 124.002 16.2913V23.3044C124.002 23.7431 124.238 23.9763 124.764 23.9763H125.614V26.6664H123.974C122.39 26.6664 121.424 26.0223 121.161 24.8538C121.094 24.6836 121.045 24.5072 121.014 24.3273C120.104 25.9944 118.404 26.9874 115.769 26.9874C112.193 26.9893 109.847 25.2646 109.883 22.3672ZM120.639 20.8477V18.6862C120.052 19.5915 118.558 19.7968 116.917 20.0002C114.983 20.2355 113.371 20.4968 113.371 22.1339C113.371 23.4779 114.455 24.2674 116.476 24.2674C118.845 24.2715 120.633 22.9275 120.633 20.8517L120.639 20.8477Z" fill="#FFFFFF"/>
<path d="M130.484 23.9216L130.162 26.6693H127.379V4.75293H130.836V13.1957C131.95 11.6762 133.796 10.7111 135.994 10.7111C140.097 10.7111 142.993 14.0431 142.993 18.8347C142.993 23.7141 140.092 27.104 135.96 27.104C133.502 27.106 131.45 25.8797 130.484 23.9216ZM139.452 18.8368C139.452 15.768 137.724 13.6363 135.204 13.6363C132.654 13.6363 130.836 15.74 130.836 18.7491C130.836 21.9395 132.654 24.1847 135.204 24.1847C137.722 24.1847 139.449 21.9934 139.449 18.8368H139.452Z" fill="#FFFFFF"/>
<path d="M151.611 26.6686V6.21582H155.129V23.516H165.592V26.6726L151.611 26.6686Z" fill="#FFFFFF"/>
<path d="M166.969 22.3672C166.999 18.744 170.605 17.9803 173.622 17.6333C175.967 17.3701 177.696 17.2824 177.726 16.0561C177.696 14.5366 176.526 13.5436 174.527 13.5436C172.475 13.5436 171.011 14.6522 170.805 16.2614H167.321C167.643 12.9872 170.575 10.708 174.591 10.708C178.78 10.708 181.096 12.9872 181.096 16.2913V23.3044C181.096 23.7431 181.33 23.9763 181.858 23.9763H182.708V26.6664H181.066C179.484 26.6664 178.517 26.0223 178.252 24.8538C178.187 24.6834 178.138 24.5071 178.106 24.3273C177.198 25.9944 175.507 26.9874 172.861 26.9874C169.281 26.9893 166.941 25.2646 166.969 22.3672ZM177.726 20.8477V18.6862C177.14 19.5915 175.645 19.7968 174.003 20.0002C172.069 20.2355 170.457 20.4968 170.457 22.1339C170.457 23.4779 171.543 24.2674 173.565 24.2674C175.939 24.2715 177.726 22.9275 177.726 20.8517V20.8477Z" fill="#FFFFFF"/>
<path d="M184.408 26.6672V11.1796H187.192L187.486 13.4588C188.452 11.8516 190.416 10.7109 192.732 10.7109C196.043 10.7109 198.211 12.9323 198.211 16.4099V26.6672H194.753V16.5834C194.753 14.8586 193.61 13.72 191.675 13.72C189.419 13.72 187.896 15.2673 187.876 17.2833V26.6552L184.408 26.6672Z" fill="#FFFFFF"/>
<path d="M200.117 18.8368C200.117 14.0511 203.077 10.7131 207.209 10.7131C209.408 10.7131 211.224 11.6184 212.308 13.08V4.75293H215.768V26.6693H212.982L212.66 23.9216C211.782 25.8797 209.846 27.112 207.326 27.112C203.135 27.106 200.117 23.7162 200.117 18.8368ZM212.316 18.8069C212.316 15.74 210.558 13.6064 208.039 13.6064C205.459 13.6064 203.671 15.768 203.671 18.8667C203.671 21.9654 205.431 24.1848 207.98 24.1848C210.53 24.1848 212.308 21.9694 212.308 18.8069H212.316Z" fill="#FFFFFF"/>
<path d="M148.975 23.4899C148.976 23.2902 148.868 23.1055 148.696 23.0058L146.745 21.8831C146.572 21.7833 146.358 21.7838 146.185 21.8843L144.222 23.0238C144.051 23.1234 143.945 23.3063 143.944 23.5042L143.936 25.769C143.936 25.9688 144.042 26.1535 144.215 26.2533L146.165 27.3759C146.339 27.4757 146.552 27.4752 146.725 27.3748L148.688 26.2356C148.86 26.1359 148.966 25.953 148.966 25.7549L148.975 23.4899Z" fill="#FFFFFF"/>
<path fill-rule="evenodd" clip-rule="evenodd" d="M94.4867 14.0176C94.9589 14.2894 95.249 14.7928 95.2471 15.337L95.2226 22.4573C95.2208 22.997 94.932 23.4956 94.4642 23.7671L88.2922 27.3484C87.8204 27.6221 87.2382 27.6233 86.766 27.3514L80.6335 23.8211C80.1612 23.5492 79.8712 23.0458 79.8731 22.5014L79.8988 15.3818C79.9007 14.8423 80.1893 14.3439 80.657 14.0724L86.8278 10.4905C87.2996 10.2166 87.8819 10.2153 88.3542 10.4873L94.4867 14.0176ZM89.9271 14.8329C91.3787 15.6684 92.2702 17.2289 92.2645 18.9019C92.2587 20.5773 91.351 22.1451 89.8987 22.9877C88.4486 23.8292 86.6474 23.8396 85.1959 23.0039C83.7441 22.1682 82.8525 20.6073 82.8585 18.934C82.8646 17.2592 83.772 15.6921 85.2236 14.8494C86.6739 14.0076 88.4754 13.9971 89.9271 14.8329Z" fill="#FFFFFF"/>
</svg>
