<?xml version="1.0" encoding="UTF-8"?>
<svg version="1.1" xmlns="http://www.w3.org/2000/svg" width="303" height="243">
<path d="M0 0 C0.66193359 0.29197266 1.32386719 0.58394531 2.00585938 0.88476562 C13.56644091 6.05107336 13.56644091 6.05107336 14.8203125 8.79541016 C15.07061236 11.86634456 14.03188679 13.34815017 12.47265625 15.984375 C11.92802734 16.91894531 11.38339844 17.85351562 10.82226562 18.81640625 C9.95118164 20.26853516 9.95118164 20.26853516 9.0625 21.75 C8.48564453 22.73355469 7.90878906 23.71710937 7.31445312 24.73046875 C5.88718766 27.16035872 4.44879894 29.5829083 3 32 C4.07894531 32.86238281 4.07894531 32.86238281 5.1796875 33.7421875 C6.97861969 35.18232989 8.77569356 36.62479876 10.5703125 38.0703125 C11.83488281 39.08738281 11.83488281 39.08738281 13.125 40.125 C14.39730469 41.14980469 14.39730469 41.14980469 15.6953125 42.1953125 C18.06720089 44.09986545 18.06720089 44.09986545 21 46 C21 46.66 21 47.32 21 48 C24.64742186 47.44495754 25.98226031 46.22618728 28.25 43.375 C32.73973373 38.0066302 37.56091111 32.94113595 44 30 C45.46451579 31.41027446 46.9213893 32.82848796 48.375 34.25 C49.18710938 35.03890625 49.99921875 35.8278125 50.8359375 36.640625 C52.80037149 38.78235447 53.74165671 40.44239169 55 43 C56.32644997 44.34018134 57.66049107 45.672871 59 47 C60.32317309 48.79592356 61.59353611 50.63177745 62.8125 52.5 C63.43769531 53.4384375 64.06289063 54.376875 64.70703125 55.34375 C66 58 66 58 65.80932617 60.01318359 C64.7688481 62.56745525 63.74144747 63.12363554 61.34375 64.4453125 C60.57659668 64.87763184 59.80944336 65.30995117 59.01904297 65.75537109 C58.18775879 66.20734863 57.35647461 66.65932617 56.5 67.125 C54.76259433 68.0981973 53.02562406 69.07217227 51.2890625 70.046875 C50.40637695 70.53736328 49.52369141 71.02785156 48.61425781 71.53320312 C44.66318267 73.7500559 40.77005588 76.06161016 36.875 78.375 C31.29575789 81.67057073 25.68929653 84.89674735 20 88 C21.86763181 93.72210596 23.85289032 99.37661751 26 105 C33.98291615 104.32365537 41.59319801 102.16392339 49.3125 100.125 C50.6763149 99.76908114 52.04024657 99.41360936 53.40429688 99.05859375 C54.74483117 98.70848454 56.08532643 98.35822584 57.42578125 98.0078125 C58.40419479 97.75272919 58.40419479 97.75272919 59.40237427 97.49249268 C62.36675441 96.71439615 65.31608091 95.90660276 68.25537109 95.03808594 C69.21652832 94.75481445 70.17768555 94.47154297 71.16796875 94.1796875 C71.98934326 93.92687012 72.81071777 93.67405273 73.65698242 93.41357422 C76.3726013 92.93423084 78.35009931 93.30831205 81 94 C87.83745583 125.32508834 87.83745583 125.32508834 85 131 C73.80426756 131.02312269 62.60854076 131.04091471 51.41278934 131.05181217 C46.21471885 131.05704116 41.01666464 131.0641391 35.81860352 131.07543945 C30.80657732 131.08626776 25.79456682 131.09227671 20.78252983 131.09487724 C18.86587718 131.09673159 16.94922543 131.1003524 15.03257942 131.10573006 C12.35771928 131.11293975 9.68292486 131.11399097 7.00805664 131.11352539 C6.2074884 131.11712067 5.40692017 131.12071594 4.58209229 131.12442017 C-0.88594784 131.11405216 -0.88594784 131.11405216 -2 130 C-2.19458954 128.26138475 -2.38413467 126.522028 -2.5456543 124.7800293 C-3.23761244 117.48264042 -4.52134421 111.67200628 -8.07421875 105.13671875 C-9 103 -9 103 -8 100 C-5.81029084 98.57052499 -3.6692714 97.29914526 -1.375 96.0625 C-0.77042969 95.72798828 -0.16585937 95.39347656 0.45703125 95.04882812 C1.6781881 94.37315605 2.90117826 93.7007868 4.12597656 93.03173828 C7.10531808 91.39147027 10.05110482 89.69428811 13 88 C8.46219602 75.38269136 -4.26665495 63.92926259 -16.01220703 57.98095703 C-21.55554478 55.37877643 -27.188355 52.937215 -33 51 C-36.465 63.375 -36.465 63.375 -40 76 C-45 77 -45 77 -48 76 C-60.6082996 75.18756929 -71.55265761 76.73672266 -82.74609375 82.81640625 C-85 84 -85 84 -87.72265625 84.96484375 C-88.47417969 85.30644531 -89.22570312 85.64804688 -90 86 C-90.495 87.485 -90.495 87.485 -91 89 C-92.48828125 90.39453125 -92.48828125 90.39453125 -94.3125 91.8125 C-97.64384478 94.59539168 -99.81520559 97.19422909 -102 101 C-102.49628906 101.83144531 -102.99257812 102.66289062 -103.50390625 103.51953125 C-107.47744813 110.67190663 -108.90649707 116.83221136 -109.67578125 124.84765625 C-110 128 -110 128 -111 131 C-130.14 131 -149.28 131 -169 131 C-169 121.22306706 -168.9928243 113.50352884 -166.8125 104.3125 C-166.58691406 103.32427246 -166.36132812 102.33604492 -166.12890625 101.31787109 C-163.60369948 90.67868395 -159.58392222 81.40950297 -154 72 C-150.42892597 73.33040013 -147.29773358 74.92889527 -144.0625 76.9375 C-140.44636555 79.1458674 -136.82915497 81.17659287 -133 83 C-131.66666667 83.66666667 -130.33333333 84.33333333 -129 85 C-128.34 83.68 -127.68 82.36 -127 81 C-126.34 81 -125.68 81 -125 81 C-124.79375 80.319375 -124.5875 79.63875 -124.375 78.9375 C-118.39194476 66.15551835 -103.31884413 57.52224047 -91 52 C-90.0615625 51.49855469 -89.123125 50.99710938 -88.15625 50.48046875 C-78.00435827 45.71862844 -66.57879759 44.63537694 -55.5 44.625 C-54.60539062 44.62346924 -53.71078125 44.62193848 -52.7890625 44.62036133 C-46.67730237 44.72180839 -40.94771575 45.61209318 -35 47 C-34.88736816 46.38568115 -34.77473633 45.7713623 -34.65869141 45.13842773 C-33.20493996 37.30953329 -31.10726976 29.67209863 -29 22 C-47.9100954 20.07460847 -67.20714926 20.06852468 -86 23 C-87.20100304 18.56604104 -88.38348051 14.12735053 -89.5625 9.6875 C-89.90474609 8.42486328 -90.24699219 7.16222656 -90.59960938 5.86132812 C-91.07817383 4.04858398 -91.07817383 4.04858398 -91.56640625 2.19921875 C-91.86490479 1.08377686 -92.16340332 -0.03166504 -92.47094727 -1.1809082 C-93 -4 -93 -4 -92 -7 C-89.12109375 -7.9140625 -89.12109375 -7.9140625 -85.4375 -8.625 C-84.23996094 -8.86476563 -83.04242188 -9.10453125 -81.80859375 -9.3515625 C-54.26264213 -14.04143734 -25.60167667 -11.41546622 0 0 Z " fill="#C0C0C0" transform="translate(200,28)"/>
<path d="M0 0 C0.33 0 0.66 0 1 0 C2.06005003 12.24946697 -2.33433395 24.44759789 -6 36 C-9.28696233 36.79953138 -10.71023192 37.09658936 -14 36 C-26.6082996 35.18756929 -37.55265761 36.73672266 -48.74609375 42.81640625 C-51 44 -51 44 -53.72265625 44.96484375 C-54.47417969 45.30644531 -55.22570312 45.64804688 -56 46 C-56.33 46.99 -56.66 47.98 -57 49 C-58.48828125 50.39453125 -58.48828125 50.39453125 -60.3125 51.8125 C-63.64384478 54.59539168 -65.81520559 57.19422909 -68 61 C-68.49628906 61.83144531 -68.99257812 62.66289062 -69.50390625 63.51953125 C-73.47744813 70.67190663 -74.90649707 76.83221136 -75.67578125 84.84765625 C-76 88 -76 88 -77 91 C-96.14 91 -115.28 91 -135 91 C-135 81.22306706 -134.9928243 73.50352884 -132.8125 64.3125 C-132.58691406 63.32427246 -132.36132812 62.33604492 -132.12890625 61.31787109 C-129.60369948 50.67868395 -125.58392222 41.40950297 -120 32 C-116.42892597 33.33040013 -113.29773358 34.92889527 -110.0625 36.9375 C-106.44636555 39.1458674 -102.82915497 41.17659287 -99 43 C-97.66666667 43.66666667 -96.33333333 44.33333333 -95 45 C-94.34 43.68 -93.68 42.36 -93 41 C-92.34 41 -91.68 41 -91 41 C-90.79375 40.319375 -90.5875 39.63875 -90.375 38.9375 C-84.39194476 26.15551835 -69.31884413 17.52224047 -57 12 C-56.0615625 11.49855469 -55.123125 10.99710938 -54.15625 10.48046875 C-44.00435827 5.71862844 -32.57879759 4.63537694 -21.5 4.625 C-20.60539062 4.62346924 -19.71078125 4.62193848 -18.7890625 4.62036133 C-12.67730237 4.72180839 -6.94771575 5.61209318 -1 7 C-0.67 4.69 -0.34 2.38 0 0 Z " fill="#C1C1C1" transform="translate(166,68)"/>
<path d="M0 0 C0.66193359 0.29197266 1.32386719 0.58394531 2.00585938 0.88476562 C13.56644091 6.05107336 13.56644091 6.05107336 14.8203125 8.79541016 C15.07061236 11.86634456 14.03188679 13.34815017 12.47265625 15.984375 C11.92802734 16.91894531 11.38339844 17.85351562 10.82226562 18.81640625 C9.95118164 20.26853516 9.95118164 20.26853516 9.0625 21.75 C8.48564453 22.73355469 7.90878906 23.71710937 7.31445312 24.73046875 C5.88718766 27.16035872 4.44879894 29.5829083 3 32 C3.66 32.99 4.32 33.98 5 35 C3.68 35 2.36 35 1 35 C1 34.34 1 33.68 1 33 C0.42419189 32.87165771 -0.15161621 32.74331543 -0.74487305 32.61108398 C-2.9978129 32.00059265 -4.96390291 31.19832856 -7.08203125 30.22265625 C-7.84966797 29.87396484 -8.61730469 29.52527344 -9.40820312 29.16601562 C-10.99990762 28.43546076 -12.59106229 27.70370666 -14.18164062 26.97070312 C-18.73891183 24.90336957 -23.14885357 23.23707472 -28 22 C-28 23.32 -28 24.64 -28 26 C-28.66 26 -29.32 26 -30 26 C-29.67 24.68 -29.34 23.36 -29 22 C-47.9100954 20.07460847 -67.20714926 20.06852468 -86 23 C-87.20100304 18.56604104 -88.38348051 14.12735053 -89.5625 9.6875 C-89.90474609 8.42486328 -90.24699219 7.16222656 -90.59960938 5.86132812 C-90.91865234 4.65283203 -91.23769531 3.44433594 -91.56640625 2.19921875 C-91.86490479 1.08377686 -92.16340332 -0.03166504 -92.47094727 -1.1809082 C-93 -4 -93 -4 -92 -7 C-89.12109375 -7.9140625 -89.12109375 -7.9140625 -85.4375 -8.625 C-84.23996094 -8.86476563 -83.04242188 -9.10453125 -81.80859375 -9.3515625 C-54.26264213 -14.04143734 -25.60167667 -11.41546622 0 0 Z " fill="#C1C1C1" transform="translate(200,28)"/>
<path d="M0 0 C0 0.66 0 1.32 0 2 C0.66 2 1.32 2 2 2 C3.98 6.95 5.96 11.9 8 17 C13.38574647 16.32678169 18.01139512 15.61034808 23.17578125 14.2578125 C23.82645065 14.08877411 24.47712006 13.91973572 25.14750671 13.74557495 C27.2037706 13.21009806 29.25811404 12.66763139 31.3125 12.125 C32.6763149 11.76908114 34.04024657 11.41360936 35.40429688 11.05859375 C36.74483117 10.70848454 38.08532643 10.35822584 39.42578125 10.0078125 C40.40419479 9.75272919 40.40419479 9.75272919 41.40237427 9.49249268 C44.36675441 8.71439615 47.31608091 7.90660276 50.25537109 7.03808594 C51.21652832 6.75481445 52.17768555 6.47154297 53.16796875 6.1796875 C53.98934326 5.92687012 54.81071777 5.67405273 55.65698242 5.41357422 C58.3726013 4.93423084 60.35009931 5.30831205 63 6 C69.83745583 37.32508834 69.83745583 37.32508834 67 43 C55.80426756 43.02312269 44.60854076 43.04091471 33.41278934 43.05181217 C28.21471885 43.05704116 23.01666464 43.0641391 17.81860352 43.07543945 C12.80657732 43.08626776 7.79456682 43.09227671 2.78252983 43.09487724 C0.86587718 43.09673159 -1.05077457 43.1003524 -2.96742058 43.10573006 C-5.64228072 43.11293975 -8.31707514 43.11399097 -10.99194336 43.11352539 C-11.7925116 43.11712067 -12.59307983 43.12071594 -13.41790771 43.12442017 C-18.88594784 43.11405216 -18.88594784 43.11405216 -20 42 C-20.19458954 40.26138475 -20.38413467 38.522028 -20.5456543 36.7800293 C-21.23761244 29.48264042 -22.52134421 23.67200628 -26.07421875 17.13671875 C-27 15 -27 15 -26 12 C-23.85142652 10.56269878 -21.76078438 9.29613302 -19.5 8.0625 C-18.86795654 7.71058594 -18.23591309 7.35867187 -17.5847168 6.99609375 C-4.87028809 0 -4.87028809 0 0 0 Z " fill="#333333" transform="translate(218,116)"/>
<path d="M0 0 C3.57107403 1.33040013 6.70226642 2.92889527 9.9375 4.9375 C12.72442261 6.64361012 15.44878152 8.22439076 18.375 9.6875 C20.83377208 10.91688604 22.86660914 12.27687661 25 14 C24.36925695 16.8606427 23.45695461 19.3024966 22.1875 21.9375 C16.88412281 33.81706491 15.17676702 45.1536267 14 58 C4.43 58 -5.14 58 -15 58 C-15 48.63570222 -14.88858895 41.20601073 -12.8125 32.375 C-12.47412109 30.88589111 -12.47412109 30.88589111 -12.12890625 29.36669922 C-9.6096583 18.70363236 -5.59535724 9.4287722 0 0 Z " fill="#333333" transform="translate(46,100)"/>
<path d="M0 0 C10.27422414 1.65121459 19.79504738 6.26737654 29 11 C29 11.66 29 12.32 29 13 C29.85980469 12.90203125 30.71960938 12.8040625 31.60546875 12.703125 C35.94520283 13.08266446 38.17289727 14.96619285 41.3125 17.75 C41.84939453 18.1934375 42.38628906 18.636875 42.93945312 19.09375 C45.73061096 21.48717664 47.67375807 23.22617447 48 27 C48.66 27 49.32 27 50 27 C49.03842453 33.49063442 43.68051995 37.2892276 38.953125 41.28125 C37.25569694 42.77498669 35.8002238 44.30512479 34.3125 46 C32 48 32 48 29.71875 47.9140625 C26.17339959 46.72209124 24.03551031 44.79526037 21.1875 42.375 C13.36552194 35.99367097 4.53854359 32.17951453 -5 29 C-8.08840044 22.00616196 -3.94187463 11.07397185 -2 4 C-1.34 4 -0.68 4 0 4 C0 2.68 0 1.36 0 0 Z " fill="#333333" transform="translate(172,50)"/>
<path d="M0 0 C5.6925 -0.12375 5.6925 -0.12375 11.5 -0.25 C12.68013672 -0.28641602 13.86027344 -0.32283203 15.07617188 -0.36035156 C21.87047599 -0.43146008 26.24814021 0.30334483 32 4 C34.4638844 7.79848845 34.45941089 11.55902805 34 16 C32.86450312 18.53265173 31.52642287 20.66266498 30 23 C30.66 23 31.32 23 32 23 C35.25773487 25.99711608 35.78705984 29.44888414 36.12890625 33.68359375 C35.90376637 37.72928912 34.44993771 39.77639775 32 43 C28.12873383 45.88695335 25.38968455 46.36099078 20.60546875 46.29296875 C19.52160889 46.28547607 18.43774902 46.2779834 17.32104492 46.27026367 C15.9569751 46.24295166 14.59290527 46.21563965 13.1875 46.1875 C8.835625 46.125625 4.48375 46.06375 0 46 C0 30.82 0 15.64 0 0 Z M13 11 C13 13.31 13 15.62 13 18 C17.25731568 18.40749675 17.25731568 18.40749675 20.875 16.5 C21.24625 16.005 21.6175 15.51 22 15 C21.34 13.68 20.68 12.36 20 11 C17.69 11 15.38 11 13 11 Z M13 28 C13 30.64 13 33.28 13 36 C16.41656024 36.16677282 16.41656024 36.16677282 20 36 C22.26839983 34.16734675 22.26839983 34.16734675 22.1875 31.4375 C22.27003323 29.05310277 22.27003323 29.05310277 21 28 C18.32941149 27.85884839 15.67567762 27.95752893 13 28 Z " fill="#1C1C1C" transform="translate(101,175)"/>
<path d="M0 0 C2.91130856 0.52809904 5.5888169 0.59371825 8.54467773 0.55810547 C9.52049805 0.54908203 10.49631836 0.54005859 11.50170898 0.53076172 C12.23776367 0.51916016 12.97381836 0.50755859 13.73217773 0.49560547 C13.80671409 5.35193582 13.86096102 10.20792815 13.89697266 15.06469727 C13.91199579 16.71449591 13.93242033 18.36425505 13.95849609 20.01391602 C13.99516672 22.39463083 14.01196876 24.77481454 14.02514648 27.15576172 C14.04063034 27.885215 14.0561142 28.61466827 14.07206726 29.3662262 C14.07371608 34.46126944 13.14706306 37.98192297 10.73217773 42.49560547 C5.51068741 46.5449245 0.32145706 47.76934408 -6.26782227 47.49560547 C-11.09822636 46.53773497 -15.16182564 45.23293656 -19.26782227 42.49560547 C-18.14330499 39.52366696 -17.04488435 37.1611986 -15.26782227 34.49560547 C-14.25719727 34.82560547 -13.24657227 35.15560547 -12.20532227 35.49560547 C-8.48130444 36.5477162 -5.14974502 36.87618613 -1.26782227 36.49560547 C-0.60782227 35.50560547 0.05217773 34.51560547 0.73217773 33.49560547 C-0.75282227 33.99060547 -0.75282227 33.99060547 -2.26782227 34.49560547 C-7.8865795 34.86404857 -11.42493605 34.68750775 -16.26782227 31.49560547 C-21.67077398 25.65457658 -21.60447655 20.5880486 -21.55688477 12.89404297 C-21.17590376 8.41494193 -20.31493088 6.71683457 -17.26782227 3.49560547 C-16.77282227 2.89748047 -16.27782227 2.29935547 -15.76782227 1.68310547 C-11.55411708 -1.65274447 -5.02118824 -1.11678059 0 0 Z M-8.14282227 12.18310547 C-9.48365301 14.93925755 -9.72227137 16.46594478 -9.26782227 19.49560547 C-8.27748001 21.89944542 -8.27748001 21.89944542 -6.26782227 23.49560547 C-3.22551403 23.99571071 -3.22551403 23.99571071 -0.26782227 23.49560547 C1.97542609 21.68367541 1.97542609 21.68367541 1.92749023 19.11279297 C1.90428711 18.20787109 1.88108398 17.30294922 1.85717773 16.37060547 C1.83913086 15.46052734 1.82108398 14.55044922 1.80249023 13.61279297 C1.77928711 12.91412109 1.75608398 12.21544922 1.73217773 11.49560547 C-1.79812847 9.73045237 -5.13716097 9.4780103 -8.14282227 12.18310547 Z " fill="#1A1A1A" transform="translate(232.267822265625,187.50439453125)"/>
<path d="M0 0 C1.051875 -0.00386719 1.051875 -0.00386719 2.125 -0.0078125 C4 0.125 4 0.125 6 1.125 C6 16.305 6 31.485 6 47.125 C1.71 47.125 -2.58 47.125 -7 47.125 C-8.485 47.62 -8.485 47.62 -10 48.125 C-15.4696513 48.54574241 -19.25359683 47.93768336 -24 45.125 C-27.89507477 40.66774949 -29.893463 36.09107191 -30 30.125 C-29.33108543 24.210387 -27.11531059 19.4436835 -23 15.125 C-18.8503311 12.54547609 -14.74927483 12.89519638 -10 13.125 C-9.01 13.455 -8.02 13.785 -7 14.125 C-6.95101562 13.19816406 -6.90203125 12.27132812 -6.8515625 11.31640625 C-6.77679688 10.11886719 -6.70203125 8.92132813 -6.625 7.6875 C-6.55539063 6.49253906 -6.48578125 5.29757813 -6.4140625 4.06640625 C-6.27742188 3.09574219 -6.14078125 2.12507812 -6 1.125 C-3.75487738 0.00243869 -2.48543351 -0.00913762 0 0 Z M-16 26.125 C-16.91399027 29.7047952 -17.17841928 31.58974216 -16 35.125 C-12.77626323 37.27415785 -11.73296326 37.50786803 -8 37.125 C-5.80333697 35.34533317 -5.80333697 35.34533317 -5.76953125 33.03125 C-5.78371094 32.2371875 -5.79789063 31.443125 -5.8125 30.625 C-5.81894531 29.8309375 -5.82539062 29.036875 -5.83203125 28.21875 C-5.87324164 26.06663609 -5.87324164 26.06663609 -7 24.125 C-11.7897321 23.89071687 -11.7897321 23.89071687 -16 26.125 Z " fill="#191919" transform="translate(56,173.875)"/>
<path d="M0 0 C1.875 -0.328125 1.875 -0.328125 4 -0.25 C4.70125 -0.23453125 5.4025 -0.2190625 6.125 -0.203125 C8 0 8 0 10 1 C10 16.18 10 31.36 10 47 C5.71 47 1.42 47 -3 47 C-4.485 47.495 -4.485 47.495 -6 48 C-11.46250368 48.42019259 -15.21389139 47.70911808 -20 45 C-25.05249157 38.61790539 -25.80045515 32.92883274 -25 25 C-23.54241884 20.57674628 -21.46501901 17.12404639 -18 14 C-13.10971513 12.00766172 -6.97215773 12.60158064 -2 14 C-2.02320313 13.24074219 -2.04640625 12.48148438 -2.0703125 11.69921875 C-2.09738281 10.20841797 -2.09738281 10.20841797 -2.125 8.6875 C-2.14820313 7.70136719 -2.17140625 6.71523437 -2.1953125 5.69921875 C-2 3 -2 3 0 0 Z M-12 26.1875 C-13.14582934 29.41014501 -13.17476421 30.81135428 -12 34 C-10.91666667 35.91666667 -10.91666667 35.91666667 -9 37 C-5.91608998 37.33361919 -5.91608998 37.33361919 -3 37 C-1.72129618 35.94399622 -1.72129618 35.94399622 -1.8671875 33.53125 C-1.87105469 32.03078125 -1.87105469 32.03078125 -1.875 30.5 C-1.87242187 29.4996875 -1.86984375 28.499375 -1.8671875 27.46875 C-1.72129618 25.05600378 -1.72129618 25.05600378 -3 24 C-8.10369 23.3006471 -8.10369 23.3006471 -12 26.1875 Z " fill="#1F1F1F" transform="translate(199,174)"/>
<path d="M0 0 C6.83745583 31.32508834 6.83745583 31.32508834 4 37 C-24.38 37 -52.76 37 -82 37 C-82 36.67 -82 36.34 -82 36 C-63.19 36 -44.38 36 -25 36 C-25.80668631 17.8161015 -25.80668631 17.8161015 -30 9 C-33.08369887 7.94250443 -33.08369887 7.94250443 -36 8 C-32.35769505 5.90404447 -28.48883403 5.0190848 -24.4375 4.0625 C-18.67839018 2.67787828 -12.99200699 1.17389823 -7.33203125 -0.58203125 C-4.61991763 -1.06812197 -2.64737019 -0.69123165 0 0 Z " fill="#C0C0C0" transform="translate(281,122)"/>
<path d="M0 0 C4.56208489 5.76263354 5.22859342 9.91360399 5 17 C3.41596476 18.58403524 1.7228362 18.21974935 -0.47265625 18.31640625 C-1.37177734 18.35830078 -2.27089844 18.40019531 -3.19726562 18.44335938 C-4.14279297 18.48267578 -5.08832031 18.52199219 -6.0625 18.5625 C-7.01189453 18.60568359 -7.96128906 18.64886719 -8.93945312 18.69335938 C-11.29281353 18.79979276 -13.64628354 18.90181008 -16 19 C-12.2714951 21.06123007 -10.01051845 21.08809983 -5.75 20.625 C-4.13351562 20.45871094 -4.13351562 20.45871094 -2.484375 20.2890625 C-1.25460937 20.14597656 -1.25460937 20.14597656 0 20 C2.0234375 23.671875 2.0234375 23.671875 1.8125 26.625 C1 29 1 29 -2 31 C-8.64875541 32.11411577 -15.81070147 33.03149316 -22 30 C-26.83345568 25.6274087 -29.63656589 21.21033464 -30.375 14.6875 C-29.66539979 7.70976462 -26.41407294 2.46661018 -21 -2 C-13.95645493 -4.328077 -6.32154661 -3.79292797 0 0 Z M-17 10 C-13.7 10 -10.4 10 -7 10 C-7.66 9.01 -8.32 8.02 -9 7 C-13.2875366 6.34037898 -13.77781888 6.77781888 -17 10 Z " fill="#1D1D1D" transform="translate(277,190)"/>
<path d="M0 0 C3.9432562 3.00438568 5.45047498 5.4590801 7.625 10 C7.625 13.3 7.625 16.6 7.625 20 C0.695 20 -6.235 20 -13.375 20 C-13.045 20.66 -12.715 21.32 -12.375 22 C-7.06711971 23.19156496 -2.66563457 22.83536335 2.625 22 C4.25 24.25 4.25 24.25 5.625 27 C4.66469728 30.36105951 3.60799429 31.01133714 0.625 33 C-5.85014484 34.17385667 -12.26072039 34.74518676 -18.375 32 C-22.95148051 28.15159594 -25.80761138 24.40049031 -27.1875 18.5625 C-27.5617268 11.45219085 -24.30090512 6.53546869 -19.875 1.1875 C-14.83766507 -2.80039016 -5.71995344 -1.69480102 0 0 Z M-11.375 9 C-12.365 9.99 -13.355 10.98 -14.375 12 C-11.075 12 -7.775 12 -4.375 12 C-4.375 11.34 -4.375 10.68 -4.375 10 C-7.72958155 9.23477199 -7.72958155 9.23477199 -11.375 9 Z " fill="#1A1A1A" transform="translate(90.375,188)"/>
<path d="M0 0 C0 10.89 0 21.78 0 33 C-3.63 33 -7.26 33 -11 33 C-11.495 21.615 -11.495 21.615 -12 10 C-17.58368091 11.43948523 -17.58368091 11.43948523 -19.83203125 13.578125 C-21.58907231 17.22148773 -21.57144396 20.75104039 -21.6875 24.75 C-21.72166016 25.54277344 -21.75582031 26.33554688 -21.79101562 27.15234375 C-21.87319104 29.10107504 -21.93828045 31.05051362 -22 33 C-23.81242052 33.02687279 -25.62495233 33.04633715 -27.4375 33.0625 C-28.44683594 33.07410156 -29.45617187 33.08570313 -30.49609375 33.09765625 C-33 33 -33 33 -34 32 C-34.0883967 29.6243148 -34.11530305 27.27791326 -34.09765625 24.90234375 C-34.0962413 24.19348526 -34.09482635 23.48462677 -34.09336853 22.75428772 C-34.08775443 20.48198288 -34.07519963 18.20977525 -34.0625 15.9375 C-34.05748681 14.40039204 -34.05292359 12.86328255 -34.04882812 11.32617188 C-34.03778042 7.55074358 -34.02050641 3.77538829 -34 0 C-30.04 0 -26.08 0 -22 0 C-21.67 0.66 -21.34 1.32 -21 2 C-16 -1 -16 -1 0 0 Z " fill="#2C2C2C" transform="translate(172,188)"/>
<path d="M0 0 C3.96 0 7.92 0 12 0 C12 10.89 12 21.78 12 33 C8.37 33 4.74 33 1 33 C1.01160156 31.288125 1.02320313 29.57625 1.03515625 27.8125 C1.04453985 25.54166776 1.05363944 23.27083434 1.0625 21 C1.07087891 19.87464844 1.07925781 18.74929687 1.08789062 17.58984375 C1.10533416 11.62415603 0.91781223 5.89712427 0 0 Z " fill="#141413" transform="translate(160,188)"/>
<path d="M0 0 C1.051875 -0.00386719 1.051875 -0.00386719 2.125 -0.0078125 C4 0.125 4 0.125 6 1.125 C6 13.665 6 26.205 6 39.125 C5.67 39.125 5.34 39.125 5 39.125 C4.67 32.855 4.34 26.585 4 20.125 C2.68 20.455 1.36 20.785 0 21.125 C-2.25 19.375 -2.25 19.375 -4 17.125 C-4 16.135 -4 15.145 -4 14.125 C-4.66 13.795 -5.32 13.465 -6 13.125 C-6 9.165 -6 5.205 -6 1.125 C-3.75487738 0.00243869 -2.48543351 -0.00913762 0 0 Z " fill="#2F2F2F" transform="translate(56,173.875)"/>
<path d="M0 0 C0.7734375 0.08378906 1.546875 0.16757813 2.34375 0.25390625 C8.46401564 0.85229856 13.9371133 1.04934578 20 0 C21.625 2.25 21.625 2.25 23 5 C22.03969728 8.36105951 20.98299429 9.01133714 18 11 C12.01527137 11.99313679 5.93145238 12.48286309 0 11 C1.32 10.67 2.64 10.34 4 10 C0.535 8.02 0.535 8.02 -3 6 C-2.34 5.34 -1.68 4.68 -1 4 C-0.3574765 1.93125966 -0.3574765 1.93125966 0 0 Z " fill="#1F1F1F" transform="translate(73,210)"/>
<path d="M0 0 C0.66 0 1.32 0 2 0 C2 5.28 2 10.56 2 16 C-1.63 16 -5.26 16 -9 16 C-9 12.7 -9 9.4 -9 6 C-8.01 6.495 -8.01 6.495 -7 7 C-4.99199544 6.71887936 -2.98985949 6.38932033 -1 6 C-0.67 4.02 -0.34 2.04 0 0 Z " fill="#131313" transform="translate(148,205)"/>
<path d="M0 0 C2 3 2 3 1.8125 5.5 C0.91748958 8.25387823 0.46683286 9.46886237 -2 11 C-5 11 -5 11 -8 10 C-10 7.75 -10 7.75 -11 5 C-10.35550659 1.92075372 -9.65387512 0.51859061 -7.1875 -1.4375 C-4.15029801 -2.2184948 -2.70633017 -1.49560351 0 0 Z " fill="#292929" transform="translate(171,176)"/>
<path d="M0 0 C3.63 0 7.26 0 11 0 C11 10.89 11 21.78 11 33 C10.67 33 10.34 33 10 33 C10 24.09 10 15.18 10 6 C6.535 7.485 6.535 7.485 3 9 C1 6 1 6 1 3 C0.67 2.01 0.34 1.02 0 0 Z " fill="#303030" transform="translate(161,188)"/>
<path d="M0 0 C2.64 0.33 5.28 0.66 8 1 C8 1.99 8 2.98 8 4 C7.01 4.495 7.01 4.495 6 5 C6 6.98 6 8.96 6 11 C4.02 11 2.04 11 0 11 C1.32 10.67 2.64 10.34 4 10 C0.535 8.02 0.535 8.02 -3 6 C-2.34 5.34 -1.68 4.68 -1 4 C-0.3574765 1.93125966 -0.3574765 1.93125966 0 0 Z " fill="#262626" transform="translate(73,210)"/>
<path d="M0 0 C0 0.33 0 0.66 0 1 C-1.5778125 1.0928125 -1.5778125 1.0928125 -3.1875 1.1875 C-7.66407978 2.1415252 -9.04189997 3.61931426 -12 7 C-12.99 7.495 -12.99 7.495 -14 8 C-14.66 7.34 -15.32 6.68 -16 6 C-12.61538462 1.28571429 -12.61538462 1.28571429 -10.25 0.1875 C-6.82383635 -0.09801364 -3.43784799 -0.05729747 0 0 Z " fill="#434343" transform="translate(193,187)"/>
<path d="M0 0 C2.31 0.33 4.62 0.66 7 1 C7 1.66 7 2.32 7 3 C8.65 2.01 10.3 1.02 12 0 C12.66 2.31 13.32 4.62 14 7 C9.0276578 5.50829734 4.58154261 3.39542583 0 1 C0 0.67 0 0.34 0 0 Z " fill="#5D5D5D" transform="translate(175,81)"/>
<path d="M0 0 C0.33 0 0.66 0 1 0 C1.06058594 0.99 1.12117188 1.98 1.18359375 3 C1.26799356 4.33334827 1.35264526 5.66668061 1.4375 7 C1.4797168 7.68682861 1.52193359 8.37365723 1.56542969 9.08129883 C1.79740638 12.65873494 2.13791089 16.1562167 2.75 19.6875 C3 23 3 23 0 27 C0 18.09 0 9.18 0 0 Z " fill="#0A0A0A" transform="translate(101,184)"/>
<path d="M0 0 C2.0625 0.4375 2.0625 0.4375 4 1 C4 2.98 4 4.96 4 7 C2.35 7.33 0.7 7.66 -1 8 C-1.04241723 5.66705225 -1.04092937 3.33297433 -1 1 C-0.67 0.67 -0.34 0.34 0 0 Z " fill="#131313" transform="translate(187,214)"/>
<path d="M0 0 C0.33 1.32 0.66 2.64 1 4 C0.401875 4.28875 -0.19625 4.5775 -0.8125 4.875 C-3.19327792 6.04742026 -3.19327792 6.04742026 -6 8 C-6.33 6.68 -6.66 5.36 -7 4 C-4.69 2.68 -2.38 1.36 0 0 Z " fill="#4C4C4C" transform="translate(198,125)"/>
<path d="M0 0 C3.875 1.75 3.875 1.75 5 4 C4.29875 3.71125 3.5975 3.4225 2.875 3.125 C0.03262004 2.69434336 0.03262004 2.69434336 -1.66796875 4.26953125 C-3.17706479 5.80013459 -4.61434662 7.35721507 -6 9 C-6.66 8.67 -7.32 8.34 -8 8 C-5.33333333 5.33333333 -2.66666667 2.66666667 0 0 Z " fill="#D3D3D3" transform="translate(242,58)"/>
<path d="M0 0 C1.16402344 0.13148438 1.16402344 0.13148438 2.3515625 0.265625 C4.375 0.75 4.375 0.75 6.375 2.75 C5.62734375 2.73839844 4.8796875 2.72679687 4.109375 2.71484375 C3.12453125 2.70582031 2.1396875 2.69679687 1.125 2.6875 C0.15046875 2.67589844 -0.8240625 2.66429687 -1.828125 2.65234375 C-4.28258678 2.73804423 -6.28668914 3.04293934 -8.625 3.75 C-8.625 3.09 -8.625 2.43 -8.625 1.75 C-5.5186005 -0.09398144 -3.57218528 -0.4539901 0 0 Z " fill="#090909" transform="translate(53.625,218.25)"/>
<path d="M0 0 C-0.99 0.495 -0.99 0.495 -2 1 C-2 2.98 -2 4.96 -2 7 C-2.556875 6.360625 -3.11375 5.72125 -3.6875 5.0625 C-6.22066561 2.80319013 -7.68341424 2.36850953 -11 2 C-7.36576791 -0.32590854 -4.22911669 -0.16265833 0 0 Z " fill="#949494" transform="translate(256,128)"/>
<path d="M0 0 C1.48117801 0.28127421 2.95993249 0.57533732 4.4375 0.875 C5.67306641 1.11863281 5.67306641 1.11863281 6.93359375 1.3671875 C7.61550781 1.57601562 8.29742187 1.78484375 9 2 C9.33 2.66 9.66 3.32 10 4 C6.7 4 3.4 4 0 4 C0 2.68 0 1.36 0 0 Z " fill="#0B0B0B" transform="translate(198,217)"/>
<path d="M0 0 C3 3.75 3 3.75 3 6 C0.33333333 6 -2.33333333 6 -5 6 C-3.35 4.02 -1.7 2.04 0 0 Z " fill="#CCCCCC" transform="translate(83,97)"/>
<path d="M0 0 C1.9375 0.8125 1.9375 0.8125 4 2 C4.33 2.99 4.66 3.98 5 5 C3.35 4.67 1.7 4.34 0 4 C0 2.68 0 1.36 0 0 Z M5 2 C7 3 7 3 7 3 Z " fill="#2B2B2B" transform="translate(81,193)"/>
</svg>
