<svg width="500" height="126" viewBox="0 0 500 126" fill="none" xmlns="http://www.w3.org/2000/svg">
<path d="M141.157 72.4074C141.157 73.287 140.37 74.0741 139.491 74.0741H108.75C109.537 81.3889 115.231 88.5185 123.287 88.5185C128.796 88.5185 132.87 86.3889 135.972 81.9444C136.296 81.4815 136.759 81.1574 137.315 81.1574C138.194 81.1574 138.843 81.8055 138.843 82.6852C138.843 83.0092 138.75 83.2407 138.611 83.4722C135.509 88.8889 129.352 91.5278 123.287 91.5278C112.917 91.5278 105.556 82.2685 105.556 72.3611C105.556 62.4537 112.917 53.2407 123.287 53.2407C133.657 53.2407 141.157 62.5 141.157 72.4074ZM137.824 70.9259C137.176 63.1018 131.343 56.3889 123.287 56.3889C115.231 56.3889 109.491 63.1018 108.75 70.9259H137.824Z" fill="white"/>
<path d="M178.519 53.75C179.398 53.75 180.046 54.537 180.046 55.3241C180.046 56.2037 179.398 56.8981 178.519 56.8981H170.278V89.3981C170.278 90.1852 169.583 90.9259 168.704 90.9259C167.824 90.9259 167.13 90.1389 167.13 89.3981V56.8981H159.213C158.333 56.8981 157.685 56.2037 157.685 55.3241C157.685 54.537 158.333 53.75 159.213 53.75H167.13V41.9907C167.13 41.1111 167.824 40.463 168.704 40.463C169.583 40.463 170.278 41.1111 170.278 41.9907V53.75H178.519Z" fill="white"/>
<path d="M228.611 69.537V89.1666C228.611 90.0463 228.102 90.6944 227.315 90.6944C226.435 90.6944 226.019 90.0463 226.019 89.1666V69.537C226.019 62.9167 222.176 56.2963 214.769 56.2963C205.278 56.2963 201.065 64.5833 201.574 73.0555C201.574 73.287 201.528 74.2592 201.528 74.3981V89.1666C201.528 90.0463 201.111 90.6944 200.231 90.6944C199.352 90.6944 198.935 90.0463 198.935 89.1666V24.6759C198.935 23.8889 199.352 23.1481 200.231 23.1481C201.111 23.1481 201.528 23.9352 201.528 24.6759V61.1574C204.676 56.4352 208.889 53.2407 214.398 53.2407C223.426 53.2407 228.611 61.1574 228.611 69.537Z" fill="white"/>
<path d="M284.074 72.4074C284.074 73.287 283.287 74.0741 282.407 74.0741H251.667C252.454 81.3889 258.148 88.5185 266.204 88.5185C271.713 88.5185 275.787 86.3889 278.889 81.9444C279.213 81.4815 279.676 81.1574 280.232 81.1574C281.111 81.1574 281.759 81.8055 281.759 82.6852C281.759 83.0092 281.667 83.2407 281.528 83.4722C278.426 88.8889 272.269 91.5278 266.204 91.5278C255.833 91.5278 248.472 82.2685 248.472 72.3611C248.472 62.4537 255.833 53.2407 266.204 53.2407C276.574 53.2407 284.074 62.5 284.074 72.4074ZM280.787 70.9259C280.139 63.1018 274.306 56.3889 266.25 56.3889C258.194 56.3889 252.454 63.1018 251.713 70.9259H280.787Z" fill="white"/>
<path d="M321.898 55.3241C321.898 56.2963 321.343 56.8518 320.417 56.9907C311.389 58.3333 307.269 65.6944 307.269 74.3055V89.0278C307.269 89.9074 306.574 90.5555 305.694 90.5555C304.815 90.5555 304.12 89.9074 304.12 89.0278V55.4167C304.12 54.537 304.815 53.8889 305.694 53.8889C306.574 53.8889 307.269 54.537 307.269 55.4167V62.2685C309.861 57.9629 314.907 53.8889 320.185 53.8889C320.972 53.8889 321.898 54.4444 321.898 55.3241Z" fill="white"/>
<path d="M372.454 72.4074C372.454 73.287 371.667 74.074 370.787 74.074H340.046C340.833 81.3889 346.528 88.5185 354.583 88.5185C360.093 88.5185 364.167 86.3889 367.269 81.9444C367.593 81.4815 368.056 81.1574 368.611 81.1574C369.491 81.1574 370.139 81.8055 370.139 82.6851C370.139 83.0092 370.046 83.2407 369.907 83.4722C366.806 88.8889 360.648 91.5278 354.583 91.5278C344.213 91.5278 336.852 82.2685 336.852 72.3611C336.852 62.4537 344.213 53.2407 354.583 53.2407C364.954 53.1944 372.454 62.5 372.454 72.4074ZM369.167 70.9259C368.519 63.1018 362.685 56.3889 354.63 56.3889C346.574 56.3889 340.833 63.1018 340.093 70.9259H369.167Z" fill="white"/>
<path d="M422.407 55.6481V66.3426V89.3518C422.407 90.2315 421.62 90.8796 420.833 90.8796C419.954 90.8796 419.259 90.2315 419.259 89.3518V83.0092C416.667 88.0555 412.176 91.7129 406.435 91.7129C397.269 91.7129 392.176 83.7963 392.176 75.4166V55.6944C392.176 54.9074 392.87 54.1667 393.75 54.1667C394.63 54.1667 395.324 54.9537 395.324 55.6944V75.4166C395.324 82.037 399.074 88.6574 406.481 88.6574C416.852 88.6574 419.306 78.9815 419.306 68.287V55.7407C419.306 54.9537 420 54.2129 420.88 54.2129C421.62 54.1203 422.407 54.9074 422.407 55.6481Z" fill="white"/>
<path d="M500 69.4444V89.1666C500 90.0463 499.213 90.6944 498.426 90.6944C497.546 90.6944 496.852 90.0463 496.852 89.1666V69.4444C496.852 62.8241 493.102 56.3426 485.694 56.3426C476.435 56.3426 472.87 66.25 472.87 73.9815V89.1666C472.87 90.0463 472.083 90.6944 471.296 90.6944C470.417 90.6944 469.722 90.0463 469.722 89.1666V69.4444C469.722 62.8241 466.065 56.3426 458.704 56.3426C449.352 56.3426 445.463 63.7037 445.787 73.5185V74.3055V89.1666C445.787 90.0463 445.093 90.6944 444.213 90.6944C443.333 90.6944 442.639 90.0463 442.639 89.1666V55.4629C442.639 54.5833 443.333 53.9352 444.213 53.9352C445.093 53.9352 445.787 54.5833 445.787 55.4629V61.0648C448.38 56.3426 453.241 53.2407 458.75 53.2407C465.046 53.2407 469.907 57.2222 471.898 63.0555C474.444 57.3148 479.398 53.2407 485.787 53.2407C494.861 53.2407 500 61.0648 500 69.4444Z" fill="white"/>
<path d="M38.4259 0L0 63.7963L38.4259 46.3426V0Z" fill="white"/>
<path d="M39 46.4394L0 63.8127L39 86.4394V46.4394Z" fill="white"/>
<path d="M77 63.4394L39 0.439392V46.2035L77 63.4394Z" fill="white"/>
<path d="M39 86.4394L77 63.8127L39 46.4394V86.4394Z" fill="white"/>
<path d="M0 71.4394L39 125.439V94.0548L0 71.4394Z" fill="white"/>
<path d="M39 94.0548V125.439L77 71.4394L39 94.0548Z" fill="white"/>
</svg>
