<svg width="182" height="32" viewBox="0 0 182 32" fill="none" xmlns="http://www.w3.org/2000/svg">
<path d="M65.2891 27.5984H70.8782V9.58905H75.9759V4.43262H60.1914V9.58905H65.2891V27.5984Z" fill="#FFFFFF"/>
<path d="M41.2298 19.1354C40.8408 21.5404 38.6297 23.2138 35.8545 23.2138C32.2426 23.2138 29.3048 20.0396 29.3048 16.1388C29.3048 12.0042 32.1375 9.00261 36.0396 9.00261C38.2069 9.00261 40.0116 9.9531 41.4024 11.8266L46.3274 9.25774C44.03 5.86597 40.3568 4 35.977 4C32.5653 4 29.4299 5.19187 27.1474 7.358C24.8137 9.5704 23.5293 12.6783 23.5293 16.1088C23.5293 19.5393 24.8012 22.4959 27.1124 24.682C29.3736 26.8219 32.4564 28.0013 35.7919 28.0013C43.0132 28.0013 47.498 23.29 47.498 15.7073V14.7819H36.3485V19.0428H41.2298V19.1366V19.1354Z" fill="#FFFFFF"/>
<path d="M57.1321 4.43262H51.543V27.5984H57.1321V4.43262Z" fill="#FFFFFF"/>
<path d="M132.056 4.43262H126.467V27.5984H132.056V4.43262Z" fill="#FFFFFF"/>
<path d="M153.633 19.1315L141.861 4.43262H137.197V27.5984H142.694L142.6 12.8082L154.37 27.5984H158.911V4.43262H153.446L153.633 19.1315Z" fill="#FFFFFF"/>
<path d="M94.5325 10.9849C95.094 9.22896 95.9507 7.59436 97.08 6.12359C95.004 4.75413 92.5489 4.03125 89.9751 4.03125C82.9777 4.03125 77.4961 9.28148 77.4961 15.985C77.4961 22.6885 82.8214 28 89.8825 28C92.4877 28 94.9614 27.2934 97.04 25.9552C95.9232 24.4844 95.0765 22.8398 94.5225 21.0626C93.2968 22.2107 91.6535 22.8423 89.8825 22.8423C88.1116 22.8423 86.4608 22.1657 85.2314 20.9363C83.967 19.6719 83.2703 17.9247 83.2703 16.015C83.2703 12.1867 86.2019 9.18769 89.9438 9.18769C91.6922 9.18769 93.3168 9.82552 94.5312 10.9849H94.5325Z" fill="#FFFFFF"/>
<path d="M119.123 7.43427C116.805 5.23938 113.695 4.03125 110.366 4.03125C106.18 4.03125 102.308 5.97476 100.008 9.23146C98.6209 11.1962 97.8867 13.5324 97.8867 15.985C97.8867 18.4375 98.6158 20.9175 99.9953 22.8836C102.243 26.0877 106.085 28 110.273 28C113.647 28 116.783 26.8144 119.1 24.6607C121.475 22.4546 122.783 19.3955 122.783 16.0463C122.783 12.697 121.484 9.67044 119.123 7.43427ZM110.273 22.8423C108.504 22.8423 106.851 22.1657 105.622 20.9363C104.358 19.6719 103.661 17.9247 103.661 16.015C103.661 12.1867 106.593 9.18769 110.334 9.18769C114.076 9.18769 117.008 12.1367 117.008 16.0463C117.008 19.9558 114.113 22.8423 110.273 22.8423Z" fill="#FFFFFF"/>
</svg>
