<svg width="181" height="32" viewBox="0 0 181 32" fill="none" xmlns="http://www.w3.org/2000/svg">
<g clip-path="url(#clip0_1560_372362)">
<mask id="mask0_1560_372362" style="mask-type:luminance" maskUnits="userSpaceOnUse" x="0" y="0" width="181" height="32">
<path d="M180.763 0H0.0390625V32H180.763V0Z" fill="white"/>
</mask>
<g mask="url(#mask0_1560_372362)">
<path d="M12.8298 6.43342V25.5359H6.50293V6.43342H12.8298L6.57607 0.179688H0.21875V19.2517L12.7536 31.7866H19.1109V12.7146L12.8298 6.43342Z" fill="#FFFFFF"/>
<path d="M29.3564 12.7236H27.0859V25.4627H29.3564V12.7236Z" fill="#FFFFFF"/>
<path d="M32.1641 12.7236H34.7302L40.5999 20.7907H40.9138V12.7236H43.2025V25.4627H40.6182L34.7667 17.3956H34.4345V25.4627H32.1641V12.7236Z" fill="#FFFFFF"/>
<path d="M57.5102 19.0932C57.5102 22.729 54.7217 25.4627 51.0127 25.4627H45.9902V12.7236H51.0127C54.7217 12.7236 57.5102 15.4665 57.5102 19.0932ZM55.1666 19.0932C55.1666 17.0452 53.3563 15.5122 50.9365 15.5122H48.2607V22.6741H50.9335C53.3533 22.6741 55.1636 21.1503 55.1636 19.0932" fill="#FFFFFF"/>
<path d="M68.9951 22.6741V25.4627H59.709V12.7236H68.9037V15.5122H61.9795V17.7095H68.2941V20.4036H61.9795V22.6741H68.9951Z" fill="#FFFFFF"/>
<path d="M78.1162 19.1297L82.3616 25.4627H79.7041L76.565 20.9766H76.1201L73.0023 25.4627H70.1406L74.4774 18.9987L70.3052 12.7236H72.9658L76.0286 17.1732H76.4553L79.5182 12.7236H82.3799L78.1162 19.1297Z" fill="#FFFFFF"/>
<path d="M83.3203 19.1023C83.3203 18.0874 84.2041 17.292 85.3683 17.292C86.5325 17.292 87.4163 18.0874 87.4163 19.1023C87.4163 20.1171 86.5477 20.8912 85.3683 20.8912C84.1889 20.8912 83.3203 20.1171 83.3203 19.1023Z" fill="#FFFFFF"/>
<path d="M121.127 13.0244H118.896V25.5389H121.127V13.0244Z" fill="#FFFFFF"/>
<path d="M124.991 15.8474V12.7998H115.238V15.8474H124.991Z" fill="#FFFFFF"/>
<path d="M90.8574 12.7998H93.4235L99.2932 20.8669H99.6071V12.7998H101.896V25.5389H99.3115L93.4601 17.4718H93.1279V25.5389H90.8574V12.7998Z" fill="#FFFFFF"/>
<path d="M114.163 22.7503V25.5389H104.877V12.7998H114.072V15.5884H107.147V17.7857H113.462V20.4798H107.147V22.7503H114.163Z" fill="#FFFFFF"/>
<path d="M129.51 25.5389L125.906 12.7998H128.816L130.81 20.9133H131.095L133.305 12.7998H135.796L138.002 20.9133H138.292L140.286 12.7998H143.195L139.591 25.5389H136.995L134.597 17.21H134.498L132.106 25.5389H129.51Z" fill="#FFFFFF"/>
<path d="M157.235 19.1693C157.235 20.5215 156.954 21.6719 156.392 22.6205C155.834 23.5691 155.072 24.2936 154.107 24.7941C153.146 25.2906 152.065 25.5389 150.866 25.5389C149.657 25.5389 148.572 25.2886 147.611 24.7881C146.65 24.2876 145.891 23.563 145.333 22.6144C144.775 21.6659 144.496 20.5175 144.496 19.1693C144.496 17.8171 144.775 16.6667 145.333 15.7182C145.891 14.7696 146.65 14.0471 147.611 13.5506C148.572 13.0501 149.657 12.7998 150.866 12.7998C152.065 12.7998 153.146 13.0501 154.107 13.5506C155.072 14.0471 155.834 14.7696 156.392 15.7182C156.954 16.6667 157.235 17.8171 157.235 19.1693ZM154.319 19.1693C154.319 18.2934 154.175 17.5548 153.888 16.9533C153.604 16.3519 153.203 15.8958 152.685 15.585C152.168 15.2741 151.561 15.1187 150.866 15.1187C150.17 15.1187 149.564 15.2741 149.046 15.585C148.528 15.8958 148.125 16.3519 147.837 16.9533C147.553 17.5548 147.412 18.2934 147.412 19.1693C147.412 20.0452 147.553 20.7839 147.837 21.3853C148.125 21.9868 148.528 22.4429 149.046 22.7537C149.564 23.0645 150.17 23.2199 150.866 23.2199C151.561 23.2199 152.168 23.0645 152.685 22.7537C153.203 22.4429 153.604 21.9868 153.888 21.3853C154.175 20.7839 154.319 20.0452 154.319 19.1693Z" fill="#FFFFFF"/>
<path d="M158.82 25.5389V12.7998H163.759C164.704 12.7998 165.511 12.9719 166.179 13.3161C166.852 13.6561 167.363 14.1392 167.714 14.7654C168.068 15.3874 168.245 16.1193 168.245 16.9611C168.245 17.8071 168.066 18.5349 167.707 19.1445C167.349 19.7499 166.829 20.2143 166.149 20.5378C165.472 20.8612 164.653 21.023 163.692 21.023H160.385V18.8583H163.264C163.769 18.8583 164.189 18.7878 164.523 18.6468C164.857 18.5058 165.106 18.2944 165.269 18.0124C165.436 17.7304 165.519 17.38 165.519 16.9611C165.519 16.5382 165.436 16.1815 165.269 15.8912C165.106 15.601 164.855 15.3812 164.517 15.2319C164.183 15.0785 163.761 15.0018 163.252 15.0018H161.467V25.5389H158.82ZM165.581 19.7416L168.692 25.5389H165.77L162.726 19.7416H165.581Z" fill="#FFFFFF"/>
<path d="M170.096 25.5389V12.7998H172.742V17.5901H173.09L177.131 12.7998H180.584L175.939 18.5038L180.639 25.5389H177.473L174.209 20.3014H173.952L172.742 21.9187V25.5389H170.096Z" fill="#FFFFFF"/>
</g>
</g>
<defs>
<clipPath id="clip0_1560_372362">
<rect width="180.724" height="32" fill="white" transform="translate(0.0390625)"/>
</clipPath>
</defs>
</svg>
