<svg width="175" height="32" viewBox="0 0 175 32" fill="none" xmlns="http://www.w3.org/2000/svg">
<path d="M71.3196 10.9661V14.3444H60.6758V2.75488H64.8138V10.9661H71.3196Z" fill="#FFFFFF"/>
<path d="M83.4436 11.3945V14.3444H72.6543V2.75488H83.3951V5.70475H76.7922V7.12715H83.0638V9.84275H76.7922V11.3945H83.4436Z" fill="#FFFFFF"/>
<path d="M98.3854 2.75488V14.3444H93.108L89.0348 7.03021V14.3444H85.3574V2.75488H90.8046L94.7244 9.93969V2.75488H98.3854Z" fill="#FFFFFF"/>
<path d="M105.845 14.6916C104.751 14.6916 103.724 14.5623 102.765 14.3038C101.812 14.0398 100.98 13.6895 100.268 13.2531V10.2547C101.001 10.7127 101.809 11.0764 102.693 11.3458C103.576 11.6098 104.473 11.7418 105.384 11.7418C106.041 11.7418 106.529 11.6826 106.847 11.564C107.165 11.4455 107.324 11.2568 107.324 10.9983C107.324 10.7719 107.214 10.5915 106.992 10.4567C106.772 10.322 106.379 10.2062 105.812 10.1092L104.164 9.81016C102.789 9.56229 101.782 9.13936 101.141 8.54136C100.505 7.94323 100.188 7.15122 100.188 6.16522C100.188 5.41629 100.406 4.76176 100.842 4.20136C101.284 3.63562 101.947 3.19656 102.831 2.88402C103.719 2.56616 104.813 2.40723 106.112 2.40723C107.221 2.40723 108.177 2.5203 108.98 2.74656C109.788 2.97296 110.455 3.24775 110.977 3.57095V6.44816C110.487 6.17336 109.861 5.93629 109.101 5.73696C108.348 5.53763 107.528 5.43789 106.645 5.43789C105.223 5.43789 104.511 5.66962 104.511 6.13296C104.511 6.26229 104.549 6.37002 104.624 6.45616C104.705 6.53709 104.843 6.60709 105.036 6.66629C105.231 6.72562 105.508 6.77949 105.869 6.82802L107.72 7.12695C108.631 7.27789 109.373 7.50149 109.951 7.79776C110.527 8.08869 110.957 8.47402 111.244 8.95349C111.529 9.42762 111.672 10.015 111.672 10.7154C111.672 11.5128 111.429 12.2132 110.944 12.8167C110.465 13.4147 109.783 13.878 108.9 14.2067C108.022 14.53 107.003 14.6916 105.845 14.6916Z" fill="#FFFFFF"/>
<path d="M68.685 18.1875C69.6871 18.1875 70.5303 18.3652 71.2146 18.7208C71.9043 19.0711 72.4215 19.5668 72.7663 20.2079C73.1166 20.8491 73.2916 21.6007 73.2916 22.4628C73.2916 23.3142 73.0923 24.0658 72.6936 24.7176C72.3003 25.3642 71.7103 25.8707 70.9236 26.2371C70.137 26.598 69.1779 26.7786 68.0464 26.7786H64.8138V29.7931H60.6758V18.1875H68.685ZM66.9635 24.1519C67.637 24.1519 68.1515 24.0146 68.5071 23.7398C68.8682 23.4596 69.0487 23.0716 69.0487 22.5759C69.0487 22.0964 68.887 21.7247 68.5638 21.4607C68.2459 21.1912 67.7906 21.0566 67.1979 21.0566H64.8138V24.1519H66.9635Z" fill="#FFFFFF"/>
<path d="M82.5693 29.7926L78.8275 25.0405V29.7926H74.6895V18.2031H82.8523C83.7573 18.2031 84.5467 18.3647 85.2203 18.6881C85.8937 19.0114 86.4109 19.4693 86.772 20.0619C87.1382 20.6493 87.3215 21.3335 87.3215 22.1147C87.3215 22.7937 87.1841 23.4025 86.9093 23.9413C86.6345 24.4747 86.2467 24.903 85.7456 25.2263C85.2444 25.5442 84.6625 25.7301 83.9998 25.7839L87.4347 29.7926H82.5693ZM81.1631 23.8201C81.772 23.8201 82.2353 23.7015 82.5532 23.4645C82.871 23.2274 83.03 22.8826 83.03 22.4299C83.03 21.999 82.8818 21.673 82.5854 21.4521C82.2945 21.2311 81.8581 21.1207 81.2763 21.1207H78.8275V23.8201H81.1631Z" fill="#FFFFFF"/>
<path d="M95.9779 30.1724C94.4747 30.1724 93.1519 29.895 92.0098 29.34C90.8675 28.785 89.9866 28.0334 89.367 27.0851C88.7474 26.1368 88.4375 25.0862 88.4375 23.9332C88.4375 22.7586 88.7446 21.7107 89.3588 20.7894C89.9784 19.8626 90.8594 19.1379 92.0016 18.6152C93.1439 18.0872 94.4747 17.8232 95.994 17.8232C97.5027 17.8232 98.8255 18.0872 99.9623 18.6152C101.105 19.1379 101.983 19.8626 102.597 20.7894C103.217 21.7107 103.527 22.7586 103.527 23.9332C103.527 25.0916 103.215 26.145 102.589 27.0932C101.969 28.0415 101.088 28.7931 99.9462 29.348C98.8039 29.8976 97.4811 30.1724 95.9779 30.1724ZM95.9779 26.8103C96.5975 26.8103 97.1418 26.6918 97.6104 26.4547C98.0792 26.2123 98.4402 25.8755 98.6935 25.4444C98.9467 25.0135 99.0732 24.5204 99.0732 23.9655C99.0732 23.4159 98.9467 22.931 98.6935 22.5108C98.4402 22.0906 98.0792 21.7646 97.6104 21.5328C97.1418 21.3012 96.5975 21.1854 95.9779 21.1854C95.353 21.1854 94.806 21.3012 94.3372 21.5328C93.8686 21.7646 93.5048 22.0906 93.2463 22.5108C92.993 22.931 92.8664 23.4159 92.8664 23.9655C92.8664 24.5204 92.993 25.0135 93.2463 25.4444C93.5048 25.8755 93.8686 26.2123 94.3372 26.4547C94.806 26.6918 95.353 26.8103 95.9779 26.8103Z" fill="#FFFFFF"/>
<path d="M116.126 21.4682H112.182V29.7926H108.043V21.4682H104.027V18.2031H116.126V21.4682Z" fill="#FFFFFF"/>
<path d="M124.151 30.1724C122.647 30.1724 121.324 29.895 120.181 29.34C119.04 28.785 118.159 28.0334 117.539 27.0851C116.92 26.1368 116.609 25.0862 116.609 23.9332C116.609 22.7586 116.917 21.7107 117.531 20.7894C118.151 19.8626 119.032 19.1379 120.173 18.6152C121.316 18.0872 122.647 17.8232 124.167 17.8232C125.675 17.8232 126.997 18.0872 128.135 18.6152C129.277 19.1379 130.155 19.8626 130.769 20.7894C131.389 21.7107 131.699 22.7586 131.699 23.9332C131.699 25.0916 131.387 26.145 130.761 27.0932C130.141 28.0415 129.26 28.7931 128.119 29.348C126.976 29.8976 125.653 30.1724 124.151 30.1724ZM124.151 26.8103C124.769 26.8103 125.313 26.6918 125.783 26.4547C126.252 26.2123 126.612 25.8755 126.865 25.4444C127.119 25.0135 127.245 24.5204 127.245 23.9655C127.245 23.4159 127.119 22.931 126.865 22.5108C126.612 22.0906 126.252 21.7646 125.783 21.5328C125.313 21.3012 124.769 21.1854 124.151 21.1854C123.525 21.1854 122.979 21.3012 122.509 21.5328C122.041 21.7646 121.677 22.0906 121.419 22.5108C121.165 22.931 121.039 23.4159 121.039 23.9655C121.039 24.5204 121.165 25.0135 121.419 25.4444C121.677 25.8755 122.041 26.2123 122.509 26.4547C122.979 26.6918 123.525 26.8103 124.151 26.8103Z" fill="#FFFFFF"/>
<path d="M140.331 30.1724C138.757 30.1724 137.399 29.9084 136.257 29.3804C135.12 28.847 134.255 28.1196 133.663 27.1983C133.069 26.2715 132.773 25.2263 132.773 24.0624C132.773 22.8826 133.075 21.8211 133.679 20.8782C134.283 19.9299 135.163 19.1838 136.321 18.6395C137.48 18.0954 138.856 17.8232 140.452 17.8232C141.427 17.8232 142.319 17.9203 143.127 18.1142C143.94 18.3082 144.713 18.5883 145.445 18.9547V22.3734C144.977 22.0447 144.389 21.778 143.684 21.5732C142.984 21.3686 142.237 21.2662 141.445 21.2662C140.577 21.2662 139.832 21.3794 139.207 21.6056C138.581 21.8319 138.105 22.1498 137.776 22.5592C137.453 22.9634 137.292 23.4322 137.292 23.9655C137.292 24.5043 137.456 24.9811 137.784 25.396C138.119 25.8055 138.597 26.126 139.223 26.3578C139.848 26.584 140.589 26.6972 141.445 26.6972C142.264 26.6972 143.027 26.5894 143.732 26.3739C144.439 26.153 145.02 25.8594 145.479 25.493V28.8308C144.687 29.2942 143.887 29.6336 143.077 29.8491C142.275 30.0647 141.359 30.1724 140.331 30.1724Z" fill="#FFFFFF"/>
<path d="M154.329 30.1724C152.826 30.1724 151.504 29.895 150.361 29.34C149.218 28.785 148.337 28.0334 147.718 27.0851C147.098 26.1368 146.789 25.0862 146.789 23.9332C146.789 22.7586 147.096 21.7107 147.71 20.7894C148.329 19.8626 149.21 19.1379 150.353 18.6152C151.494 18.0872 152.826 17.8232 154.345 17.8232C155.854 17.8232 157.177 18.0872 158.313 18.6152C159.456 19.1379 160.334 19.8626 160.948 20.7894C161.568 21.7107 161.877 22.7586 161.877 23.9332C161.877 25.0916 161.565 26.145 160.94 27.0932C160.321 28.0415 159.44 28.7931 158.297 29.348C157.154 29.8976 155.832 30.1724 154.329 30.1724ZM154.329 26.8103C154.949 26.8103 155.493 26.6918 155.961 26.4547C156.43 26.2123 156.792 25.8755 157.045 25.4444C157.298 25.0135 157.425 24.5204 157.425 23.9655C157.425 23.4159 157.298 22.931 157.045 22.5108C156.792 22.0906 156.43 21.7646 155.961 21.5328C155.493 21.3012 154.949 21.1854 154.329 21.1854C153.704 21.1854 153.157 21.3012 152.689 21.5328C152.22 21.7646 151.856 22.0906 151.597 22.5108C151.344 22.931 151.217 23.4159 151.217 23.9655C151.217 24.5204 151.344 25.0135 151.597 25.4444C151.856 25.8755 152.22 26.2123 152.689 26.4547C153.157 26.6918 153.704 26.8103 154.329 26.8103Z" fill="#FFFFFF"/>
<path d="M174.154 26.4143V29.7926H163.51V18.2031H167.647V26.4143H174.154Z" fill="#FFFFFF"/>
<path fill-rule="evenodd" clip-rule="evenodd" d="M34.9432 8.4248C37.0235 6.69694 39.3448 6.03946 41.571 6.2056C43.9456 6.38293 46.1431 7.49094 47.7842 9.10027C49.4254 10.7097 50.5528 12.8625 50.7332 15.1857C50.9154 17.5303 50.1268 19.9857 48.0476 22.1409C47.8575 22.3392 47.6631 22.5352 47.4647 22.7287C38.0344 31.9756 25.5076 32 25.3795 32C25.3155 32 12.7483 31.9995 3.29349 22.7273L3.29135 22.7253C3.09615 22.5327 2.90402 22.3389 2.71468 22.1439L2.71308 22.1423C0.632952 19.9891 -0.156381 17.5341 0.0252186 15.1896C0.205085 12.8668 1.33175 10.7137 2.97242 9.10373C4.61308 7.49373 6.81029 6.38493 9.18535 6.20693C11.4114 6.04 13.7331 6.69667 15.8147 8.42374C16.0384 5.75987 17.2047 3.68666 18.8974 2.26146C20.7028 0.741331 23.0556 0 25.3788 0C27.7022 0 30.055 0.741331 31.8603 2.26146C33.5534 3.68693 34.7196 5.76054 34.9432 8.4248ZM32.4636 18.2223C32.2057 18.2223 32.1164 18.5877 32.281 18.7812C32.5724 19.1241 32.7476 19.5652 32.7476 20.0464C32.7476 21.1384 31.8451 22.0236 30.7316 22.0236C29.6181 22.0236 28.7155 21.1384 28.7155 20.0464C28.7155 19.988 28.6378 19.9589 28.6027 20.0063C28.2847 20.4345 28.07 20.9153 27.9818 21.4203C27.9322 21.7045 27.6966 21.94 27.4004 21.94H27.237C26.8504 21.94 26.5316 21.6328 26.5887 21.2605C26.9796 18.7095 29.5435 16.8593 32.4636 16.8593C35.3839 16.8593 37.9476 18.7095 38.3387 21.2605C38.3956 21.6328 38.0768 21.94 37.6904 21.94C37.304 21.94 36.998 21.6313 36.914 21.2639C36.5318 19.5917 34.7599 18.2223 32.4636 18.2223ZM14.5607 20.0464C14.5607 19.9693 14.4588 19.928 14.411 19.9893C14.071 20.4243 13.8394 20.9169 13.7414 21.4361C13.6835 21.7428 13.4291 21.9976 13.109 21.9976H12.989C12.6026 21.9976 12.2838 21.6904 12.3407 21.3181C12.7315 18.7657 15.2956 16.9168 18.2158 16.9168C21.1359 16.9168 23.7 18.7657 24.0907 21.3181C24.1478 21.6904 23.829 21.9976 23.4426 21.9976C23.0562 21.9976 22.7502 21.6888 22.6662 21.3215C22.2842 19.6483 20.5123 18.2799 18.2158 18.2799C18.007 18.2799 17.9306 18.5673 18.0703 18.7183C18.3951 19.0693 18.5928 19.5352 18.5928 20.0464C18.5928 21.1384 17.6903 22.0236 16.5768 22.0236C15.4634 22.0236 14.5607 21.1384 14.5607 20.0464ZM27.6216 24.8144C27.8948 24.5481 28.3168 24.4187 28.6559 24.5992C28.9951 24.7796 29.1238 25.1987 28.8794 25.4901C28.0834 26.4397 26.7947 27.0413 25.3735 27.0413C23.953 27.0413 22.6615 26.446 21.8644 25.4893C21.621 25.1971 21.7512 24.7784 22.091 24.5992C22.4307 24.4199 22.8522 24.5509 23.1248 24.8176C23.6502 25.3312 24.4474 25.6784 25.3735 25.6784C26.2971 25.6784 27.0952 25.3277 27.6216 24.8144Z" fill="#FFFFFF"/>
</svg>
