<svg width="400" height="81" viewBox="0 0 400 81" fill="none" xmlns="http://www.w3.org/2000/svg">
<g clip-path="url(#clip0_1_2)">
<mask id="mask0_1_2" style="mask-type:luminance" maskUnits="userSpaceOnUse" x="0" y="0" width="400" height="81">
<path d="M400 0H0V81H400V0Z" fill="white"/>
</mask>
<g mask="url(#mask0_1_2)">
<path d="M9.81888 52.9029V75.5658C9.81888 76.961 10.995 77.54 11.3609 77.6716C11.7267 77.8296 12.9551 78.1717 14.0527 77.1452L31.13 60.6693C32.5842 59.2664 33.9878 57.7917 35.0425 56.0662C35.539 55.255 35.7448 54.7981 35.7448 54.7981C36.7903 52.666 36.7903 50.6129 35.7707 48.5597C34.2554 45.5065 30.3871 42.4005 24.5587 39.4525L14.6016 45.0327C11.6484 46.7173 9.81888 49.6917 9.81888 52.9029Z" fill="white" fill-opacity="0.8"/>
<path d="M0 2.49648V26.265C0 29.2394 1.98628 31.8716 4.8089 32.7139C14.4265 35.5039 31.179 41.5052 35.23 50.323C35.7523 51.4812 36.066 52.6131 36.1713 53.7975C38.863 48.8754 40.0911 43.2161 39.5163 37.478C38.7319 29.3446 34.4456 21.9482 27.7555 17.2366L3.89415 0.469693C3.47594 0.153831 2.97939 -0.00410461 2.48284 -0.00410461C2.06464 -0.00410461 1.69875 0.0748632 1.30675 0.285438C0.522665 0.732906 0 1.5489 0 2.49648Z" fill="white"/>
<path d="M73.3351 52.9029V75.5658C73.3351 76.961 72.1595 77.54 71.7932 77.6716C71.4277 77.8296 70.1985 78.1717 69.1014 77.1452L51.6266 60.2861C50.4372 59.1383 49.3012 57.9245 48.4052 56.5334C47.6956 55.4325 47.4095 54.7981 47.4095 54.7981C46.364 52.666 46.364 50.6129 47.3827 48.5597C48.8989 45.5065 52.7672 42.4005 58.5945 39.4525L68.5524 45.0327C71.532 46.7173 73.3351 49.6917 73.3351 52.9029Z" fill="white" fill-opacity="0.8"/>
<path d="M83.1704 2.49501V26.2635C83.1704 29.2378 81.1836 31.87 78.3608 32.7122C68.7435 35.5024 51.9914 41.5038 47.9403 50.3215C47.4171 51.4797 47.1033 52.6116 46.9991 53.7961C44.3073 48.8739 43.0791 43.2148 43.654 37.4765C44.4374 29.3431 48.7238 21.9468 55.4149 17.2352L79.2763 0.468219C79.6942 0.152356 80.1907 -0.00556946 80.6872 -0.00556946C81.1051 -0.00556946 81.4715 0.073398 81.8627 0.283972C82.6472 0.731441 83.1704 1.54742 83.1704 2.49501Z" fill="white"/>
<path d="M123.651 7.63136H132.786L153.957 56.7909H154.584L175.755 7.63136H184.732V64.3085H178.067V19.2029H177.44L158.034 64.3085H150.35L130.943 19.2029H130.316V64.3085H123.651V7.63136Z" fill="white"/>
<path d="M192.093 44.2747C192.093 30.7352 200.287 23.2569 212.441 23.2569C224.555 23.2569 232.787 30.7352 232.787 44.2747C232.787 57.7749 224.555 65.2531 212.441 65.2531C200.287 65.2531 192.093 57.7749 192.093 44.2747ZM199.072 44.2747C199.072 54.1932 204.443 59.5854 212.441 59.5854C220.399 59.5854 225.77 54.1932 225.77 44.2747C225.77 34.3168 220.399 28.964 212.441 28.964C204.443 28.964 199.072 34.3168 199.072 44.2747Z" fill="white"/>
<path d="M239.377 24.2015H246.042V29.0034H246.669C248.042 26.1695 250.551 24.0441 256.549 24.0441H262.116V30.0267H256.706C249.218 30.0267 246.277 34.1594 246.277 42.3068V64.3085H239.377V24.2015Z" fill="white"/>
<path d="M267.424 80.0522V24.2015H274.167V29.7512H274.794C277.774 25.1068 282.635 23.2963 288.281 23.2963C298.669 23.2963 306.628 30.3809 306.628 44.2747C306.628 58.1291 298.669 65.2138 288.281 65.2138C282.752 65.2138 277.931 63.4426 274.951 58.995H274.324V80.0522H267.424ZM274.089 44.2747C274.089 53.9964 279.264 59.4674 286.869 59.4674C294.514 59.4674 299.69 53.9964 299.69 44.2747C299.69 34.5136 294.514 29.0427 286.869 29.0427C279.264 29.0427 274.089 34.5136 274.089 44.2747Z" fill="white"/>
<path d="M313.235 7.63136H320.135V29.1608H320.762C323.624 24.91 328.368 23.2963 333.974 23.2963C343.266 23.2963 349.147 28.0194 349.147 37.8198V64.3085H342.247V38.4889C342.247 31.9553 338.678 29.0821 332.445 29.0821C325.624 29.0821 320.135 33.1361 320.135 41.9132V64.3085H313.235V7.63136Z" fill="white"/>
<path d="M355.353 44.2747C355.353 30.7352 363.547 23.2569 375.7 23.2569C387.815 23.2569 396.048 30.7352 396.048 44.2747C396.048 57.7749 387.815 65.2531 375.7 65.2531C363.547 65.2531 355.353 57.7749 355.353 44.2747ZM362.332 44.2747C362.332 54.1932 367.702 59.5854 375.7 59.5854C383.659 59.5854 389.03 54.1932 389.03 44.2747C389.03 34.3168 383.659 28.964 375.7 28.964C367.702 28.964 362.332 34.3168 362.332 44.2747Z" fill="white"/>
</g>
</g>
<defs>
<clipPath id="clip0_1_2">
<rect width="400" height="81" fill="white"/>
</clipPath>
</defs>
</svg>
