<svg width="121" height="32" viewBox="0 0 121 32" fill="none" xmlns="http://www.w3.org/2000/svg">
<path fill-rule="evenodd" clip-rule="evenodd" d="M20.7641 0.567813V1.48504L20.7679 1.48693C20.7679 1.74603 20.643 1.95973 20.2532 2.0089C15.135 2.27681 11.0454 6.36433 10.7774 11.48C10.7583 11.7713 10.515 11.997 10.223 11.9944H9.27691C9.1424 12.0012 9.01104 11.9523 8.91368 11.8593C8.81632 11.7663 8.76156 11.6373 8.76224 11.5027C9.01698 5.29564 13.966 0.307317 20.1738 0.000454614C20.3282 -0.00572498 20.4785 0.0513107 20.5899 0.158388C20.7013 0.265466 20.7643 0.413324 20.7641 0.567813ZM13.2277 12.0039H12.3308L12.3252 12.002C12.1719 11.9986 12.0265 11.9334 11.9221 11.8212C11.8176 11.709 11.7631 11.5593 11.7708 11.4062C12.0701 6.90092 15.6604 3.31319 20.1681 3.01502C20.3212 3.00732 20.471 3.06186 20.5832 3.16623C20.6955 3.2706 20.7607 3.41593 20.7641 3.56914V4.48258C20.7804 4.75676 20.5728 4.99291 20.2987 5.01212C16.8093 5.24228 14.025 8.01066 13.7764 11.497C13.7546 11.7836 13.5152 12.0047 13.2277 12.0039ZM20.7641 7.49904V6.58181C20.7647 6.42628 20.6998 6.27767 20.5854 6.17228C20.471 6.06689 20.3175 6.01442 20.1624 6.02769C17.3215 6.3142 15.0745 8.55925 14.7868 11.3987C14.7547 11.7221 15.0139 12.002 15.4453 12.002H16.2381C16.5204 11.9966 16.7558 11.7847 16.7906 11.5046C17.0197 9.68388 18.4574 8.25163 20.2797 8.02857C20.5528 8.00155 20.7616 7.77327 20.7641 7.49904ZM30.7584 19.4665C30.8076 19.8561 31.0214 19.9809 31.2807 19.9809L32.204 19.9715C32.357 19.9686 32.5023 19.9041 32.607 19.7926C32.7117 19.6812 32.767 19.5323 32.7603 19.3795C32.4532 13.1741 27.4613 8.22738 21.2504 7.97372C21.1157 7.97304 20.9867 8.02778 20.8936 8.12509C20.8006 8.22239 20.7517 8.35369 20.7585 8.48813V9.43373C20.7558 9.72563 20.9817 9.9688 21.2731 9.98785C26.3978 10.2514 30.4937 14.3445 30.7584 19.4665ZM20.9457 11.1445C20.833 11.2489 20.7675 11.3945 20.7641 11.5481L20.766 12.4464C20.7652 12.7338 20.9864 12.9731 21.2731 12.9949C24.7592 13.2439 27.5274 16.0245 27.7594 19.51C27.7756 19.7863 28.0128 19.9971 28.2892 19.9809H29.2031C29.3567 19.9776 29.5024 19.9121 29.6069 19.7995C29.7114 19.6868 29.7657 19.5367 29.7575 19.3833C29.4574 14.8794 25.8683 11.2929 21.362 10.994C21.2086 10.9857 21.0584 11.04 20.9457 11.1445ZM25.2674 19.979H26.187L26.1851 19.9809C26.3407 19.9815 26.4894 19.9167 26.5949 19.8023C26.7003 19.6879 26.7528 19.5345 26.7395 19.3795C26.4519 16.5401 24.2049 14.295 21.3639 14.0085C21.2086 13.9947 21.0546 14.0469 20.9397 14.1524C20.8248 14.2578 20.7597 14.4068 20.7603 14.5627V15.4553C20.7657 15.7375 20.9778 15.9728 21.258 16.0075C23.0803 16.2357 24.5143 17.6728 24.7376 19.4949C24.7647 19.7678 24.9931 19.9765 25.2674 19.979ZM2.75847 12.5145C2.70927 12.1249 2.49546 12.0001 2.23624 12.0001L1.31855 12.0095C1.16562 12.0125 1.02034 12.0769 0.915617 12.1884C0.810897 12.2998 0.755601 12.4487 0.762257 12.6015C1.06935 18.8069 6.06126 23.7536 12.2722 24.0073C12.4069 24.008 12.5359 23.9532 12.6289 23.8559C12.722 23.7586 12.7709 23.6273 12.7641 23.4929V22.5473C12.7668 22.2554 12.5409 22.0122 12.2495 21.9932C7.12258 21.7324 3.02345 17.6386 2.75847 12.5145ZM12.5769 20.829C12.6896 20.7245 12.7551 20.5789 12.7585 20.4254L12.7566 19.5346C12.7574 19.2472 12.5362 19.008 12.2495 18.9862C8.7635 18.736 5.99604 15.9547 5.76509 12.4691C5.74885 12.1929 5.51168 11.9821 5.23529 11.9982H4.32138C4.16775 12.0016 4.02205 12.067 3.91757 12.1797C3.81308 12.2923 3.75875 12.4424 3.76698 12.5958C4.06973 17.0968 7.65704 20.6799 12.1605 20.9795C12.314 20.9877 12.4642 20.9334 12.5769 20.829ZM8.24758 12.0001H7.32989C7.17601 12.0007 7.02931 12.0652 6.92489 12.1782C6.82047 12.2912 6.76772 12.4424 6.77928 12.5958C7.06694 15.4352 9.31391 17.6803 12.1549 17.9668C12.3086 17.9794 12.4607 17.9275 12.5745 17.8234C12.6883 17.7193 12.7536 17.5725 12.7547 17.4184V16.5238C12.7493 16.2417 12.5372 16.0063 12.257 15.9716C10.4347 15.7434 9.00074 14.3063 8.77739 12.4842C8.75035 12.2113 8.52195 12.0026 8.24758 12.0001ZM13.2712 29.9986C12.8814 30.0477 12.7566 30.2615 12.7566 30.5205L12.766 31.4435C12.7689 31.5963 12.8335 31.7415 12.9449 31.8462C13.0508 31.9456 13.1905 32.0004 13.3351 32C13.3441 32 13.3531 31.9999 13.3621 31.9995C19.5706 31.6935 24.5207 26.705 24.7755 20.4972C24.7762 20.3626 24.7214 20.2336 24.624 20.1406C24.5322 20.0529 24.41 20.0044 24.2835 20.0049C24.2747 20.0049 24.2659 20.0051 24.257 20.0055H23.3147C23.3124 20.0055 23.3101 20.0055 23.3078 20.0055C23.0172 20.0045 22.7755 20.2297 22.7566 20.5199C22.4918 25.642 18.3959 29.735 13.2712 29.9986ZM21.194 20.0036C21.1939 20.0036 21.1938 20.0036 21.1936 20.0036L20.2987 20.0055H20.2949C20.0074 20.0047 19.768 20.2258 19.7462 20.5123C19.4959 23.9966 16.7131 26.7626 13.2258 26.9935C12.9494 27.0097 12.7385 27.2468 12.7547 27.523V28.4365C12.758 28.59 12.8236 28.7356 12.9362 28.8401C13.0419 28.938 13.1806 28.9919 13.3241 28.9914C13.3348 28.9914 13.3456 28.9912 13.3564 28.9906C17.8626 28.6916 21.4517 25.1052 21.7518 20.6012C21.7601 20.4479 21.7057 20.2977 21.6012 20.1851C21.4968 20.0725 21.3511 20.007 21.1974 20.0036L21.194 20.0036ZM13.2447 23.977C12.9717 24.004 12.7629 24.2323 12.7603 24.5065V25.4238C12.7598 25.5793 12.8246 25.7279 12.9391 25.8333C13.0535 25.9387 13.207 25.9912 13.3621 25.9779C16.203 25.6914 18.45 23.4463 18.7376 20.6069C18.7698 20.2835 18.5106 20.0036 18.0792 20.0036H17.2864C17.0041 20.009 16.7686 20.2209 16.7339 20.501C16.5048 22.3217 15.0671 23.754 13.2447 23.977ZM45.7417 24.276C49.5827 24.276 51.7677 22.206 51.7677 19.17C51.7677 16.525 50.2497 15.076 47.0067 14.501L45.5117 14.225C43.9707 13.949 43.2807 13.443 43.2807 12.224C43.2807 11.028 44.1777 10.338 45.9027 10.338C47.6047 10.338 48.7087 11.005 49.4907 11.994L51.5607 10.039C50.2727 8.498 48.4787 7.67 46.0637 7.67C42.4757 7.67 40.2447 9.533 40.2447 12.408C40.2447 15.03 41.8087 16.571 45.0517 17.077L46.5697 17.307C48.2487 17.606 48.7547 18.273 48.7547 19.354C48.7547 20.711 47.7887 21.608 45.9257 21.608C44.2697 21.608 42.9127 20.918 41.8087 19.63L39.7617 21.608C41.1187 23.195 43.0047 24.276 45.7417 24.276ZM59.7124 24V21.654H57.4354V14.317H59.8964V11.994H57.4354V8.705H54.7904V10.752C54.7904 11.58 54.5144 11.994 53.6404 11.994H52.7204V14.317H54.4914V20.941C54.4914 22.896 55.5724 24 57.5964 24H59.7124ZM64.704 16.64V24H61.76V11.994H64.704V14.478H64.819C65.118 13.213 66.084 11.994 67.993 11.994H68.637V14.777H67.717C65.739 14.777 64.704 15.329 64.704 16.64ZM74.84 24.276C77.071 24.276 78.819 23.425 79.808 22.068L78.221 20.297C77.485 21.24 76.611 21.93 75.162 21.93C73.2299 21.93 72.241 20.757 72.241 19.032V18.733H80.222V17.767C80.222 14.478 78.497 11.718 74.748 11.718C71.229 11.718 69.182 14.179 69.182 17.974C69.182 21.815 71.298 24.276 74.84 24.276ZM74.794 13.926C76.312 13.926 77.1629 15.053 77.1629 16.709V16.916H72.241V16.732C72.241 15.076 73.253 13.926 74.794 13.926ZM88.5852 21.93C88.1942 23.471 86.8831 24.276 85.0891 24.276C82.6511 24.276 81.2711 22.873 81.2711 20.734C81.2711 18.273 83.1341 17.054 86.4001 17.054H88.4472V16.18C88.4472 14.846 87.7802 14.064 86.2162 14.064C84.8362 14.064 84.0542 14.754 83.4792 15.582L81.7312 14.018C82.6051 12.638 84.0081 11.718 86.4231 11.718C89.6662 11.718 91.3912 13.259 91.3912 15.996V21.654H92.5872V24H90.9541C89.6891 24 88.9072 23.172 88.7232 21.93H88.5852ZM84.2612 20.688C84.2612 21.654 84.9282 22.137 86.0782 22.137C87.3892 22.137 88.4472 21.539 88.4472 20.412V18.825H86.5611C85.0201 18.825 84.2612 19.354 84.2612 20.297V20.688ZM97.2238 24V16.065C97.2238 14.777 98.3278 14.133 99.4548 14.133C100.766 14.133 101.387 14.984 101.387 16.709V24H104.331V16.065C104.331 14.777 105.412 14.133 106.562 14.133C107.873 14.133 108.494 14.984 108.494 16.709V24H111.438V16.41C111.438 13.42 110.104 11.718 107.758 11.718C105.849 11.718 104.515 12.799 104.078 14.133H104.032C103.457 12.523 102.192 11.718 100.559 11.718C98.7648 11.718 97.7988 12.73 97.3388 13.995H97.2238V11.994H94.2798V24H97.2238ZM116.951 16.64V24H114.007V11.994H116.951V14.478H117.066C117.365 13.213 118.331 11.994 120.24 11.994H120.884V14.777H119.964C117.986 14.777 116.951 15.329 116.951 16.64Z" fill="#FFFFFF"/>
</svg>
