<svg viewBox="0 0 192 67.782" xmlns="http://www.w3.org/2000/svg" aria-hidden="true">
  <path fill-rule="evenodd" clip-rule="evenodd" d="M4.59659 4.78067C0 9.37727 0 16.7754 0 31.5715V36.2105C0 51.0067 0 58.4047 4.59659 63.0013C9.19319 67.5979 16.5913 67.5979 31.3874 67.5979H36.0264C50.8226 67.5979 58.2206 67.5979 62.8172 63.0013C67.4138 58.4047 67.4138 51.0067 67.4138 36.2105V31.5715C67.4138 16.7754 67.4138 9.37727 62.8172 4.78067C58.2206 0.184082 50.8226 0.184082 36.0264 0.184082H31.3874C16.5913 0.184082 9.19319 0.184082 4.59659 4.78067ZM34.9996 15.7762C34.9996 15.5473 34.8538 15.3438 34.637 15.2704L16.0986 8.98033C15.7522 8.8628 15.3929 9.12035 15.3929 9.48614V16.2986C15.3929 17.9198 16.4921 19.3696 18.1474 19.9312L32.2451 24.7146C33.9004 25.2762 34.9996 26.7259 34.9996 28.3471V35.8647L16.0986 29.4516C15.7523 29.3341 15.3929 29.5917 15.3929 29.9574V36.7699C15.3929 38.3911 16.4921 39.8409 18.1474 40.4025L26.9287 43.3819V58.2666C26.9287 58.5616 27.1679 58.8007 27.4628 58.8007H34.4722C34.7674 58.8007 35.0066 58.5611 35.0063 58.2659L34.9903 46.1172L34.9997 46.1203L34.9996 35.8647L51.8518 30.1467C53.507 29.5851 54.6064 28.1353 54.6064 26.5141V19.888C54.6064 19.4308 54.1571 19.1088 53.7241 19.2557L34.9996 25.6089V15.7762Z"/>
  <path d="M105.928 17.1281V25.6002H98.0948V45.8262C98.0948 49.1081 99.7075 49.9477 102.011 50.0241C103.163 50.0241 105.16 49.9477 106.542 49.7951V58.725C105.313 58.954 103.317 59.1066 100.475 59.1066C92.2585 59.1066 86.6527 55.443 86.7295 47.4289V25.6002H80.97V17.1281H86.7295V7.20596H98.0948V17.1281H105.928Z"/>
  <path d="M110.71 58.5723V17.1281H121.692V24.3026H122.153C123.689 19.1888 127.528 16.5175 132.212 16.5175C133.364 16.5175 134.824 16.6701 135.822 16.8991V26.9739C134.747 26.6687 132.596 26.3634 130.984 26.3634C125.838 26.3634 122.076 29.9507 122.076 34.988V58.5723H110.71Z"/>
  <path d="M138.991 58.5724V17.1281H150.358V58.5724H138.991ZM144.674 11.7091C141.218 11.7091 138.454 9.11405 138.454 5.98475C138.454 2.77912 141.218 0.184082 144.674 0.184082C148.054 0.184082 150.817 2.77912 150.817 5.98475C150.817 9.11405 148.054 11.7091 144.674 11.7091Z"/>
  <path d="M154.832 46.971C154.832 37.7358 162.359 34.6828 170.345 34.2248C173.34 34.034 178.945 33.7669 180.712 33.6906V30.3323C180.635 26.8976 178.254 24.8369 174.031 24.8369C170.191 24.8369 167.734 26.5924 167.119 29.4163H156.292C156.983 22.2419 163.279 16.5938 174.338 16.5938C183.4 16.5938 192 20.639 192 30.6376V58.5724H181.249V52.848H180.942C178.868 56.6642 174.953 59.3356 168.732 59.3356C160.746 59.3356 154.832 55.214 154.832 46.971ZM165.737 46.6657C165.737 49.8714 168.348 51.5504 171.958 51.5504C177.102 51.5504 180.788 48.1159 180.712 43.7654V40.7124C178.984 40.7887 174.146 41.0558 172.188 41.2466C168.271 41.6282 165.737 43.46 165.737 46.6657Z"/>
</svg>